<?xml version="1.0" encoding="utf-8" standalone="no"?>
<!DOCTYPE svg PUBLIC "-//W3C//DTD SVG 1.1//EN"
  "http://www.w3.org/Graphics/SVG/1.1/DTD/svg11.dtd">
<!-- Created with matplotlib (https://matplotlib.org/) -->
<svg height="668.364219pt" version="1.1" viewBox="0 0 677.975937 668.364219" width="677.975937pt" xmlns="http://www.w3.org/2000/svg" xmlns:xlink="http://www.w3.org/1999/xlink">
 <metadata>
  <rdf:RDF xmlns:cc="http://creativecommons.org/ns#" xmlns:dc="http://purl.org/dc/elements/1.1/" xmlns:rdf="http://www.w3.org/1999/02/22-rdf-syntax-ns#">
   <cc:Work>
    <dc:type rdf:resource="http://purl.org/dc/dcmitype/StillImage"/>
    <dc:date>2025-05-04T04:34:57.168489</dc:date>
    <dc:format>image/svg+xml</dc:format>
    <dc:creator>
     <cc:Agent>
      <dc:title>Matplotlib v3.3.4, https://matplotlib.org/</dc:title>
     </cc:Agent>
    </dc:creator>
   </cc:Work>
  </rdf:RDF>
 </metadata>
 <defs>
  <style type="text/css">*{stroke-linecap:butt;stroke-linejoin:round;}</style>
 </defs>
 <g id="figure_1">
  <g id="patch_1">
   <path d="M -0 668.364219 
L 677.975937 668.364219 
L 677.975937 0 
L -0 0 
z
" style="fill:none;"/>
  </g>
  <g id="axes_1">
   <g id="patch_2">
    <path d="M 80.385938 599.865 
L 666.285937 599.865 
L 666.285937 56.265 
L 80.385938 56.265 
z
" style="fill:#ffffff;"/>
   </g>
   <g id="line2d_1">
    <path clip-path="url(#pc712bf1dc7)" d="M 90.848438 575.155909 
L 96.079688 573.7382 
L 101.310937 572.324558 
L 106.542187 570.914972 
L 111.773438 569.50943 
L 117.004687 568.107919 
L 122.235937 566.71043 
L 127.467187 565.316949 
L 132.698437 563.927466 
L 137.929688 562.54197 
L 143.160937 561.160448 
L 148.392187 559.782889 
L 153.623437 558.409282 
L 158.854687 557.039616 
L 164.085938 555.673879 
L 169.317187 554.31206 
L 174.548437 552.954148 
L 179.779687 551.600132 
L 185.010937 550.25 
L 190.242187 548.903741 
L 195.473437 547.561344 
L 200.704687 546.222799 
L 205.935937 544.888093 
L 211.167187 543.557216 
L 216.398437 542.230158 
L 221.629687 540.906906 
L 226.860937 539.587451 
L 232.092187 538.271781 
L 237.323437 536.959885 
L 242.554687 535.651753 
L 247.785937 534.347374 
L 253.017187 533.046736 
L 258.248437 531.74983 
L 263.479687 530.456645 
L 268.710937 529.167169 
L 273.942187 527.881393 
L 279.173437 526.599305 
L 284.404687 525.320895 
L 289.635937 524.046153 
L 294.867187 522.775068 
L 300.098437 521.507629 
L 305.329687 520.243826 
L 310.560937 518.983649 
L 315.792187 517.727087 
L 321.023437 516.47413 
L 326.254687 515.224768 
L 331.485937 513.978989 
L 336.717187 512.736785 
L 341.948437 511.498144 
L 347.179687 510.263056 
L 352.410937 509.031512 
L 357.642187 507.803501 
L 362.873437 506.579013 
L 368.104687 505.358037 
L 373.335937 504.140564 
L 378.567187 502.926584 
L 383.798437 501.716087 
L 389.029687 500.509062 
L 394.260937 499.3055 
L 399.492187 498.105391 
L 404.723437 496.908725 
L 409.954687 495.715491 
L 415.185937 494.525681 
L 420.417187 493.339284 
L 425.648437 492.156291 
L 430.879687 490.976691 
L 436.110937 489.800476 
L 441.342187 488.627634 
L 446.573437 487.458158 
L 451.804687 486.292036 
L 457.035937 485.12926 
L 462.267187 483.96982 
L 467.498437 482.813705 
L 472.729687 481.660908 
L 477.960937 480.511417 
L 483.192187 479.365225 
L 488.423437 478.22232 
L 493.654687 477.082694 
L 498.885937 475.946338 
L 504.117187 474.813241 
L 509.348437 473.683396 
L 514.579687 472.556791 
L 519.810937 471.433419 
L 525.042187 470.313269 
L 530.273437 469.196332 
L 535.504687 468.0826 
L 540.735937 466.972063 
L 545.967187 465.864712 
L 551.198437 464.760538 
L 556.429687 463.659532 
L 561.660937 462.561683 
L 566.892187 461.466985 
L 572.123437 460.375427 
L 577.354687 459.287 
L 582.585937 458.201696 
L 587.817187 457.119505 
L 593.048437 456.040419 
L 598.279687 454.964429 
L 603.510937 453.891525 
L 608.742187 452.8217 
L 613.973437 451.754943 
L 619.204687 450.691247 
L 624.435937 449.630603 
L 629.667187 448.573001 
L 634.898437 447.518433 
L 640.129687 446.46689 
L 645.360937 445.418365 
L 650.592187 444.372847 
" style="fill:none;stroke:#323232;stroke-linecap:square;stroke-opacity:0.5;stroke-width:6;"/>
   </g>
   <g id="line2d_2">
    <path clip-path="url(#pc712bf1dc7)" d="M 90.848438 575.155909 
L 96.079688 561.160448 
L 101.310937 547.561344 
L 106.542187 534.347374 
L 111.773438 521.507629 
L 117.004687 509.031512 
L 122.235937 496.908725 
L 127.467187 485.12926 
L 132.698437 473.683396 
L 137.929688 462.561683 
L 143.160937 451.754943 
L 148.392187 441.254255 
L 153.623437 431.050952 
L 158.854687 421.13661 
L 164.085938 411.503048 
L 169.317187 402.142312 
L 174.548437 393.046677 
L 179.779687 384.208635 
L 185.010937 375.62089 
L 190.242187 367.276354 
L 195.473437 359.168139 
L 200.704687 351.289553 
L 205.935937 343.634092 
L 211.167187 336.195437 
L 216.398437 328.967448 
L 221.629687 321.94416 
L 226.860937 315.119774 
L 232.092187 308.488658 
L 237.323437 302.045339 
L 242.554687 295.784497 
L 247.785937 289.700965 
L 253.017187 283.789722 
L 258.248437 278.045888 
L 263.479687 272.464722 
L 268.710937 267.041617 
L 273.942187 261.772097 
L 279.173437 256.651813 
L 284.404687 251.676537 
L 289.635937 246.842164 
L 294.867187 242.144702 
L 300.098437 237.580274 
L 305.329687 233.145114 
L 310.560937 228.835559 
L 315.792187 224.648052 
L 321.023437 220.579138 
L 326.254687 216.625458 
L 331.485937 212.783747 
L 336.717187 209.050836 
L 341.948437 205.423642 
L 347.179687 201.899172 
L 352.410937 198.474517 
L 357.642187 195.14685 
L 362.873437 191.913423 
L 368.104687 188.771569 
L 373.335937 185.718694 
L 378.567187 182.752278 
L 383.798437 179.869871 
L 389.029687 177.069096 
L 394.260937 174.347641 
L 399.492187 171.703258 
L 404.723437 169.133765 
L 409.954687 166.637042 
L 415.185937 164.211027 
L 420.417187 161.853718 
L 425.648437 159.563168 
L 430.879687 157.337489 
L 436.110937 155.174841 
L 441.342187 153.073441 
L 446.573437 151.031554 
L 451.804687 149.047494 
L 457.035937 147.119623 
L 462.267187 145.24635 
L 467.498437 143.42613 
L 472.729687 141.657458 
L 477.960937 139.938877 
L 483.192187 138.268966 
L 488.423437 136.646349 
L 493.654687 135.069684 
L 498.885937 133.537671 
L 504.117187 132.049046 
L 509.348437 130.602579 
L 514.579687 129.197077 
L 519.810937 127.83138 
L 525.042187 126.504359 
L 530.273437 125.214921 
L 535.504687 123.961999 
L 540.735937 122.744562 
L 545.967187 121.561602 
L 551.198437 120.412145 
L 556.429687 119.295241 
L 561.660937 118.209968 
L 566.892187 117.15543 
L 572.123437 116.130758 
L 577.354687 115.135104 
L 582.585937 114.167648 
L 587.817187 113.227591 
L 593.048437 112.314157 
L 598.279687 111.426591 
L 603.510937 110.564162 
L 608.742187 109.726158 
L 613.973437 108.911885 
L 619.204687 108.120674 
L 624.435937 107.35187 
L 629.667187 106.604839 
L 634.898437 105.878964 
L 640.129687 105.173646 
L 645.360937 104.488304 
L 650.592187 103.82237 
" style="fill:none;stroke:#323232;stroke-linecap:square;stroke-opacity:0.5;stroke-width:6;"/>
   </g>
   <g id="line2d_3">
    <path clip-path="url(#pc712bf1dc7)" d="M 90.848438 575.155909 
L 96.079688 451.754943 
L 101.310937 359.168139 
L 106.542187 289.700965 
L 111.773438 237.580274 
L 117.004687 198.474517 
L 122.235937 169.133765 
L 127.467187 147.119623 
L 132.698437 130.602579 
L 137.929688 118.209968 
L 143.160937 108.911885 
L 148.392187 101.935605 
L 153.623437 96.701355 
L 158.854687 92.774138 
L 164.085938 89.827576 
L 169.317187 87.616793 
L 174.548437 85.95806 
L 179.779687 84.713525 
L 185.010937 83.77976 
L 190.242187 83.079163 
L 195.473437 82.55351 
L 200.704687 82.159117 
L 205.935937 81.863207 
L 211.167187 81.641188 
L 216.398437 81.474609 
L 221.629687 81.349626 
L 226.860937 81.255852 
L 232.092187 81.185494 
L 237.323437 81.132705 
L 242.554687 81.093098 
L 247.785937 81.063381 
L 253.017187 81.041085 
L 258.248437 81.024356 
L 263.479687 81.011804 
L 268.710937 81.002387 
L 273.942187 80.995321 
L 279.173437 80.99002 
L 284.404687 80.986042 
L 289.635937 80.983058 
L 294.867187 80.980819 
L 300.098437 80.979139 
L 305.329687 80.977878 
L 310.560937 80.976933 
L 315.792187 80.976223 
L 321.023437 80.975691 
L 326.254687 80.975291 
L 331.485937 80.974991 
L 336.717187 80.974767 
L 341.948437 80.974598 
L 347.179687 80.974471 
L 352.410937 80.974376 
L 357.642187 80.974305 
L 362.873437 80.974252 
L 368.104687 80.974211 
L 373.335937 80.974181 
L 378.567187 80.974159 
L 383.798437 80.974142 
L 389.029687 80.974129 
L 394.260937 80.97412 
L 399.492187 80.974112 
L 404.723437 80.974107 
L 409.954687 80.974103 
L 415.185937 80.9741 
L 420.417187 80.974098 
L 425.648437 80.974096 
L 430.879687 80.974095 
L 436.110937 80.974094 
L 441.342187 80.974093 
L 446.573437 80.974093 
L 451.804687 80.974092 
L 457.035937 80.974092 
L 462.267187 80.974092 
L 467.498437 80.974091 
L 472.729687 80.974091 
L 477.960937 80.974091 
L 483.192187 80.974091 
L 488.423437 80.974091 
L 493.654687 80.974091 
L 498.885937 80.974091 
L 504.117187 80.974091 
L 509.348437 80.974091 
L 514.579687 80.974091 
L 519.810937 80.974091 
L 525.042187 80.974091 
L 530.273437 80.974091 
L 535.504687 80.974091 
L 540.735937 80.974091 
L 545.967187 80.974091 
L 551.198437 80.974091 
L 556.429687 80.974091 
L 561.660937 80.974091 
L 566.892187 80.974091 
L 572.123437 80.974091 
L 577.354687 80.974091 
L 582.585937 80.974091 
L 587.817187 80.974091 
L 593.048437 80.974091 
L 598.279687 80.974091 
L 603.510937 80.974091 
L 608.742187 80.974091 
L 613.973437 80.974091 
L 619.204687 80.974091 
L 624.435937 80.974091 
L 629.667187 80.974091 
L 634.898437 80.974091 
L 640.129687 80.974091 
L 645.360937 80.974091 
L 650.592187 80.974091 
" style="fill:none;stroke:#323232;stroke-linecap:square;stroke-opacity:0.5;stroke-width:6;"/>
   </g>
   <g id="PathCollection_1">
    <defs>
     <path d="M 0 9.354143 
C 2.480748 9.354143 4.860225 8.368532 6.614378 6.614378 
C 8.368532 4.860225 9.354143 2.480748 9.354143 0 
C 9.354143 -2.480748 8.368532 -4.860225 6.614378 -6.614378 
C 4.860225 -8.368532 2.480748 -9.354143 0 -9.354143 
C -2.480748 -9.354143 -4.860225 -8.368532 -6.614378 -6.614378 
C -8.368532 -4.860225 -9.354143 -2.480748 -9.354143 0 
C -9.354143 2.480748 -8.368532 4.860225 -6.614378 6.614378 
C -4.860225 8.368532 -2.480748 9.354143 0 9.354143 
z
" id="m5b29dede39" style="stroke:#f58aa3;"/>
    </defs>
    <g clip-path="url(#pc712bf1dc7)">
     <use style="fill:#f58aa3;stroke:#f58aa3;" x="90.848438" xlink:href="#m5b29dede39" y="574.766522"/>
     <use style="fill:#f58aa3;stroke:#f58aa3;" x="106.542187" xlink:href="#m5b29dede39" y="574.563502"/>
     <use style="fill:#f58aa3;stroke:#f58aa3;" x="185.010937" xlink:href="#m5b29dede39" y="520.793527"/>
     <use style="fill:#f58aa3;stroke:#f58aa3;" x="655.823437" xlink:href="#m5b29dede39" y="431.651172"/>
    </g>
   </g>
   <g id="LineCollection_1">
    <path clip-path="url(#pc712bf1dc7)" d="M 90.848438 576.065886 
L 90.848438 573.467157 
" style="fill:none;stroke:#f58aa3;stroke-width:3;"/>
    <path clip-path="url(#pc712bf1dc7)" d="M 106.542187 576.43496 
L 106.542187 572.692044 
" style="fill:none;stroke:#f58aa3;stroke-width:3;"/>
    <path clip-path="url(#pc712bf1dc7)" d="M 185.010937 533.418719 
L 185.010937 508.168334 
" style="fill:none;stroke:#f58aa3;stroke-width:3;"/>
    <path clip-path="url(#pc712bf1dc7)" d="M 655.823437 453.89189 
L 655.823437 409.410455 
" style="fill:none;stroke:#f58aa3;stroke-width:3;"/>
   </g>
   <g id="PathCollection_2">
    <defs>
     <path d="M 0 13.228757 
L 13.228757 0 
L 0 -13.228757 
L -13.228757 0 
z
" id="m868a50a0b1" style="stroke:#ef476f;"/>
    </defs>
    <g clip-path="url(#pc712bf1dc7)">
     <use style="fill:#ef476f;stroke:#ef476f;" x="90.848438" xlink:href="#m868a50a0b1" y="574.727259"/>
     <use style="fill:#ef476f;stroke:#ef476f;" x="106.542187" xlink:href="#m868a50a0b1" y="555.139613"/>
     <use style="fill:#ef476f;stroke:#ef476f;" x="185.010937" xlink:href="#m868a50a0b1" y="274.42442"/>
     <use style="fill:#ef476f;stroke:#ef476f;" x="655.823437" xlink:href="#m868a50a0b1" y="129.693613"/>
    </g>
   </g>
   <g id="LineCollection_2">
    <path clip-path="url(#pc712bf1dc7)" d="M 90.848438 575.936494 
L 90.848438 573.518024 
" style="fill:none;stroke:#ef476f;stroke-width:3;"/>
    <path clip-path="url(#pc712bf1dc7)" d="M 106.542187 560.977832 
L 106.542187 549.301393 
" style="fill:none;stroke:#ef476f;stroke-width:3;"/>
    <path clip-path="url(#pc712bf1dc7)" d="M 185.010937 296.969181 
L 185.010937 251.879659 
" style="fill:none;stroke:#ef476f;stroke-width:3;"/>
    <path clip-path="url(#pc712bf1dc7)" d="M 655.823437 141.041744 
L 655.823437 118.345482 
" style="fill:none;stroke:#ef476f;stroke-width:3;"/>
   </g>
   <g id="PathCollection_3">
    <defs>
     <path d="M -9.354143 9.354143 
L 9.354143 9.354143 
L 9.354143 -9.354143 
L -9.354143 -9.354143 
z
" id="mea93a2c63d" style="stroke:#a40e32;"/>
    </defs>
    <g clip-path="url(#pc712bf1dc7)">
     <use style="fill:#a40e32;stroke:#a40e32;" x="90.848438" xlink:href="#mea93a2c63d" y="574.892808"/>
     <use style="fill:#a40e32;stroke:#a40e32;" x="106.542187" xlink:href="#mea93a2c63d" y="285.700679"/>
     <use style="fill:#a40e32;stroke:#a40e32;" x="185.010937" xlink:href="#mea93a2c63d" y="85.186266"/>
     <use style="fill:#a40e32;stroke:#a40e32;" x="655.823437" xlink:href="#mea93a2c63d" y="92.266338"/>
    </g>
   </g>
   <g id="LineCollection_3">
    <path clip-path="url(#pc712bf1dc7)" d="M 90.848438 575.642976 
L 90.848438 574.14264 
" style="fill:none;stroke:#a40e32;stroke-width:3;"/>
    <path clip-path="url(#pc712bf1dc7)" d="M 106.542187 304.614764 
L 106.542187 266.786593 
" style="fill:none;stroke:#a40e32;stroke-width:3;"/>
    <path clip-path="url(#pc712bf1dc7)" d="M 185.010937 88.785976 
L 185.010937 81.586556 
" style="fill:none;stroke:#a40e32;stroke-width:3;"/>
    <path clip-path="url(#pc712bf1dc7)" d="M 655.823437 97.582017 
L 655.823437 86.95066 
" style="fill:none;stroke:#a40e32;stroke-width:3;"/>
   </g>
   <g id="line2d_4">
    <defs>
     <path d="M 5 0 
L -5 -0 
" id="m304a1ce83f" style="stroke:#f58aa3;"/>
    </defs>
    <g clip-path="url(#pc712bf1dc7)">
     <use style="fill:#f58aa3;stroke:#f58aa3;" x="90.848438" xlink:href="#m304a1ce83f" y="576.065886"/>
     <use style="fill:#f58aa3;stroke:#f58aa3;" x="106.542187" xlink:href="#m304a1ce83f" y="576.43496"/>
     <use style="fill:#f58aa3;stroke:#f58aa3;" x="185.010937" xlink:href="#m304a1ce83f" y="533.418719"/>
     <use style="fill:#f58aa3;stroke:#f58aa3;" x="655.823437" xlink:href="#m304a1ce83f" y="453.89189"/>
    </g>
   </g>
   <g id="line2d_5">
    <g clip-path="url(#pc712bf1dc7)">
     <use style="fill:#f58aa3;stroke:#f58aa3;" x="90.848438" xlink:href="#m304a1ce83f" y="573.467157"/>
     <use style="fill:#f58aa3;stroke:#f58aa3;" x="106.542187" xlink:href="#m304a1ce83f" y="572.692044"/>
     <use style="fill:#f58aa3;stroke:#f58aa3;" x="185.010937" xlink:href="#m304a1ce83f" y="508.168334"/>
     <use style="fill:#f58aa3;stroke:#f58aa3;" x="655.823437" xlink:href="#m304a1ce83f" y="409.410455"/>
    </g>
   </g>
   <g id="line2d_6">
    <defs>
     <path d="M 5 0 
L -5 -0 
" id="m33b13c58fe" style="stroke:#ef476f;"/>
    </defs>
    <g clip-path="url(#pc712bf1dc7)">
     <use style="fill:#ef476f;stroke:#ef476f;" x="90.848438" xlink:href="#m33b13c58fe" y="575.936494"/>
     <use style="fill:#ef476f;stroke:#ef476f;" x="106.542187" xlink:href="#m33b13c58fe" y="560.977832"/>
     <use style="fill:#ef476f;stroke:#ef476f;" x="185.010937" xlink:href="#m33b13c58fe" y="296.969181"/>
     <use style="fill:#ef476f;stroke:#ef476f;" x="655.823437" xlink:href="#m33b13c58fe" y="141.041744"/>
    </g>
   </g>
   <g id="line2d_7">
    <g clip-path="url(#pc712bf1dc7)">
     <use style="fill:#ef476f;stroke:#ef476f;" x="90.848438" xlink:href="#m33b13c58fe" y="573.518024"/>
     <use style="fill:#ef476f;stroke:#ef476f;" x="106.542187" xlink:href="#m33b13c58fe" y="549.301393"/>
     <use style="fill:#ef476f;stroke:#ef476f;" x="185.010937" xlink:href="#m33b13c58fe" y="251.879659"/>
     <use style="fill:#ef476f;stroke:#ef476f;" x="655.823437" xlink:href="#m33b13c58fe" y="118.345482"/>
    </g>
   </g>
   <g id="line2d_8">
    <defs>
     <path d="M 5 0 
L -5 -0 
" id="mec5c020cd4" style="stroke:#a40e32;"/>
    </defs>
    <g clip-path="url(#pc712bf1dc7)">
     <use style="fill:#a40e32;stroke:#a40e32;" x="90.848438" xlink:href="#mec5c020cd4" y="575.642976"/>
     <use style="fill:#a40e32;stroke:#a40e32;" x="106.542187" xlink:href="#mec5c020cd4" y="304.614764"/>
     <use style="fill:#a40e32;stroke:#a40e32;" x="185.010937" xlink:href="#mec5c020cd4" y="88.785976"/>
     <use style="fill:#a40e32;stroke:#a40e32;" x="655.823437" xlink:href="#mec5c020cd4" y="97.582017"/>
    </g>
   </g>
   <g id="line2d_9">
    <g clip-path="url(#pc712bf1dc7)">
     <use style="fill:#a40e32;stroke:#a40e32;" x="90.848438" xlink:href="#mec5c020cd4" y="574.14264"/>
     <use style="fill:#a40e32;stroke:#a40e32;" x="106.542187" xlink:href="#mec5c020cd4" y="266.786593"/>
     <use style="fill:#a40e32;stroke:#a40e32;" x="185.010937" xlink:href="#mec5c020cd4" y="81.586556"/>
     <use style="fill:#a40e32;stroke:#a40e32;" x="655.823437" xlink:href="#mec5c020cd4" y="86.95066"/>
    </g>
   </g>
   <g id="line2d_10"/>
   <g id="line2d_11"/>
   <g id="line2d_12"/>
   <g id="matplotlib.axis_1">
    <g id="xtick_1">
     <g id="line2d_13">
      <defs>
       <path d="M 0 0 
L 0 3.5 
" id="mafadcfde67" style="stroke:#000000;stroke-width:0.8;"/>
      </defs>
      <g>
       <use style="stroke:#000000;stroke-width:0.8;" x="90.848438" xlink:href="#mafadcfde67" y="599.865"/>
      </g>
     </g>
     <g id="text_1">
      <!-- 0 -->
      <g transform="translate(83.897266 624.759531)scale(0.25 -0.25)">
       <defs>
        <path d="M 4.15625 35.296875 
Q 4.15625 48 6.765625 55.734375 
Q 9.375 63.484375 14.515625 67.671875 
Q 19.671875 71.875 27.484375 71.875 
Q 33.25 71.875 37.59375 69.546875 
Q 41.9375 67.234375 44.765625 62.859375 
Q 47.609375 58.5 49.21875 52.21875 
Q 50.828125 45.953125 50.828125 35.296875 
Q 50.828125 22.703125 48.234375 14.96875 
Q 45.65625 7.234375 40.5 3 
Q 35.359375 -1.21875 27.484375 -1.21875 
Q 17.140625 -1.21875 11.234375 6.203125 
Q 4.15625 15.140625 4.15625 35.296875 
z
M 13.1875 35.296875 
Q 13.1875 17.671875 17.3125 11.828125 
Q 21.4375 6 27.484375 6 
Q 33.546875 6 37.671875 11.859375 
Q 41.796875 17.71875 41.796875 35.296875 
Q 41.796875 52.984375 37.671875 58.78125 
Q 33.546875 64.59375 27.390625 64.59375 
Q 21.34375 64.59375 17.71875 59.46875 
Q 13.1875 52.9375 13.1875 35.296875 
z
" id="ArialMT-48"/>
       </defs>
       <use xlink:href="#ArialMT-48"/>
      </g>
     </g>
    </g>
    <g id="xtick_2">
     <g id="line2d_14">
      <g>
       <use style="stroke:#000000;stroke-width:0.8;" x="195.473437" xlink:href="#mafadcfde67" y="599.865"/>
      </g>
     </g>
     <g id="text_2">
      <!-- 100 -->
      <g transform="translate(174.619922 624.759531)scale(0.25 -0.25)">
       <defs>
        <path d="M 37.25 0 
L 28.46875 0 
L 28.46875 56 
Q 25.296875 52.984375 20.140625 49.953125 
Q 14.984375 46.921875 10.890625 45.40625 
L 10.890625 53.90625 
Q 18.265625 57.375 23.78125 62.296875 
Q 29.296875 67.234375 31.59375 71.875 
L 37.25 71.875 
z
" id="ArialMT-49"/>
       </defs>
       <use xlink:href="#ArialMT-49"/>
       <use x="55.615234" xlink:href="#ArialMT-48"/>
       <use x="111.230469" xlink:href="#ArialMT-48"/>
      </g>
     </g>
    </g>
    <g id="xtick_3">
     <g id="line2d_15">
      <g>
       <use style="stroke:#000000;stroke-width:0.8;" x="300.098437" xlink:href="#mafadcfde67" y="599.865"/>
      </g>
     </g>
     <g id="text_3">
      <!-- 200 -->
      <g transform="translate(279.244922 624.759531)scale(0.25 -0.25)">
       <defs>
        <path d="M 50.34375 8.453125 
L 50.34375 0 
L 3.03125 0 
Q 2.9375 3.171875 4.046875 6.109375 
Q 5.859375 10.9375 9.828125 15.625 
Q 13.8125 20.3125 21.34375 26.46875 
Q 33.015625 36.03125 37.109375 41.625 
Q 41.21875 47.21875 41.21875 52.203125 
Q 41.21875 57.421875 37.46875 61 
Q 33.734375 64.59375 27.734375 64.59375 
Q 21.390625 64.59375 17.578125 60.78125 
Q 13.765625 56.984375 13.71875 50.25 
L 4.6875 51.171875 
Q 5.609375 61.28125 11.65625 66.578125 
Q 17.71875 71.875 27.9375 71.875 
Q 38.234375 71.875 44.234375 66.15625 
Q 50.25 60.453125 50.25 52 
Q 50.25 47.703125 48.484375 43.546875 
Q 46.734375 39.40625 42.65625 34.8125 
Q 38.578125 30.21875 29.109375 22.21875 
Q 21.1875 15.578125 18.9375 13.203125 
Q 16.703125 10.84375 15.234375 8.453125 
z
" id="ArialMT-50"/>
       </defs>
       <use xlink:href="#ArialMT-50"/>
       <use x="55.615234" xlink:href="#ArialMT-48"/>
       <use x="111.230469" xlink:href="#ArialMT-48"/>
      </g>
     </g>
    </g>
    <g id="xtick_4">
     <g id="line2d_16">
      <g>
       <use style="stroke:#000000;stroke-width:0.8;" x="404.723437" xlink:href="#mafadcfde67" y="599.865"/>
      </g>
     </g>
     <g id="text_4">
      <!-- 300 -->
      <g transform="translate(383.869922 624.759531)scale(0.25 -0.25)">
       <defs>
        <path d="M 4.203125 18.890625 
L 12.984375 20.0625 
Q 14.5 12.59375 18.140625 9.296875 
Q 21.78125 6 27 6 
Q 33.203125 6 37.46875 10.296875 
Q 41.75 14.59375 41.75 20.953125 
Q 41.75 27 37.796875 30.921875 
Q 33.84375 34.859375 27.734375 34.859375 
Q 25.25 34.859375 21.53125 33.890625 
L 22.515625 41.609375 
Q 23.390625 41.5 23.921875 41.5 
Q 29.546875 41.5 34.03125 44.421875 
Q 38.53125 47.359375 38.53125 53.46875 
Q 38.53125 58.296875 35.25 61.46875 
Q 31.984375 64.65625 26.8125 64.65625 
Q 21.6875 64.65625 18.265625 61.421875 
Q 14.84375 58.203125 13.875 51.765625 
L 5.078125 53.328125 
Q 6.6875 62.15625 12.390625 67.015625 
Q 18.109375 71.875 26.609375 71.875 
Q 32.46875 71.875 37.390625 69.359375 
Q 42.328125 66.84375 44.9375 62.5 
Q 47.5625 58.15625 47.5625 53.265625 
Q 47.5625 48.640625 45.0625 44.828125 
Q 42.578125 41.015625 37.703125 38.765625 
Q 44.046875 37.3125 47.5625 32.6875 
Q 51.078125 28.078125 51.078125 21.140625 
Q 51.078125 11.765625 44.234375 5.25 
Q 37.40625 -1.265625 26.953125 -1.265625 
Q 17.53125 -1.265625 11.296875 4.34375 
Q 5.078125 9.96875 4.203125 18.890625 
z
" id="ArialMT-51"/>
       </defs>
       <use xlink:href="#ArialMT-51"/>
       <use x="55.615234" xlink:href="#ArialMT-48"/>
       <use x="111.230469" xlink:href="#ArialMT-48"/>
      </g>
     </g>
    </g>
    <g id="xtick_5">
     <g id="line2d_17">
      <g>
       <use style="stroke:#000000;stroke-width:0.8;" x="509.348437" xlink:href="#mafadcfde67" y="599.865"/>
      </g>
     </g>
     <g id="text_5">
      <!-- 400 -->
      <g transform="translate(488.494922 624.759531)scale(0.25 -0.25)">
       <defs>
        <path d="M 32.328125 0 
L 32.328125 17.140625 
L 1.265625 17.140625 
L 1.265625 25.203125 
L 33.9375 71.578125 
L 41.109375 71.578125 
L 41.109375 25.203125 
L 50.78125 25.203125 
L 50.78125 17.140625 
L 41.109375 17.140625 
L 41.109375 0 
z
M 32.328125 25.203125 
L 32.328125 57.46875 
L 9.90625 25.203125 
z
" id="ArialMT-52"/>
       </defs>
       <use xlink:href="#ArialMT-52"/>
       <use x="55.615234" xlink:href="#ArialMT-48"/>
       <use x="111.230469" xlink:href="#ArialMT-48"/>
      </g>
     </g>
    </g>
    <g id="xtick_6">
     <g id="line2d_18">
      <g>
       <use style="stroke:#000000;stroke-width:0.8;" x="613.973437" xlink:href="#mafadcfde67" y="599.865"/>
      </g>
     </g>
     <g id="text_6">
      <!-- 500 -->
      <g transform="translate(593.119922 624.759531)scale(0.25 -0.25)">
       <defs>
        <path d="M 4.15625 18.75 
L 13.375 19.53125 
Q 14.40625 12.796875 18.140625 9.390625 
Q 21.875 6 27.15625 6 
Q 33.5 6 37.890625 10.78125 
Q 42.28125 15.578125 42.28125 23.484375 
Q 42.28125 31 38.0625 35.34375 
Q 33.84375 39.703125 27 39.703125 
Q 22.75 39.703125 19.328125 37.765625 
Q 15.921875 35.84375 13.96875 32.765625 
L 5.71875 33.84375 
L 12.640625 70.609375 
L 48.25 70.609375 
L 48.25 62.203125 
L 19.671875 62.203125 
L 15.828125 42.96875 
Q 22.265625 47.46875 29.34375 47.46875 
Q 38.71875 47.46875 45.15625 40.96875 
Q 51.609375 34.46875 51.609375 24.265625 
Q 51.609375 14.546875 45.953125 7.46875 
Q 39.0625 -1.21875 27.15625 -1.21875 
Q 17.390625 -1.21875 11.203125 4.25 
Q 5.03125 9.71875 4.15625 18.75 
z
" id="ArialMT-53"/>
       </defs>
       <use xlink:href="#ArialMT-53"/>
       <use x="55.615234" xlink:href="#ArialMT-48"/>
       <use x="111.230469" xlink:href="#ArialMT-48"/>
      </g>
     </g>
    </g>
    <g id="text_7">
     <!-- Time -->
     <g transform="translate(340.567969 655.201719)scale(0.3 -0.3)">
      <defs>
       <path d="M 25.921875 0 
L 25.921875 63.140625 
L 2.34375 63.140625 
L 2.34375 71.578125 
L 59.078125 71.578125 
L 59.078125 63.140625 
L 35.40625 63.140625 
L 35.40625 0 
z
" id="ArialMT-84"/>
       <path d="M 6.640625 61.46875 
L 6.640625 71.578125 
L 15.4375 71.578125 
L 15.4375 61.46875 
z
M 6.640625 0 
L 6.640625 51.859375 
L 15.4375 51.859375 
L 15.4375 0 
z
" id="ArialMT-105"/>
       <path d="M 6.59375 0 
L 6.59375 51.859375 
L 14.453125 51.859375 
L 14.453125 44.578125 
Q 16.890625 48.390625 20.9375 50.703125 
Q 25 53.03125 30.171875 53.03125 
Q 35.9375 53.03125 39.625 50.640625 
Q 43.3125 48.25 44.828125 43.953125 
Q 50.984375 53.03125 60.84375 53.03125 
Q 68.5625 53.03125 72.703125 48.75 
Q 76.859375 44.484375 76.859375 35.59375 
L 76.859375 0 
L 68.109375 0 
L 68.109375 32.671875 
Q 68.109375 37.9375 67.25 40.25 
Q 66.40625 42.578125 64.15625 43.984375 
Q 61.921875 45.40625 58.890625 45.40625 
Q 53.421875 45.40625 49.796875 41.765625 
Q 46.1875 38.140625 46.1875 30.125 
L 46.1875 0 
L 37.40625 0 
L 37.40625 33.6875 
Q 37.40625 39.546875 35.25 42.46875 
Q 33.109375 45.40625 28.21875 45.40625 
Q 24.515625 45.40625 21.359375 43.453125 
Q 18.21875 41.5 16.796875 37.734375 
Q 15.375 33.984375 15.375 26.90625 
L 15.375 0 
z
" id="ArialMT-109"/>
       <path d="M 42.09375 16.703125 
L 51.171875 15.578125 
Q 49.03125 7.625 43.21875 3.21875 
Q 37.40625 -1.171875 28.375 -1.171875 
Q 17 -1.171875 10.328125 5.828125 
Q 3.65625 12.84375 3.65625 25.484375 
Q 3.65625 38.578125 10.390625 45.796875 
Q 17.140625 53.03125 27.875 53.03125 
Q 38.28125 53.03125 44.875 45.953125 
Q 51.46875 38.875 51.46875 26.03125 
Q 51.46875 25.25 51.421875 23.6875 
L 12.75 23.6875 
Q 13.234375 15.140625 17.578125 10.59375 
Q 21.921875 6.0625 28.421875 6.0625 
Q 33.25 6.0625 36.671875 8.59375 
Q 40.09375 11.140625 42.09375 16.703125 
z
M 13.234375 30.90625 
L 42.1875 30.90625 
Q 41.609375 37.453125 38.875 40.71875 
Q 34.671875 45.796875 27.984375 45.796875 
Q 21.921875 45.796875 17.796875 41.75 
Q 13.671875 37.703125 13.234375 30.90625 
z
" id="ArialMT-101"/>
      </defs>
      <use xlink:href="#ArialMT-84"/>
      <use x="57.333984" xlink:href="#ArialMT-105"/>
      <use x="79.550781" xlink:href="#ArialMT-109"/>
      <use x="162.851562" xlink:href="#ArialMT-101"/>
     </g>
    </g>
   </g>
   <g id="matplotlib.axis_2">
    <g id="ytick_1">
     <g id="line2d_19">
      <defs>
       <path d="M 0 0 
L -3.5 0 
" id="mad0b9eaa23" style="stroke:#000000;stroke-width:0.8;"/>
      </defs>
      <g>
       <use style="stroke:#000000;stroke-width:0.8;" x="80.385938" xlink:href="#mad0b9eaa23" y="575.155909"/>
      </g>
     </g>
     <g id="text_8">
      <!-- 0.0 -->
      <g transform="translate(38.635938 584.103175)scale(0.25 -0.25)">
       <defs>
        <path d="M 9.078125 0 
L 9.078125 10.015625 
L 19.09375 10.015625 
L 19.09375 0 
z
" id="ArialMT-46"/>
       </defs>
       <use xlink:href="#ArialMT-48"/>
       <use x="55.615234" xlink:href="#ArialMT-46"/>
       <use x="83.398438" xlink:href="#ArialMT-48"/>
      </g>
     </g>
    </g>
    <g id="ytick_2">
     <g id="line2d_20">
      <g>
       <use style="stroke:#000000;stroke-width:0.8;" x="80.385938" xlink:href="#mad0b9eaa23" y="476.319545"/>
      </g>
     </g>
     <g id="text_9">
      <!-- 0.2 -->
      <g transform="translate(38.635938 485.266811)scale(0.25 -0.25)">
       <use xlink:href="#ArialMT-48"/>
       <use x="55.615234" xlink:href="#ArialMT-46"/>
       <use x="83.398438" xlink:href="#ArialMT-50"/>
      </g>
     </g>
    </g>
    <g id="ytick_3">
     <g id="line2d_21">
      <g>
       <use style="stroke:#000000;stroke-width:0.8;" x="80.385938" xlink:href="#mad0b9eaa23" y="377.483182"/>
      </g>
     </g>
     <g id="text_10">
      <!-- 0.4 -->
      <g transform="translate(38.635938 386.430447)scale(0.25 -0.25)">
       <use xlink:href="#ArialMT-48"/>
       <use x="55.615234" xlink:href="#ArialMT-46"/>
       <use x="83.398438" xlink:href="#ArialMT-52"/>
      </g>
     </g>
    </g>
    <g id="ytick_4">
     <g id="line2d_22">
      <g>
       <use style="stroke:#000000;stroke-width:0.8;" x="80.385938" xlink:href="#mad0b9eaa23" y="278.646818"/>
      </g>
     </g>
     <g id="text_11">
      <!-- 0.6 -->
      <g transform="translate(38.635938 287.594084)scale(0.25 -0.25)">
       <defs>
        <path d="M 49.75 54.046875 
L 41.015625 53.375 
Q 39.84375 58.546875 37.703125 60.890625 
Q 34.125 64.65625 28.90625 64.65625 
Q 24.703125 64.65625 21.53125 62.3125 
Q 17.390625 59.28125 14.984375 53.46875 
Q 12.59375 47.65625 12.5 36.921875 
Q 15.671875 41.75 20.265625 44.09375 
Q 24.859375 46.4375 29.890625 46.4375 
Q 38.671875 46.4375 44.84375 39.96875 
Q 51.03125 33.5 51.03125 23.25 
Q 51.03125 16.5 48.125 10.71875 
Q 45.21875 4.9375 40.140625 1.859375 
Q 35.0625 -1.21875 28.609375 -1.21875 
Q 17.625 -1.21875 10.6875 6.859375 
Q 3.765625 14.9375 3.765625 33.5 
Q 3.765625 54.25 11.421875 63.671875 
Q 18.109375 71.875 29.4375 71.875 
Q 37.890625 71.875 43.28125 67.140625 
Q 48.6875 62.40625 49.75 54.046875 
z
M 13.875 23.1875 
Q 13.875 18.65625 15.796875 14.5 
Q 17.71875 10.359375 21.1875 8.171875 
Q 24.65625 6 28.46875 6 
Q 34.03125 6 38.03125 10.484375 
Q 42.046875 14.984375 42.046875 22.703125 
Q 42.046875 30.125 38.078125 34.390625 
Q 34.125 38.671875 28.125 38.671875 
Q 22.171875 38.671875 18.015625 34.390625 
Q 13.875 30.125 13.875 23.1875 
z
" id="ArialMT-54"/>
       </defs>
       <use xlink:href="#ArialMT-48"/>
       <use x="55.615234" xlink:href="#ArialMT-46"/>
       <use x="83.398438" xlink:href="#ArialMT-54"/>
      </g>
     </g>
    </g>
    <g id="ytick_5">
     <g id="line2d_23">
      <g>
       <use style="stroke:#000000;stroke-width:0.8;" x="80.385938" xlink:href="#mad0b9eaa23" y="179.810455"/>
      </g>
     </g>
     <g id="text_12">
      <!-- 0.8 -->
      <g transform="translate(38.635938 188.75772)scale(0.25 -0.25)">
       <defs>
        <path d="M 17.671875 38.8125 
Q 12.203125 40.828125 9.5625 44.53125 
Q 6.9375 48.25 6.9375 53.421875 
Q 6.9375 61.234375 12.546875 66.546875 
Q 18.171875 71.875 27.484375 71.875 
Q 36.859375 71.875 42.578125 66.421875 
Q 48.296875 60.984375 48.296875 53.171875 
Q 48.296875 48.1875 45.671875 44.5 
Q 43.0625 40.828125 37.75 38.8125 
Q 44.34375 36.671875 47.78125 31.875 
Q 51.21875 27.09375 51.21875 20.453125 
Q 51.21875 11.28125 44.71875 5.03125 
Q 38.234375 -1.21875 27.640625 -1.21875 
Q 17.046875 -1.21875 10.546875 5.046875 
Q 4.046875 11.328125 4.046875 20.703125 
Q 4.046875 27.6875 7.59375 32.390625 
Q 11.140625 37.109375 17.671875 38.8125 
z
M 15.921875 53.71875 
Q 15.921875 48.640625 19.1875 45.40625 
Q 22.46875 42.1875 27.6875 42.1875 
Q 32.765625 42.1875 36.015625 45.375 
Q 39.265625 48.578125 39.265625 53.21875 
Q 39.265625 58.0625 35.90625 61.359375 
Q 32.5625 64.65625 27.59375 64.65625 
Q 22.5625 64.65625 19.234375 61.421875 
Q 15.921875 58.203125 15.921875 53.71875 
z
M 13.09375 20.65625 
Q 13.09375 16.890625 14.875 13.375 
Q 16.65625 9.859375 20.171875 7.921875 
Q 23.6875 6 27.734375 6 
Q 34.03125 6 38.125 10.046875 
Q 42.234375 14.109375 42.234375 20.359375 
Q 42.234375 26.703125 38.015625 30.859375 
Q 33.796875 35.015625 27.4375 35.015625 
Q 21.234375 35.015625 17.15625 30.90625 
Q 13.09375 26.8125 13.09375 20.65625 
z
" id="ArialMT-56"/>
       </defs>
       <use xlink:href="#ArialMT-48"/>
       <use x="55.615234" xlink:href="#ArialMT-46"/>
       <use x="83.398438" xlink:href="#ArialMT-56"/>
      </g>
     </g>
    </g>
    <g id="ytick_6">
     <g id="line2d_24">
      <g>
       <use style="stroke:#000000;stroke-width:0.8;" x="80.385938" xlink:href="#mad0b9eaa23" y="80.974091"/>
      </g>
     </g>
     <g id="text_13">
      <!-- 1.0 -->
      <g transform="translate(38.635938 89.921357)scale(0.25 -0.25)">
       <use xlink:href="#ArialMT-49"/>
       <use x="55.615234" xlink:href="#ArialMT-46"/>
       <use x="83.398438" xlink:href="#ArialMT-48"/>
      </g>
     </g>
    </g>
    <g id="text_14">
     <!-- Yield -->
     <g transform="translate(28.673438 360.856406)rotate(-90)scale(0.3 -0.3)">
      <defs>
       <path d="M 27.875 0 
L 27.875 30.328125 
L 0.296875 71.578125 
L 11.8125 71.578125 
L 25.921875 50 
Q 29.828125 43.953125 33.203125 37.890625 
Q 36.421875 43.5 41.015625 50.53125 
L 54.890625 71.578125 
L 65.921875 71.578125 
L 37.359375 30.328125 
L 37.359375 0 
z
" id="ArialMT-89"/>
       <path d="M 6.390625 0 
L 6.390625 71.578125 
L 15.1875 71.578125 
L 15.1875 0 
z
" id="ArialMT-108"/>
       <path d="M 40.234375 0 
L 40.234375 6.546875 
Q 35.296875 -1.171875 25.734375 -1.171875 
Q 19.53125 -1.171875 14.328125 2.25 
Q 9.125 5.671875 6.265625 11.796875 
Q 3.421875 17.921875 3.421875 25.875 
Q 3.421875 33.640625 6 39.96875 
Q 8.59375 46.296875 13.765625 49.65625 
Q 18.953125 53.03125 25.34375 53.03125 
Q 30.03125 53.03125 33.6875 51.046875 
Q 37.359375 49.078125 39.65625 45.90625 
L 39.65625 71.578125 
L 48.390625 71.578125 
L 48.390625 0 
z
M 12.453125 25.875 
Q 12.453125 15.921875 16.640625 10.984375 
Q 20.84375 6.0625 26.5625 6.0625 
Q 32.328125 6.0625 36.34375 10.765625 
Q 40.375 15.484375 40.375 25.140625 
Q 40.375 35.796875 36.265625 40.765625 
Q 32.171875 45.75 26.171875 45.75 
Q 20.3125 45.75 16.375 40.96875 
Q 12.453125 36.1875 12.453125 25.875 
z
" id="ArialMT-100"/>
      </defs>
      <use xlink:href="#ArialMT-89"/>
      <use x="62.949219" xlink:href="#ArialMT-105"/>
      <use x="85.166016" xlink:href="#ArialMT-101"/>
      <use x="140.78125" xlink:href="#ArialMT-108"/>
      <use x="162.998047" xlink:href="#ArialMT-100"/>
     </g>
    </g>
   </g>
   <g id="patch_3">
    <path d="M 80.385938 599.865 
L 80.385938 56.265 
" style="fill:none;stroke:#000000;stroke-linecap:square;stroke-linejoin:miter;stroke-width:0.8;"/>
   </g>
   <g id="patch_4">
    <path d="M 666.285937 599.865 
L 666.285937 56.265 
" style="fill:none;stroke:#000000;stroke-linecap:square;stroke-linejoin:miter;stroke-width:0.8;"/>
   </g>
   <g id="patch_5">
    <path d="M 80.385938 599.865 
L 666.285937 599.865 
" style="fill:none;stroke:#000000;stroke-linecap:square;stroke-linejoin:miter;stroke-width:0.8;"/>
   </g>
   <g id="patch_6">
    <path d="M 80.385938 56.265 
L 666.285937 56.265 
" style="fill:none;stroke:#000000;stroke-linecap:square;stroke-linejoin:miter;stroke-width:0.8;"/>
   </g>
   <g id="text_15">
    <!-- SaIDTPNRdDGTFATSR $k_{cat}/K_{M}$ = 119.705 $\pm$ 7.476 $M^{-1} s^{-1}$ -->
    <g transform="translate(75.895937 26.5875)scale(0.22 -0.22)">
     <defs>
      <path d="M 4.5 23 
L 13.421875 23.78125 
Q 14.0625 18.40625 16.375 14.96875 
Q 18.703125 11.53125 23.578125 9.40625 
Q 28.46875 7.28125 34.578125 7.28125 
Q 39.984375 7.28125 44.140625 8.890625 
Q 48.296875 10.5 50.3125 13.296875 
Q 52.34375 16.109375 52.34375 19.4375 
Q 52.34375 22.796875 50.390625 25.3125 
Q 48.4375 27.828125 43.953125 29.546875 
Q 41.0625 30.671875 31.203125 33.03125 
Q 21.34375 35.40625 17.390625 37.5 
Q 12.25 40.1875 9.734375 44.15625 
Q 7.234375 48.140625 7.234375 53.078125 
Q 7.234375 58.5 10.296875 63.203125 
Q 13.375 67.921875 19.28125 70.359375 
Q 25.203125 72.796875 32.421875 72.796875 
Q 40.375 72.796875 46.453125 70.234375 
Q 52.546875 67.671875 55.8125 62.6875 
Q 59.078125 57.71875 59.328125 51.421875 
L 50.25 50.734375 
Q 49.515625 57.515625 45.28125 60.984375 
Q 41.0625 64.453125 32.8125 64.453125 
Q 24.21875 64.453125 20.28125 61.296875 
Q 16.359375 58.15625 16.359375 53.71875 
Q 16.359375 49.859375 19.140625 47.359375 
Q 21.875 44.875 33.421875 42.265625 
Q 44.96875 39.65625 49.265625 37.703125 
Q 55.515625 34.8125 58.484375 30.390625 
Q 61.46875 25.984375 61.46875 20.21875 
Q 61.46875 14.5 58.203125 9.4375 
Q 54.9375 4.390625 48.796875 1.578125 
Q 42.671875 -1.21875 35.015625 -1.21875 
Q 25.296875 -1.21875 18.71875 1.609375 
Q 12.15625 4.4375 8.421875 10.125 
Q 4.6875 15.828125 4.5 23 
z
" id="ArialMT-83"/>
      <path d="M 40.4375 6.390625 
Q 35.546875 2.25 31.03125 0.53125 
Q 26.515625 -1.171875 21.34375 -1.171875 
Q 12.796875 -1.171875 8.203125 3 
Q 3.609375 7.171875 3.609375 13.671875 
Q 3.609375 17.484375 5.34375 20.625 
Q 7.078125 23.78125 9.890625 25.6875 
Q 12.703125 27.59375 16.21875 28.5625 
Q 18.796875 29.25 24.03125 29.890625 
Q 34.671875 31.15625 39.703125 32.90625 
Q 39.75 34.71875 39.75 35.203125 
Q 39.75 40.578125 37.25 42.78125 
Q 33.890625 45.75 27.25 45.75 
Q 21.046875 45.75 18.09375 43.578125 
Q 15.140625 41.40625 13.71875 35.890625 
L 5.125 37.0625 
Q 6.296875 42.578125 8.984375 45.96875 
Q 11.671875 49.359375 16.75 51.1875 
Q 21.828125 53.03125 28.515625 53.03125 
Q 35.15625 53.03125 39.296875 51.46875 
Q 43.453125 49.90625 45.40625 47.53125 
Q 47.359375 45.171875 48.140625 41.546875 
Q 48.578125 39.3125 48.578125 33.453125 
L 48.578125 21.734375 
Q 48.578125 9.46875 49.140625 6.21875 
Q 49.703125 2.984375 51.375 0 
L 42.1875 0 
Q 40.828125 2.734375 40.4375 6.390625 
z
M 39.703125 26.03125 
Q 34.90625 24.078125 25.34375 22.703125 
Q 19.921875 21.921875 17.671875 20.9375 
Q 15.4375 19.96875 14.203125 18.09375 
Q 12.984375 16.21875 12.984375 13.921875 
Q 12.984375 10.40625 15.640625 8.0625 
Q 18.3125 5.71875 23.4375 5.71875 
Q 28.515625 5.71875 32.46875 7.9375 
Q 36.421875 10.15625 38.28125 14.015625 
Q 39.703125 17 39.703125 22.796875 
z
" id="ArialMT-97"/>
      <path d="M 9.328125 0 
L 9.328125 71.578125 
L 18.796875 71.578125 
L 18.796875 0 
z
" id="ArialMT-73"/>
      <path d="M 7.71875 0 
L 7.71875 71.578125 
L 32.375 71.578125 
Q 40.71875 71.578125 45.125 70.5625 
Q 51.265625 69.140625 55.609375 65.4375 
Q 61.28125 60.640625 64.078125 53.1875 
Q 66.890625 45.75 66.890625 36.1875 
Q 66.890625 28.03125 64.984375 21.734375 
Q 63.09375 15.4375 60.109375 11.296875 
Q 57.125 7.171875 53.578125 4.796875 
Q 50.046875 2.4375 45.046875 1.21875 
Q 40.046875 0 33.546875 0 
z
M 17.1875 8.453125 
L 32.46875 8.453125 
Q 39.546875 8.453125 43.578125 9.765625 
Q 47.609375 11.078125 50 13.484375 
Q 53.375 16.84375 55.25 22.53125 
Q 57.125 28.21875 57.125 36.328125 
Q 57.125 47.5625 53.4375 53.59375 
Q 49.75 59.625 44.484375 61.671875 
Q 40.671875 63.140625 32.234375 63.140625 
L 17.1875 63.140625 
z
" id="ArialMT-68"/>
      <path d="M 7.71875 0 
L 7.71875 71.578125 
L 34.71875 71.578125 
Q 41.84375 71.578125 45.609375 70.90625 
Q 50.875 70.015625 54.4375 67.546875 
Q 58.015625 65.09375 60.1875 60.640625 
Q 62.359375 56.203125 62.359375 50.875 
Q 62.359375 41.75 56.546875 35.421875 
Q 50.734375 29.109375 35.546875 29.109375 
L 17.1875 29.109375 
L 17.1875 0 
z
M 17.1875 37.546875 
L 35.6875 37.546875 
Q 44.875 37.546875 48.734375 40.96875 
Q 52.59375 44.390625 52.59375 50.59375 
Q 52.59375 55.078125 50.3125 58.265625 
Q 48.046875 61.46875 44.34375 62.5 
Q 41.9375 63.140625 35.5 63.140625 
L 17.1875 63.140625 
z
" id="ArialMT-80"/>
      <path d="M 7.625 0 
L 7.625 71.578125 
L 17.328125 71.578125 
L 54.9375 15.375 
L 54.9375 71.578125 
L 64.015625 71.578125 
L 64.015625 0 
L 54.296875 0 
L 16.703125 56.25 
L 16.703125 0 
z
" id="ArialMT-78"/>
      <path d="M 7.859375 0 
L 7.859375 71.578125 
L 39.59375 71.578125 
Q 49.171875 71.578125 54.140625 69.640625 
Q 59.125 67.71875 62.109375 62.828125 
Q 65.09375 57.953125 65.09375 52.046875 
Q 65.09375 44.4375 60.15625 39.203125 
Q 55.21875 33.984375 44.921875 32.5625 
Q 48.6875 30.765625 50.640625 29 
Q 54.78125 25.203125 58.5 19.484375 
L 70.953125 0 
L 59.03125 0 
L 49.5625 14.890625 
Q 45.40625 21.34375 42.71875 24.75 
Q 40.046875 28.171875 37.921875 29.53125 
Q 35.796875 30.90625 33.59375 31.453125 
Q 31.984375 31.78125 28.328125 31.78125 
L 17.328125 31.78125 
L 17.328125 0 
z
M 17.328125 39.984375 
L 37.703125 39.984375 
Q 44.1875 39.984375 47.84375 41.328125 
Q 51.515625 42.671875 53.421875 45.625 
Q 55.328125 48.578125 55.328125 52.046875 
Q 55.328125 57.125 51.640625 60.390625 
Q 47.953125 63.671875 39.984375 63.671875 
L 17.328125 63.671875 
z
" id="ArialMT-82"/>
      <path d="M 41.21875 28.078125 
L 41.21875 36.46875 
L 71.53125 36.53125 
L 71.53125 9.96875 
Q 64.546875 4.390625 57.125 1.578125 
Q 49.703125 -1.21875 41.890625 -1.21875 
Q 31.34375 -1.21875 22.71875 3.296875 
Q 14.109375 7.8125 9.71875 16.359375 
Q 5.328125 24.90625 5.328125 35.453125 
Q 5.328125 45.90625 9.6875 54.953125 
Q 14.0625 64.015625 22.265625 68.40625 
Q 30.46875 72.796875 41.15625 72.796875 
Q 48.921875 72.796875 55.1875 70.28125 
Q 61.46875 67.78125 65.03125 63.28125 
Q 68.609375 58.796875 70.453125 51.5625 
L 61.921875 49.21875 
Q 60.296875 54.6875 57.90625 57.8125 
Q 55.515625 60.9375 51.0625 62.8125 
Q 46.625 64.703125 41.21875 64.703125 
Q 34.71875 64.703125 29.984375 62.71875 
Q 25.25 60.75 22.34375 57.515625 
Q 19.4375 54.296875 17.828125 50.4375 
Q 15.09375 43.796875 15.09375 36.03125 
Q 15.09375 26.46875 18.390625 20.015625 
Q 21.6875 13.578125 27.984375 10.453125 
Q 34.28125 7.328125 41.359375 7.328125 
Q 47.515625 7.328125 53.375 9.6875 
Q 59.234375 12.0625 62.25 14.75 
L 62.25 28.078125 
z
" id="ArialMT-71"/>
      <path d="M 8.203125 0 
L 8.203125 71.578125 
L 56.5 71.578125 
L 56.5 63.140625 
L 17.671875 63.140625 
L 17.671875 40.96875 
L 51.265625 40.96875 
L 51.265625 32.515625 
L 17.671875 32.515625 
L 17.671875 0 
z
" id="ArialMT-70"/>
      <path d="M -0.140625 0 
L 27.34375 71.578125 
L 37.546875 71.578125 
L 66.84375 0 
L 56.0625 0 
L 47.703125 21.6875 
L 17.78125 21.6875 
L 9.90625 0 
z
M 20.515625 29.390625 
L 44.78125 29.390625 
L 37.3125 49.21875 
Q 33.890625 58.25 32.234375 64.0625 
Q 30.859375 57.171875 28.375 50.390625 
z
" id="ArialMT-65"/>
      <path id="ArialMT-32"/>
      <path d="M 18.3125 75.984375 
L 27.296875 75.984375 
L 18.703125 31.6875 
L 49.515625 54.6875 
L 61.1875 54.6875 
L 26.8125 28.515625 
L 51.90625 0 
L 41.015625 0 
L 17.671875 26.703125 
L 12.5 0 
L 3.515625 0 
z
" id="DejaVuSans-Oblique-107"/>
      <path d="M 53.609375 52.59375 
L 51.8125 43.703125 
Q 48.578125 46.046875 44.9375 47.21875 
Q 41.3125 48.390625 37.40625 48.390625 
Q 33.109375 48.390625 29.21875 46.875 
Q 25.34375 45.359375 22.703125 42.578125 
Q 18.5 38.328125 16.203125 32.609375 
Q 13.921875 26.90625 13.921875 20.796875 
Q 13.921875 13.421875 17.609375 9.8125 
Q 21.296875 6.203125 28.8125 6.203125 
Q 32.515625 6.203125 36.6875 7.328125 
Q 40.875 8.453125 45.40625 10.6875 
L 43.703125 1.8125 
Q 39.796875 0.203125 35.671875 -0.609375 
Q 31.546875 -1.421875 27.203125 -1.421875 
Q 16.3125 -1.421875 10.453125 4.015625 
Q 4.59375 9.46875 4.59375 19.578125 
Q 4.59375 28.078125 7.640625 35.234375 
Q 10.6875 42.390625 16.703125 48.09375 
Q 20.796875 52 26.3125 54 
Q 31.84375 56 38.375 56 
Q 42.1875 56 45.9375 55.140625 
Q 49.703125 54.296875 53.609375 52.59375 
z
" id="DejaVuSans-Oblique-99"/>
      <path d="M 53.71875 31.203125 
L 47.609375 0 
L 38.625 0 
L 40.28125 8.296875 
Q 36.328125 3.421875 31.265625 1 
Q 26.21875 -1.421875 20.015625 -1.421875 
Q 13.03125 -1.421875 8.5625 2.84375 
Q 4.109375 7.125 4.109375 13.8125 
Q 4.109375 23.390625 11.75 28.953125 
Q 19.390625 34.515625 32.8125 34.515625 
L 45.3125 34.515625 
L 45.796875 36.921875 
Q 45.90625 37.3125 45.953125 37.765625 
Q 46 38.234375 46 39.203125 
Q 46 43.5625 42.453125 45.96875 
Q 38.921875 48.390625 32.515625 48.390625 
Q 28.125 48.390625 23.5 47.265625 
Q 18.890625 46.140625 14.015625 43.890625 
L 15.578125 52.203125 
Q 20.65625 54.109375 25.515625 55.046875 
Q 30.375 56 34.90625 56 
Q 44.578125 56 49.625 51.796875 
Q 54.6875 47.609375 54.6875 39.59375 
Q 54.6875 37.984375 54.4375 35.8125 
Q 54.203125 33.640625 53.71875 31.203125 
z
M 44 27.484375 
L 35.015625 27.484375 
Q 23.96875 27.484375 18.671875 24.53125 
Q 13.375 21.578125 13.375 15.375 
Q 13.375 11.078125 16.078125 8.640625 
Q 18.796875 6.203125 23.578125 6.203125 
Q 30.90625 6.203125 36.375 11.453125 
Q 41.84375 16.703125 43.609375 25.484375 
z
" id="DejaVuSans-Oblique-97"/>
      <path d="M 42.28125 54.6875 
L 40.921875 47.703125 
L 23 47.703125 
L 17.1875 18.015625 
Q 16.890625 16.359375 16.75 15.234375 
Q 16.609375 14.109375 16.609375 13.484375 
Q 16.609375 10.359375 18.484375 8.9375 
Q 20.359375 7.515625 24.515625 7.515625 
L 33.59375 7.515625 
L 32.078125 0 
L 23.484375 0 
Q 15.484375 0 11.546875 3.125 
Q 7.625 6.25 7.625 12.59375 
Q 7.625 13.71875 7.765625 15.0625 
Q 7.90625 16.40625 8.203125 18.015625 
L 14.015625 47.703125 
L 6.390625 47.703125 
L 7.8125 54.6875 
L 15.28125 54.6875 
L 18.3125 70.21875 
L 27.296875 70.21875 
L 24.3125 54.6875 
z
" id="DejaVuSans-Oblique-116"/>
      <path d="M 25.390625 72.90625 
L 33.6875 72.90625 
L 8.296875 -9.28125 
L 0 -9.28125 
z
" id="DejaVuSans-47"/>
      <path d="M 16.890625 72.90625 
L 26.8125 72.90625 
L 20.796875 42.1875 
L 59.078125 72.90625 
L 72.21875 72.90625 
L 28.90625 38.09375 
L 60.59375 0 
L 48.578125 0 
L 19.484375 35.5 
L 12.59375 0 
L 2.6875 0 
z
" id="DejaVuSans-Oblique-75"/>
      <path d="M 16.890625 72.90625 
L 31.6875 72.90625 
L 40.1875 23.78125 
L 68.40625 72.90625 
L 83.59375 72.90625 
L 69.390625 0 
L 59.8125 0 
L 72.21875 63.921875 
L 43.609375 14.015625 
L 33.984375 14.015625 
L 24.703125 64.109375 
L 12.3125 0 
L 2.6875 0 
z
" id="DejaVuSans-Oblique-77"/>
      <path d="M 52.828125 42.09375 
L 5.5625 42.09375 
L 5.5625 50.296875 
L 52.828125 50.296875 
z
M 52.828125 20.359375 
L 5.5625 20.359375 
L 5.5625 28.5625 
L 52.828125 28.5625 
z
" id="ArialMT-61"/>
      <path d="M 5.46875 16.546875 
L 13.921875 17.328125 
Q 14.984375 11.375 18.015625 8.6875 
Q 21.046875 6 25.78125 6 
Q 29.828125 6 32.875 7.859375 
Q 35.9375 9.71875 37.890625 12.8125 
Q 39.84375 15.921875 41.15625 21.1875 
Q 42.484375 26.46875 42.484375 31.9375 
Q 42.484375 32.515625 42.4375 33.6875 
Q 39.796875 29.5 35.234375 26.875 
Q 30.671875 24.265625 25.34375 24.265625 
Q 16.453125 24.265625 10.296875 30.703125 
Q 4.15625 37.15625 4.15625 47.703125 
Q 4.15625 58.59375 10.578125 65.234375 
Q 17 71.875 26.65625 71.875 
Q 33.640625 71.875 39.421875 68.109375 
Q 45.21875 64.359375 48.21875 57.390625 
Q 51.21875 50.4375 51.21875 37.25 
Q 51.21875 23.53125 48.234375 15.40625 
Q 45.265625 7.28125 39.375 3.03125 
Q 33.5 -1.21875 25.59375 -1.21875 
Q 17.1875 -1.21875 11.859375 3.4375 
Q 6.546875 8.109375 5.46875 16.546875 
z
M 41.453125 48.140625 
Q 41.453125 55.71875 37.421875 60.15625 
Q 33.40625 64.59375 27.734375 64.59375 
Q 21.875 64.59375 17.53125 59.8125 
Q 13.1875 55.03125 13.1875 47.40625 
Q 13.1875 40.578125 17.3125 36.296875 
Q 21.4375 32.03125 27.484375 32.03125 
Q 33.59375 32.03125 37.515625 36.296875 
Q 41.453125 40.578125 41.453125 48.140625 
z
" id="ArialMT-57"/>
      <path d="M 4.734375 62.203125 
L 4.734375 70.65625 
L 51.078125 70.65625 
L 51.078125 63.8125 
Q 44.234375 56.546875 37.515625 44.484375 
Q 30.8125 32.421875 27.15625 19.671875 
Q 24.515625 10.6875 23.78125 0 
L 14.75 0 
Q 14.890625 8.453125 18.0625 20.40625 
Q 21.234375 32.375 27.171875 43.484375 
Q 33.109375 54.59375 39.796875 62.203125 
z
" id="ArialMT-55"/>
      <path d="M 46 62.703125 
L 46 43.796875 
L 73.1875 43.796875 
L 73.1875 35.5 
L 46 35.5 
L 46 16.609375 
L 37.796875 16.609375 
L 37.796875 35.5 
L 10.59375 35.5 
L 10.59375 43.796875 
L 37.796875 43.796875 
L 37.796875 62.703125 
z
M 10.59375 8.296875 
L 73.1875 8.296875 
L 73.1875 0 
L 10.59375 0 
z
" id="DejaVuSans-177"/>
      <path d="M 10.59375 35.5 
L 73.1875 35.5 
L 73.1875 27.203125 
L 10.59375 27.203125 
z
" id="DejaVuSans-8722"/>
      <path d="M 12.40625 8.296875 
L 28.515625 8.296875 
L 28.515625 63.921875 
L 10.984375 60.40625 
L 10.984375 69.390625 
L 28.421875 72.90625 
L 38.28125 72.90625 
L 38.28125 8.296875 
L 54.390625 8.296875 
L 54.390625 0 
L 12.40625 0 
z
" id="DejaVuSans-49"/>
      <path d="M 50 53.078125 
L 48.296875 44.578125 
Q 44.734375 46.53125 40.765625 47.5 
Q 36.8125 48.484375 32.625 48.484375 
Q 25.53125 48.484375 21.453125 46.0625 
Q 17.390625 43.65625 17.390625 39.5 
Q 17.390625 34.671875 26.859375 32.078125 
Q 27.59375 31.890625 27.9375 31.78125 
L 30.8125 30.90625 
Q 39.796875 28.421875 42.796875 25.6875 
Q 45.796875 22.953125 45.796875 18.21875 
Q 45.796875 9.515625 38.890625 4.046875 
Q 31.984375 -1.421875 20.796875 -1.421875 
Q 16.453125 -1.421875 11.671875 -0.578125 
Q 6.890625 0.25 1.125 2 
L 2.875 11.28125 
Q 7.8125 8.734375 12.59375 7.421875 
Q 17.390625 6.109375 21.78125 6.109375 
Q 28.375 6.109375 32.5 8.9375 
Q 36.625 11.765625 36.625 16.109375 
Q 36.625 20.796875 25.78125 23.6875 
L 24.859375 23.921875 
L 21.78125 24.703125 
Q 14.9375 26.515625 11.765625 29.46875 
Q 8.59375 32.421875 8.59375 37.015625 
Q 8.59375 45.75 15.15625 50.875 
Q 21.734375 56 33.015625 56 
Q 37.453125 56 41.671875 55.265625 
Q 45.90625 54.546875 50 53.078125 
z
" id="DejaVuSans-Oblique-115"/>
     </defs>
     <use transform="translate(0 0.684375)" xlink:href="#ArialMT-83"/>
     <use transform="translate(66.699219 0.684375)" xlink:href="#ArialMT-97"/>
     <use transform="translate(122.314453 0.684375)" xlink:href="#ArialMT-73"/>
     <use transform="translate(150.097656 0.684375)" xlink:href="#ArialMT-68"/>
     <use transform="translate(222.314453 0.684375)" xlink:href="#ArialMT-84"/>
     <use transform="translate(283.398438 0.684375)" xlink:href="#ArialMT-80"/>
     <use transform="translate(350.097656 0.684375)" xlink:href="#ArialMT-78"/>
     <use transform="translate(422.314453 0.684375)" xlink:href="#ArialMT-82"/>
     <use transform="translate(494.53125 0.684375)" xlink:href="#ArialMT-100"/>
     <use transform="translate(550.146484 0.684375)" xlink:href="#ArialMT-68"/>
     <use transform="translate(622.363281 0.684375)" xlink:href="#ArialMT-71"/>
     <use transform="translate(700.146484 0.684375)" xlink:href="#ArialMT-84"/>
     <use transform="translate(761.230469 0.684375)" xlink:href="#ArialMT-70"/>
     <use transform="translate(822.314453 0.684375)" xlink:href="#ArialMT-65"/>
     <use transform="translate(889.013672 0.684375)" xlink:href="#ArialMT-84"/>
     <use transform="translate(950.097656 0.684375)" xlink:href="#ArialMT-83"/>
     <use transform="translate(1016.796875 0.684375)" xlink:href="#ArialMT-82"/>
     <use transform="translate(1089.013672 0.684375)" xlink:href="#ArialMT-32"/>
     <use transform="translate(1116.796875 0.684375)" xlink:href="#DejaVuSans-Oblique-107"/>
     <use transform="translate(1174.707031 -15.721875)scale(0.7)" xlink:href="#DejaVuSans-Oblique-99"/>
     <use transform="translate(1213.193359 -15.721875)scale(0.7)" xlink:href="#DejaVuSans-Oblique-97"/>
     <use transform="translate(1256.088867 -15.721875)scale(0.7)" xlink:href="#DejaVuSans-Oblique-116"/>
     <use transform="translate(1286.269531 0.684375)" xlink:href="#DejaVuSans-47"/>
     <use transform="translate(1319.960938 0.684375)" xlink:href="#DejaVuSans-Oblique-75"/>
     <use transform="translate(1385.537109 -15.721875)scale(0.7)" xlink:href="#DejaVuSans-Oblique-77"/>
     <use transform="translate(1448.666992 0.684375)" xlink:href="#ArialMT-32"/>
     <use transform="translate(1476.450195 0.684375)" xlink:href="#ArialMT-61"/>
     <use transform="translate(1534.848633 0.684375)" xlink:href="#ArialMT-32"/>
     <use transform="translate(1562.631836 0.684375)" xlink:href="#ArialMT-49"/>
     <use transform="translate(1618.24707 0.684375)" xlink:href="#ArialMT-49"/>
     <use transform="translate(1673.862305 0.684375)" xlink:href="#ArialMT-57"/>
     <use transform="translate(1729.477539 0.684375)" xlink:href="#ArialMT-46"/>
     <use transform="translate(1757.260742 0.684375)" xlink:href="#ArialMT-55"/>
     <use transform="translate(1812.875977 0.684375)" xlink:href="#ArialMT-48"/>
     <use transform="translate(1868.491211 0.684375)" xlink:href="#ArialMT-53"/>
     <use transform="translate(1924.106445 0.684375)" xlink:href="#ArialMT-32"/>
     <use transform="translate(1951.889648 0.684375)" xlink:href="#DejaVuSans-177"/>
     <use transform="translate(2035.678711 0.684375)" xlink:href="#ArialMT-32"/>
     <use transform="translate(2063.461914 0.684375)" xlink:href="#ArialMT-55"/>
     <use transform="translate(2119.077148 0.684375)" xlink:href="#ArialMT-46"/>
     <use transform="translate(2146.860352 0.684375)" xlink:href="#ArialMT-52"/>
     <use transform="translate(2202.475586 0.684375)" xlink:href="#ArialMT-55"/>
     <use transform="translate(2258.09082 0.684375)" xlink:href="#ArialMT-54"/>
     <use transform="translate(2313.706055 0.684375)" xlink:href="#ArialMT-32"/>
     <use transform="translate(2341.489258 0.684375)" xlink:href="#DejaVuSans-Oblique-77"/>
     <use transform="translate(2434.785326 38.965625)scale(0.7)" xlink:href="#DejaVuSans-8722"/>
     <use transform="translate(2493.437669 38.965625)scale(0.7)" xlink:href="#DejaVuSans-49"/>
     <use transform="translate(2540.708177 0.684375)" xlink:href="#DejaVuSans-Oblique-115"/>
     <use transform="translate(2597.457682 38.965625)scale(0.7)" xlink:href="#DejaVuSans-8722"/>
     <use transform="translate(2656.110026 38.965625)scale(0.7)" xlink:href="#DejaVuSans-49"/>
    </g>
    <!--   $R^{2}=$0.970 Total reads: 2623 -->
    <g transform="translate(223.845937 50.265)scale(0.22 -0.22)">
     <defs>
      <path d="M 25.203125 64.796875 
L 20.21875 38.921875 
L 32.90625 38.921875 
Q 40.375 38.921875 44.984375 43.046875 
Q 49.609375 47.171875 49.609375 53.8125 
Q 49.609375 59.125 46.5 61.953125 
Q 43.40625 64.796875 37.59375 64.796875 
z
M 43.3125 35.015625 
Q 46.4375 34.28125 48.515625 31.390625 
Q 50.59375 28.515625 53.328125 19.921875 
L 59.515625 0 
L 49.125 0 
L 43.40625 18.703125 
Q 41.21875 25.921875 38.328125 28.359375 
Q 35.453125 30.8125 29.5 30.8125 
L 18.609375 30.8125 
L 12.59375 0 
L 2.6875 0 
L 16.890625 72.90625 
L 39.109375 72.90625 
Q 49.21875 72.90625 54.609375 68.328125 
Q 60.015625 63.765625 60.015625 55.171875 
Q 60.015625 47.5625 55.421875 41.984375 
Q 50.828125 36.421875 43.3125 35.015625 
z
" id="DejaVuSans-Oblique-82"/>
      <path d="M 19.1875 8.296875 
L 53.609375 8.296875 
L 53.609375 0 
L 7.328125 0 
L 7.328125 8.296875 
Q 12.9375 14.109375 22.625 23.890625 
Q 32.328125 33.6875 34.8125 36.53125 
Q 39.546875 41.84375 41.421875 45.53125 
Q 43.3125 49.21875 43.3125 52.78125 
Q 43.3125 58.59375 39.234375 62.25 
Q 35.15625 65.921875 28.609375 65.921875 
Q 23.96875 65.921875 18.8125 64.3125 
Q 13.671875 62.703125 7.8125 59.421875 
L 7.8125 69.390625 
Q 13.765625 71.78125 18.9375 73 
Q 24.125 74.21875 28.421875 74.21875 
Q 39.75 74.21875 46.484375 68.546875 
Q 53.21875 62.890625 53.21875 53.421875 
Q 53.21875 48.921875 51.53125 44.890625 
Q 49.859375 40.875 45.40625 35.40625 
Q 44.1875 33.984375 37.640625 27.21875 
Q 31.109375 20.453125 19.1875 8.296875 
z
" id="DejaVuSans-50"/>
      <path d="M 10.59375 45.40625 
L 73.1875 45.40625 
L 73.1875 37.203125 
L 10.59375 37.203125 
z
M 10.59375 25.484375 
L 73.1875 25.484375 
L 73.1875 17.1875 
L 10.59375 17.1875 
z
" id="DejaVuSans-61"/>
      <path d="M 3.328125 25.921875 
Q 3.328125 40.328125 11.328125 47.265625 
Q 18.015625 53.03125 27.640625 53.03125 
Q 38.328125 53.03125 45.109375 46.015625 
Q 51.90625 39.015625 51.90625 26.65625 
Q 51.90625 16.65625 48.90625 10.90625 
Q 45.90625 5.171875 40.15625 2 
Q 34.421875 -1.171875 27.640625 -1.171875 
Q 16.75 -1.171875 10.03125 5.8125 
Q 3.328125 12.796875 3.328125 25.921875 
z
M 12.359375 25.921875 
Q 12.359375 15.96875 16.703125 11.015625 
Q 21.046875 6.0625 27.640625 6.0625 
Q 34.1875 6.0625 38.53125 11.03125 
Q 42.875 16.015625 42.875 26.21875 
Q 42.875 35.84375 38.5 40.796875 
Q 34.125 45.75 27.640625 45.75 
Q 21.046875 45.75 16.703125 40.8125 
Q 12.359375 35.890625 12.359375 25.921875 
z
" id="ArialMT-111"/>
      <path d="M 25.78125 7.859375 
L 27.046875 0.09375 
Q 23.34375 -0.6875 20.40625 -0.6875 
Q 15.625 -0.6875 12.984375 0.828125 
Q 10.359375 2.34375 9.28125 4.8125 
Q 8.203125 7.28125 8.203125 15.1875 
L 8.203125 45.015625 
L 1.765625 45.015625 
L 1.765625 51.859375 
L 8.203125 51.859375 
L 8.203125 64.703125 
L 16.9375 69.96875 
L 16.9375 51.859375 
L 25.78125 51.859375 
L 25.78125 45.015625 
L 16.9375 45.015625 
L 16.9375 14.703125 
Q 16.9375 10.9375 17.40625 9.859375 
Q 17.875 8.796875 18.921875 8.15625 
Q 19.96875 7.515625 21.921875 7.515625 
Q 23.390625 7.515625 25.78125 7.859375 
z
" id="ArialMT-116"/>
      <path d="M 6.5 0 
L 6.5 51.859375 
L 14.40625 51.859375 
L 14.40625 44 
Q 17.4375 49.515625 20 51.265625 
Q 22.5625 53.03125 25.640625 53.03125 
Q 30.078125 53.03125 34.671875 50.203125 
L 31.640625 42.046875 
Q 28.421875 43.953125 25.203125 43.953125 
Q 22.3125 43.953125 20.015625 42.21875 
Q 17.71875 40.484375 16.75 37.40625 
Q 15.28125 32.71875 15.28125 27.15625 
L 15.28125 0 
z
" id="ArialMT-114"/>
      <path d="M 3.078125 15.484375 
L 11.765625 16.84375 
Q 12.5 11.625 15.84375 8.84375 
Q 19.1875 6.0625 25.203125 6.0625 
Q 31.25 6.0625 34.171875 8.515625 
Q 37.109375 10.984375 37.109375 14.3125 
Q 37.109375 17.28125 34.515625 19 
Q 32.71875 20.171875 25.53125 21.96875 
Q 15.875 24.421875 12.140625 26.203125 
Q 8.40625 27.984375 6.46875 31.125 
Q 4.546875 34.28125 4.546875 38.09375 
Q 4.546875 41.546875 6.125 44.5 
Q 7.71875 47.46875 10.453125 49.421875 
Q 12.5 50.921875 16.03125 51.96875 
Q 19.578125 53.03125 23.640625 53.03125 
Q 29.734375 53.03125 34.34375 51.265625 
Q 38.96875 49.515625 41.15625 46.5 
Q 43.359375 43.5 44.1875 38.484375 
L 35.59375 37.3125 
Q 35.015625 41.3125 32.203125 43.546875 
Q 29.390625 45.796875 24.265625 45.796875 
Q 18.21875 45.796875 15.625 43.796875 
Q 13.03125 41.796875 13.03125 39.109375 
Q 13.03125 37.40625 14.109375 36.03125 
Q 15.1875 34.625 17.484375 33.6875 
Q 18.796875 33.203125 25.25 31.453125 
Q 34.578125 28.953125 38.25 27.359375 
Q 41.9375 25.78125 44.03125 22.75 
Q 46.140625 19.734375 46.140625 15.234375 
Q 46.140625 10.84375 43.578125 6.953125 
Q 41.015625 3.078125 36.171875 0.953125 
Q 31.34375 -1.171875 25.25 -1.171875 
Q 15.140625 -1.171875 9.84375 3.03125 
Q 4.546875 7.234375 3.078125 15.484375 
z
" id="ArialMT-115"/>
      <path d="M 9.03125 41.84375 
L 9.03125 51.859375 
L 19.046875 51.859375 
L 19.046875 41.84375 
z
M 9.03125 0 
L 9.03125 10.015625 
L 19.046875 10.015625 
L 19.046875 0 
z
" id="ArialMT-58"/>
     </defs>
     <use transform="translate(0 0.765625)" xlink:href="#ArialMT-32"/>
     <use transform="translate(27.783203 0.765625)" xlink:href="#ArialMT-32"/>
     <use transform="translate(55.566406 0.765625)" xlink:href="#DejaVuSans-Oblique-82"/>
     <use transform="translate(132.065599 39.046875)scale(0.7)" xlink:href="#DejaVuSans-50"/>
     <use transform="translate(198.818529 0.765625)" xlink:href="#DejaVuSans-61"/>
     <use transform="translate(302.090013 0.765625)" xlink:href="#ArialMT-48"/>
     <use transform="translate(357.705247 0.765625)" xlink:href="#ArialMT-46"/>
     <use transform="translate(385.488451 0.765625)" xlink:href="#ArialMT-57"/>
     <use transform="translate(441.103685 0.765625)" xlink:href="#ArialMT-55"/>
     <use transform="translate(496.718919 0.765625)" xlink:href="#ArialMT-48"/>
     <use transform="translate(552.334154 0.765625)" xlink:href="#ArialMT-32"/>
     <use transform="translate(580.117357 0.765625)" xlink:href="#ArialMT-84"/>
     <use transform="translate(641.201341 0.765625)" xlink:href="#ArialMT-111"/>
     <use transform="translate(696.816576 0.765625)" xlink:href="#ArialMT-116"/>
     <use transform="translate(724.599779 0.765625)" xlink:href="#ArialMT-97"/>
     <use transform="translate(780.215013 0.765625)" xlink:href="#ArialMT-108"/>
     <use transform="translate(802.43181 0.765625)" xlink:href="#ArialMT-32"/>
     <use transform="translate(830.215013 0.765625)" xlink:href="#ArialMT-114"/>
     <use transform="translate(863.515794 0.765625)" xlink:href="#ArialMT-101"/>
     <use transform="translate(919.131029 0.765625)" xlink:href="#ArialMT-97"/>
     <use transform="translate(974.746263 0.765625)" xlink:href="#ArialMT-100"/>
     <use transform="translate(1030.361497 0.765625)" xlink:href="#ArialMT-115"/>
     <use transform="translate(1080.361497 0.765625)" xlink:href="#ArialMT-58"/>
     <use transform="translate(1108.144701 0.765625)" xlink:href="#ArialMT-32"/>
     <use transform="translate(1135.927904 0.765625)" xlink:href="#ArialMT-50"/>
     <use transform="translate(1191.543138 0.765625)" xlink:href="#ArialMT-54"/>
     <use transform="translate(1247.158372 0.765625)" xlink:href="#ArialMT-50"/>
     <use transform="translate(1302.773607 0.765625)" xlink:href="#ArialMT-51"/>
    </g>
   </g>
   <g id="legend_1">
    <g id="patch_7">
     <path d="M 596.984375 594.865 
L 659.285937 594.865 
Q 661.285937 594.865 661.285937 592.865 
L 661.285937 508.993125 
Q 661.285937 506.993125 659.285937 506.993125 
L 596.984375 506.993125 
Q 594.984375 506.993125 594.984375 508.993125 
L 594.984375 592.865 
Q 594.984375 594.865 596.984375 594.865 
z
" style="fill:#ffffff;opacity:0.8;stroke:#cccccc;stroke-linejoin:miter;"/>
    </g>
    <g id="line2d_25">
     <path d="M 598.984375 514.650938 
L 618.984375 514.650938 
" style="fill:none;stroke:#323232;stroke-linecap:square;stroke-opacity:0.5;stroke-width:6;"/>
    </g>
    <g id="line2d_26"/>
    <g id="text_16">
     <!-- fits -->
     <g transform="translate(626.984375 518.150938)scale(0.1 -0.1)">
      <defs>
       <path d="M 8.6875 0 
L 8.6875 45.015625 
L 0.921875 45.015625 
L 0.921875 51.859375 
L 8.6875 51.859375 
L 8.6875 57.375 
Q 8.6875 62.59375 9.625 65.140625 
Q 10.890625 68.5625 14.078125 70.671875 
Q 17.28125 72.796875 23.046875 72.796875 
Q 26.765625 72.796875 31.25 71.921875 
L 29.9375 64.265625 
Q 27.203125 64.75 24.75 64.75 
Q 20.75 64.75 19.09375 63.03125 
Q 17.4375 61.328125 17.4375 56.640625 
L 17.4375 51.859375 
L 27.546875 51.859375 
L 27.546875 45.015625 
L 17.4375 45.015625 
L 17.4375 0 
z
" id="ArialMT-102"/>
      </defs>
      <use xlink:href="#ArialMT-102"/>
      <use x="27.783203" xlink:href="#ArialMT-105"/>
      <use x="50" xlink:href="#ArialMT-116"/>
      <use x="77.783203" xlink:href="#ArialMT-115"/>
     </g>
    </g>
    <g id="line2d_27">
     <path d="M 598.984375 528.79625 
L 618.984375 528.79625 
" style="fill:none;stroke:#323232;stroke-linecap:square;stroke-opacity:0.5;stroke-width:6;"/>
    </g>
    <g id="line2d_28"/>
    <g id="text_17">
     <!-- fits -->
     <g transform="translate(626.984375 532.29625)scale(0.1 -0.1)">
      <use xlink:href="#ArialMT-102"/>
      <use x="27.783203" xlink:href="#ArialMT-105"/>
      <use x="50" xlink:href="#ArialMT-116"/>
      <use x="77.783203" xlink:href="#ArialMT-115"/>
     </g>
    </g>
    <g id="line2d_29">
     <path d="M 598.984375 542.941563 
L 618.984375 542.941563 
" style="fill:none;stroke:#323232;stroke-linecap:square;stroke-opacity:0.5;stroke-width:6;"/>
    </g>
    <g id="line2d_30"/>
    <g id="text_18">
     <!-- fits -->
     <g transform="translate(626.984375 546.441563)scale(0.1 -0.1)">
      <use xlink:href="#ArialMT-102"/>
      <use x="27.783203" xlink:href="#ArialMT-105"/>
      <use x="50" xlink:href="#ArialMT-116"/>
      <use x="77.783203" xlink:href="#ArialMT-115"/>
     </g>
    </g>
    <g id="PathCollection_4">
     <g>
      <use style="fill:#f58aa3;stroke:#f58aa3;" x="608.984375" xlink:href="#m5b29dede39" y="557.961875"/>
     </g>
    </g>
    <g id="text_19">
     <!-- c=0.08 -->
     <g transform="translate(626.984375 560.586875)scale(0.1 -0.1)">
      <defs>
       <path d="M 40.4375 19 
L 49.078125 17.875 
Q 47.65625 8.9375 41.8125 3.875 
Q 35.984375 -1.171875 27.484375 -1.171875 
Q 16.84375 -1.171875 10.375 5.78125 
Q 3.90625 12.75 3.90625 25.734375 
Q 3.90625 34.125 6.6875 40.421875 
Q 9.46875 46.734375 15.15625 49.875 
Q 20.84375 53.03125 27.546875 53.03125 
Q 35.984375 53.03125 41.359375 48.75 
Q 46.734375 44.484375 48.25 36.625 
L 39.703125 35.296875 
Q 38.484375 40.53125 35.375 43.15625 
Q 32.28125 45.796875 27.875 45.796875 
Q 21.234375 45.796875 17.078125 41.03125 
Q 12.9375 36.28125 12.9375 25.984375 
Q 12.9375 15.53125 16.9375 10.796875 
Q 20.953125 6.0625 27.390625 6.0625 
Q 32.5625 6.0625 36.03125 9.234375 
Q 39.5 12.40625 40.4375 19 
z
" id="ArialMT-99"/>
      </defs>
      <use xlink:href="#ArialMT-99"/>
      <use x="50" xlink:href="#ArialMT-61"/>
      <use x="108.398438" xlink:href="#ArialMT-48"/>
      <use x="164.013672" xlink:href="#ArialMT-46"/>
      <use x="191.796875" xlink:href="#ArialMT-48"/>
      <use x="247.412109" xlink:href="#ArialMT-56"/>
     </g>
    </g>
    <g id="PathCollection_5">
     <g>
      <use style="fill:#ef476f;stroke:#ef476f;" x="608.984375" xlink:href="#m868a50a0b1" y="572.107188"/>
     </g>
    </g>
    <g id="text_20">
     <!-- c=0.8 -->
     <g transform="translate(626.984375 574.732188)scale(0.1 -0.1)">
      <use xlink:href="#ArialMT-99"/>
      <use x="50" xlink:href="#ArialMT-61"/>
      <use x="108.398438" xlink:href="#ArialMT-48"/>
      <use x="164.013672" xlink:href="#ArialMT-46"/>
      <use x="191.796875" xlink:href="#ArialMT-56"/>
     </g>
    </g>
    <g id="PathCollection_6">
     <g>
      <use style="fill:#a40e32;stroke:#a40e32;" x="608.984375" xlink:href="#mea93a2c63d" y="586.2525"/>
     </g>
    </g>
    <g id="text_21">
     <!-- c=8 -->
     <g transform="translate(626.984375 588.8775)scale(0.1 -0.1)">
      <use xlink:href="#ArialMT-99"/>
      <use x="50" xlink:href="#ArialMT-61"/>
      <use x="108.398438" xlink:href="#ArialMT-56"/>
     </g>
    </g>
   </g>
  </g>
 </g>
 <defs>
  <clipPath id="pc712bf1dc7">
   <rect height="543.6" width="585.9" x="80.385938" y="56.265"/>
  </clipPath>
 </defs>
</svg>
