<?xml version="1.0" encoding="utf-8" standalone="no"?>
<!DOCTYPE svg PUBLIC "-//W3C//DTD SVG 1.1//EN"
  "http://www.w3.org/Graphics/SVG/1.1/DTD/svg11.dtd">
<!-- Created with matplotlib (https://matplotlib.org/) -->
<svg height="399.311563pt" version="1.1" viewBox="0 0 642.120312 399.311563" width="642.120312pt" xmlns="http://www.w3.org/2000/svg" xmlns:xlink="http://www.w3.org/1999/xlink">
 <metadata>
  <rdf:RDF xmlns:cc="http://creativecommons.org/ns#" xmlns:dc="http://purl.org/dc/elements/1.1/" xmlns:rdf="http://www.w3.org/1999/02/22-rdf-syntax-ns#">
   <cc:Work>
    <dc:type rdf:resource="http://purl.org/dc/dcmitype/StillImage"/>
    <dc:date>2025-05-04T05:22:01.994745</dc:date>
    <dc:format>image/svg+xml</dc:format>
    <dc:creator>
     <cc:Agent>
      <dc:title>Matplotlib v3.3.4, https://matplotlib.org/</dc:title>
     </cc:Agent>
    </dc:creator>
   </cc:Work>
  </rdf:RDF>
 </metadata>
 <defs>
  <style type="text/css">*{stroke-linecap:butt;stroke-linejoin:round;}</style>
 </defs>
 <g id="figure_1">
  <g id="patch_1">
   <path d="M 0 399.311563 
L 642.120312 399.311563 
L 642.120312 0 
L 0 0 
z
" style="fill:none;"/>
  </g>
  <g id="axes_1">
   <g id="patch_2">
    <path d="M 49.020313 353.675625 
L 634.920313 353.675625 
L 634.920313 27.515625 
L 49.020313 27.515625 
z
" style="fill:#ffffff;"/>
   </g>
   <g id="patch_3">
    <path clip-path="url(#p87854f8668)" d="M 75.652131 223.613226 
L 97.774408 223.613226 
L 97.774408 212.474021 
L 75.652131 212.474021 
z
" style="fill:#323232;"/>
   </g>
   <g id="patch_4">
    <path clip-path="url(#p87854f8668)" d="M 109.686403 223.613226 
L 131.80868 223.613226 
L 131.80868 225.33374 
L 109.686403 225.33374 
z
" style="fill:#323232;"/>
   </g>
   <g id="patch_5">
    <path clip-path="url(#p87854f8668)" d="M 143.720676 223.613226 
L 165.842953 223.613226 
L 165.842953 235.856917 
L 143.720676 235.856917 
z
" style="fill:#323232;"/>
   </g>
   <g id="patch_6">
    <path clip-path="url(#p87854f8668)" d="M 177.754948 223.613226 
L 199.877225 223.613226 
L 199.877225 212.543043 
L 177.754948 212.543043 
z
" style="fill:#323232;"/>
   </g>
   <g id="patch_7">
    <path clip-path="url(#p87854f8668)" d="M 211.78922 223.613226 
L 233.911498 223.613226 
L 233.911498 218.000405 
L 211.78922 218.000405 
z
" style="fill:#323232;"/>
   </g>
   <g id="patch_8">
    <path clip-path="url(#p87854f8668)" d="M 245.823493 223.613226 
L 267.94577 223.613226 
L 267.94577 217.850952 
L 245.823493 217.850952 
z
" style="fill:#323232;"/>
   </g>
   <g id="patch_9">
    <path clip-path="url(#p87854f8668)" d="M 279.857765 223.613226 
L 301.980042 223.613226 
L 301.980042 237.361591 
L 279.857765 237.361591 
z
" style="fill:#323232;"/>
   </g>
   <g id="patch_10">
    <path clip-path="url(#p87854f8668)" d="M 313.892038 223.613226 
L 336.014315 223.613226 
L 336.014315 247.95374 
L 313.892038 247.95374 
z
" style="fill:#323232;"/>
   </g>
   <g id="patch_11">
    <path clip-path="url(#p87854f8668)" d="M 347.92631 223.613226 
L 370.048587 223.613226 
L 370.048587 157.578024 
L 347.92631 157.578024 
z
" style="fill:#323232;"/>
   </g>
   <g id="patch_12">
    <path clip-path="url(#p87854f8668)" d="M 381.960583 223.613226 
L 404.08286 223.613226 
L 404.08286 260.443743 
L 381.960583 260.443743 
z
" style="fill:#323232;"/>
   </g>
   <g id="patch_13">
    <path clip-path="url(#p87854f8668)" d="M 415.994855 223.613226 
L 438.117132 223.613226 
L 438.117132 253.061687 
L 415.994855 253.061687 
z
" style="fill:#323232;"/>
   </g>
   <g id="patch_14">
    <path clip-path="url(#p87854f8668)" d="M 450.029127 223.613226 
L 472.151405 223.613226 
L 472.151405 257.734306 
L 450.029127 257.734306 
z
" style="fill:#323232;"/>
   </g>
   <g id="patch_15">
    <path clip-path="url(#p87854f8668)" d="M 484.0634 223.613226 
L 506.185677 223.613226 
L 506.185677 219.60201 
L 484.0634 219.60201 
z
" style="fill:#323232;"/>
   </g>
   <g id="patch_16">
    <path clip-path="url(#p87854f8668)" d="M 518.097672 223.613226 
L 540.219949 223.613226 
L 540.219949 220.276902 
L 518.097672 220.276902 
z
" style="fill:#323232;"/>
   </g>
   <g id="patch_17">
    <path clip-path="url(#p87854f8668)" d="M 552.131945 223.613226 
L 574.254222 223.613226 
L 574.254222 213.931551 
L 552.131945 213.931551 
z
" style="fill:#323232;"/>
   </g>
   <g id="patch_18">
    <path clip-path="url(#p87854f8668)" d="M 586.166217 223.613226 
L 608.288494 223.613226 
L 608.288494 218.721263 
L 586.166217 218.721263 
z
" style="fill:#323232;"/>
   </g>
   <g id="matplotlib.axis_1">
    <g id="xtick_1">
     <g id="line2d_1">
      <defs>
       <path d="M 0 0 
L 0 3.5 
" id="mb904217538" style="stroke:#000000;stroke-width:0.8;"/>
      </defs>
      <g>
       <use style="stroke:#000000;stroke-width:0.8;" x="86.713269" xlink:href="#mb904217538" y="353.675625"/>
      </g>
     </g>
     <g id="text_1">
      <!-- S1 -->
      <g transform="translate(77.539832 371.412344)scale(0.15 -0.15)">
       <defs>
        <path d="M 4.5 23 
L 13.421875 23.78125 
Q 14.0625 18.40625 16.375 14.96875 
Q 18.703125 11.53125 23.578125 9.40625 
Q 28.46875 7.28125 34.578125 7.28125 
Q 39.984375 7.28125 44.140625 8.890625 
Q 48.296875 10.5 50.3125 13.296875 
Q 52.34375 16.109375 52.34375 19.4375 
Q 52.34375 22.796875 50.390625 25.3125 
Q 48.4375 27.828125 43.953125 29.546875 
Q 41.0625 30.671875 31.203125 33.03125 
Q 21.34375 35.40625 17.390625 37.5 
Q 12.25 40.1875 9.734375 44.15625 
Q 7.234375 48.140625 7.234375 53.078125 
Q 7.234375 58.5 10.296875 63.203125 
Q 13.375 67.921875 19.28125 70.359375 
Q 25.203125 72.796875 32.421875 72.796875 
Q 40.375 72.796875 46.453125 70.234375 
Q 52.546875 67.671875 55.8125 62.6875 
Q 59.078125 57.71875 59.328125 51.421875 
L 50.25 50.734375 
Q 49.515625 57.515625 45.28125 60.984375 
Q 41.0625 64.453125 32.8125 64.453125 
Q 24.21875 64.453125 20.28125 61.296875 
Q 16.359375 58.15625 16.359375 53.71875 
Q 16.359375 49.859375 19.140625 47.359375 
Q 21.875 44.875 33.421875 42.265625 
Q 44.96875 39.65625 49.265625 37.703125 
Q 55.515625 34.8125 58.484375 30.390625 
Q 61.46875 25.984375 61.46875 20.21875 
Q 61.46875 14.5 58.203125 9.4375 
Q 54.9375 4.390625 48.796875 1.578125 
Q 42.671875 -1.21875 35.015625 -1.21875 
Q 25.296875 -1.21875 18.71875 1.609375 
Q 12.15625 4.4375 8.421875 10.125 
Q 4.6875 15.828125 4.5 23 
z
" id="ArialMT-83"/>
        <path d="M 37.25 0 
L 28.46875 0 
L 28.46875 56 
Q 25.296875 52.984375 20.140625 49.953125 
Q 14.984375 46.921875 10.890625 45.40625 
L 10.890625 53.90625 
Q 18.265625 57.375 23.78125 62.296875 
Q 29.296875 67.234375 31.59375 71.875 
L 37.25 71.875 
z
" id="ArialMT-49"/>
       </defs>
       <use xlink:href="#ArialMT-83"/>
       <use x="66.699219" xlink:href="#ArialMT-49"/>
      </g>
     </g>
    </g>
    <g id="xtick_2">
     <g id="line2d_2">
      <g>
       <use style="stroke:#000000;stroke-width:0.8;" x="120.747542" xlink:href="#mb904217538" y="353.675625"/>
      </g>
     </g>
     <g id="text_2">
      <!-- a2 -->
      <g transform="translate(112.406135 371.412344)scale(0.15 -0.15)">
       <defs>
        <path d="M 40.4375 6.390625 
Q 35.546875 2.25 31.03125 0.53125 
Q 26.515625 -1.171875 21.34375 -1.171875 
Q 12.796875 -1.171875 8.203125 3 
Q 3.609375 7.171875 3.609375 13.671875 
Q 3.609375 17.484375 5.34375 20.625 
Q 7.078125 23.78125 9.890625 25.6875 
Q 12.703125 27.59375 16.21875 28.5625 
Q 18.796875 29.25 24.03125 29.890625 
Q 34.671875 31.15625 39.703125 32.90625 
Q 39.75 34.71875 39.75 35.203125 
Q 39.75 40.578125 37.25 42.78125 
Q 33.890625 45.75 27.25 45.75 
Q 21.046875 45.75 18.09375 43.578125 
Q 15.140625 41.40625 13.71875 35.890625 
L 5.125 37.0625 
Q 6.296875 42.578125 8.984375 45.96875 
Q 11.671875 49.359375 16.75 51.1875 
Q 21.828125 53.03125 28.515625 53.03125 
Q 35.15625 53.03125 39.296875 51.46875 
Q 43.453125 49.90625 45.40625 47.53125 
Q 47.359375 45.171875 48.140625 41.546875 
Q 48.578125 39.3125 48.578125 33.453125 
L 48.578125 21.734375 
Q 48.578125 9.46875 49.140625 6.21875 
Q 49.703125 2.984375 51.375 0 
L 42.1875 0 
Q 40.828125 2.734375 40.4375 6.390625 
z
M 39.703125 26.03125 
Q 34.90625 24.078125 25.34375 22.703125 
Q 19.921875 21.921875 17.671875 20.9375 
Q 15.4375 19.96875 14.203125 18.09375 
Q 12.984375 16.21875 12.984375 13.921875 
Q 12.984375 10.40625 15.640625 8.0625 
Q 18.3125 5.71875 23.4375 5.71875 
Q 28.515625 5.71875 32.46875 7.9375 
Q 36.421875 10.15625 38.28125 14.015625 
Q 39.703125 17 39.703125 22.796875 
z
" id="ArialMT-97"/>
        <path d="M 50.34375 8.453125 
L 50.34375 0 
L 3.03125 0 
Q 2.9375 3.171875 4.046875 6.109375 
Q 5.859375 10.9375 9.828125 15.625 
Q 13.8125 20.3125 21.34375 26.46875 
Q 33.015625 36.03125 37.109375 41.625 
Q 41.21875 47.21875 41.21875 52.203125 
Q 41.21875 57.421875 37.46875 61 
Q 33.734375 64.59375 27.734375 64.59375 
Q 21.390625 64.59375 17.578125 60.78125 
Q 13.765625 56.984375 13.71875 50.25 
L 4.6875 51.171875 
Q 5.609375 61.28125 11.65625 66.578125 
Q 17.71875 71.875 27.9375 71.875 
Q 38.234375 71.875 44.234375 66.15625 
Q 50.25 60.453125 50.25 52 
Q 50.25 47.703125 48.484375 43.546875 
Q 46.734375 39.40625 42.65625 34.8125 
Q 38.578125 30.21875 29.109375 22.21875 
Q 21.1875 15.578125 18.9375 13.203125 
Q 16.703125 10.84375 15.234375 8.453125 
z
" id="ArialMT-50"/>
       </defs>
       <use xlink:href="#ArialMT-97"/>
       <use x="55.615234" xlink:href="#ArialMT-50"/>
      </g>
     </g>
    </g>
    <g id="xtick_3">
     <g id="line2d_3">
      <g>
       <use style="stroke:#000000;stroke-width:0.8;" x="154.781814" xlink:href="#mb904217538" y="353.675625"/>
      </g>
     </g>
     <g id="text_3">
      <!-- I3 -->
      <g transform="translate(148.527517 371.412344)scale(0.15 -0.15)">
       <defs>
        <path d="M 9.328125 0 
L 9.328125 71.578125 
L 18.796875 71.578125 
L 18.796875 0 
z
" id="ArialMT-73"/>
        <path d="M 4.203125 18.890625 
L 12.984375 20.0625 
Q 14.5 12.59375 18.140625 9.296875 
Q 21.78125 6 27 6 
Q 33.203125 6 37.46875 10.296875 
Q 41.75 14.59375 41.75 20.953125 
Q 41.75 27 37.796875 30.921875 
Q 33.84375 34.859375 27.734375 34.859375 
Q 25.25 34.859375 21.53125 33.890625 
L 22.515625 41.609375 
Q 23.390625 41.5 23.921875 41.5 
Q 29.546875 41.5 34.03125 44.421875 
Q 38.53125 47.359375 38.53125 53.46875 
Q 38.53125 58.296875 35.25 61.46875 
Q 31.984375 64.65625 26.8125 64.65625 
Q 21.6875 64.65625 18.265625 61.421875 
Q 14.84375 58.203125 13.875 51.765625 
L 5.078125 53.328125 
Q 6.6875 62.15625 12.390625 67.015625 
Q 18.109375 71.875 26.609375 71.875 
Q 32.46875 71.875 37.390625 69.359375 
Q 42.328125 66.84375 44.9375 62.5 
Q 47.5625 58.15625 47.5625 53.265625 
Q 47.5625 48.640625 45.0625 44.828125 
Q 42.578125 41.015625 37.703125 38.765625 
Q 44.046875 37.3125 47.5625 32.6875 
Q 51.078125 28.078125 51.078125 21.140625 
Q 51.078125 11.765625 44.234375 5.25 
Q 37.40625 -1.265625 26.953125 -1.265625 
Q 17.53125 -1.265625 11.296875 4.34375 
Q 5.078125 9.96875 4.203125 18.890625 
z
" id="ArialMT-51"/>
       </defs>
       <use xlink:href="#ArialMT-73"/>
       <use x="27.783203" xlink:href="#ArialMT-51"/>
      </g>
     </g>
    </g>
    <g id="xtick_4">
     <g id="line2d_4">
      <g>
       <use style="stroke:#000000;stroke-width:0.8;" x="188.816087" xlink:href="#mb904217538" y="353.675625"/>
      </g>
     </g>
     <g id="text_4">
      <!-- D4 -->
      <g transform="translate(179.228977 371.412344)scale(0.15 -0.15)">
       <defs>
        <path d="M 7.71875 0 
L 7.71875 71.578125 
L 32.375 71.578125 
Q 40.71875 71.578125 45.125 70.5625 
Q 51.265625 69.140625 55.609375 65.4375 
Q 61.28125 60.640625 64.078125 53.1875 
Q 66.890625 45.75 66.890625 36.1875 
Q 66.890625 28.03125 64.984375 21.734375 
Q 63.09375 15.4375 60.109375 11.296875 
Q 57.125 7.171875 53.578125 4.796875 
Q 50.046875 2.4375 45.046875 1.21875 
Q 40.046875 0 33.546875 0 
z
M 17.1875 8.453125 
L 32.46875 8.453125 
Q 39.546875 8.453125 43.578125 9.765625 
Q 47.609375 11.078125 50 13.484375 
Q 53.375 16.84375 55.25 22.53125 
Q 57.125 28.21875 57.125 36.328125 
Q 57.125 47.5625 53.4375 53.59375 
Q 49.75 59.625 44.484375 61.671875 
Q 40.671875 63.140625 32.234375 63.140625 
L 17.1875 63.140625 
z
" id="ArialMT-68"/>
        <path d="M 32.328125 0 
L 32.328125 17.140625 
L 1.265625 17.140625 
L 1.265625 25.203125 
L 33.9375 71.578125 
L 41.109375 71.578125 
L 41.109375 25.203125 
L 50.78125 25.203125 
L 50.78125 17.140625 
L 41.109375 17.140625 
L 41.109375 0 
z
M 32.328125 25.203125 
L 32.328125 57.46875 
L 9.90625 25.203125 
z
" id="ArialMT-52"/>
       </defs>
       <use xlink:href="#ArialMT-68"/>
       <use x="72.216797" xlink:href="#ArialMT-52"/>
      </g>
     </g>
    </g>
    <g id="xtick_5">
     <g id="line2d_5">
      <g>
       <use style="stroke:#000000;stroke-width:0.8;" x="222.850359" xlink:href="#mb904217538" y="353.675625"/>
      </g>
     </g>
     <g id="text_5">
      <!-- T5 -->
      <g transform="translate(214.098796 371.412344)scale(0.15 -0.15)">
       <defs>
        <path d="M 25.921875 0 
L 25.921875 63.140625 
L 2.34375 63.140625 
L 2.34375 71.578125 
L 59.078125 71.578125 
L 59.078125 63.140625 
L 35.40625 63.140625 
L 35.40625 0 
z
" id="ArialMT-84"/>
        <path d="M 4.15625 18.75 
L 13.375 19.53125 
Q 14.40625 12.796875 18.140625 9.390625 
Q 21.875 6 27.15625 6 
Q 33.5 6 37.890625 10.78125 
Q 42.28125 15.578125 42.28125 23.484375 
Q 42.28125 31 38.0625 35.34375 
Q 33.84375 39.703125 27 39.703125 
Q 22.75 39.703125 19.328125 37.765625 
Q 15.921875 35.84375 13.96875 32.765625 
L 5.71875 33.84375 
L 12.640625 70.609375 
L 48.25 70.609375 
L 48.25 62.203125 
L 19.671875 62.203125 
L 15.828125 42.96875 
Q 22.265625 47.46875 29.34375 47.46875 
Q 38.71875 47.46875 45.15625 40.96875 
Q 51.609375 34.46875 51.609375 24.265625 
Q 51.609375 14.546875 45.953125 7.46875 
Q 39.0625 -1.21875 27.15625 -1.21875 
Q 17.390625 -1.21875 11.203125 4.25 
Q 5.03125 9.71875 4.15625 18.75 
z
" id="ArialMT-53"/>
       </defs>
       <use xlink:href="#ArialMT-84"/>
       <use x="61.083984" xlink:href="#ArialMT-53"/>
      </g>
     </g>
    </g>
    <g id="xtick_6">
     <g id="line2d_6">
      <g>
       <use style="stroke:#000000;stroke-width:0.8;" x="256.884631" xlink:href="#mb904217538" y="353.675625"/>
      </g>
     </g>
     <g id="text_6">
      <!-- P6 -->
      <g transform="translate(247.711194 371.412344)scale(0.15 -0.15)">
       <defs>
        <path d="M 7.71875 0 
L 7.71875 71.578125 
L 34.71875 71.578125 
Q 41.84375 71.578125 45.609375 70.90625 
Q 50.875 70.015625 54.4375 67.546875 
Q 58.015625 65.09375 60.1875 60.640625 
Q 62.359375 56.203125 62.359375 50.875 
Q 62.359375 41.75 56.546875 35.421875 
Q 50.734375 29.109375 35.546875 29.109375 
L 17.1875 29.109375 
L 17.1875 0 
z
M 17.1875 37.546875 
L 35.6875 37.546875 
Q 44.875 37.546875 48.734375 40.96875 
Q 52.59375 44.390625 52.59375 50.59375 
Q 52.59375 55.078125 50.3125 58.265625 
Q 48.046875 61.46875 44.34375 62.5 
Q 41.9375 63.140625 35.5 63.140625 
L 17.1875 63.140625 
z
" id="ArialMT-80"/>
        <path d="M 49.75 54.046875 
L 41.015625 53.375 
Q 39.84375 58.546875 37.703125 60.890625 
Q 34.125 64.65625 28.90625 64.65625 
Q 24.703125 64.65625 21.53125 62.3125 
Q 17.390625 59.28125 14.984375 53.46875 
Q 12.59375 47.65625 12.5 36.921875 
Q 15.671875 41.75 20.265625 44.09375 
Q 24.859375 46.4375 29.890625 46.4375 
Q 38.671875 46.4375 44.84375 39.96875 
Q 51.03125 33.5 51.03125 23.25 
Q 51.03125 16.5 48.125 10.71875 
Q 45.21875 4.9375 40.140625 1.859375 
Q 35.0625 -1.21875 28.609375 -1.21875 
Q 17.625 -1.21875 10.6875 6.859375 
Q 3.765625 14.9375 3.765625 33.5 
Q 3.765625 54.25 11.421875 63.671875 
Q 18.109375 71.875 29.4375 71.875 
Q 37.890625 71.875 43.28125 67.140625 
Q 48.6875 62.40625 49.75 54.046875 
z
M 13.875 23.1875 
Q 13.875 18.65625 15.796875 14.5 
Q 17.71875 10.359375 21.1875 8.171875 
Q 24.65625 6 28.46875 6 
Q 34.03125 6 38.03125 10.484375 
Q 42.046875 14.984375 42.046875 22.703125 
Q 42.046875 30.125 38.078125 34.390625 
Q 34.125 38.671875 28.125 38.671875 
Q 22.171875 38.671875 18.015625 34.390625 
Q 13.875 30.125 13.875 23.1875 
z
" id="ArialMT-54"/>
       </defs>
       <use xlink:href="#ArialMT-80"/>
       <use x="66.699219" xlink:href="#ArialMT-54"/>
      </g>
     </g>
    </g>
    <g id="xtick_7">
     <g id="line2d_7">
      <g>
       <use style="stroke:#000000;stroke-width:0.8;" x="290.918904" xlink:href="#mb904217538" y="353.675625"/>
      </g>
     </g>
     <g id="text_7">
      <!-- N7 -->
      <g transform="translate(281.331794 371.412344)scale(0.15 -0.15)">
       <defs>
        <path d="M 7.625 0 
L 7.625 71.578125 
L 17.328125 71.578125 
L 54.9375 15.375 
L 54.9375 71.578125 
L 64.015625 71.578125 
L 64.015625 0 
L 54.296875 0 
L 16.703125 56.25 
L 16.703125 0 
z
" id="ArialMT-78"/>
        <path d="M 4.734375 62.203125 
L 4.734375 70.65625 
L 51.078125 70.65625 
L 51.078125 63.8125 
Q 44.234375 56.546875 37.515625 44.484375 
Q 30.8125 32.421875 27.15625 19.671875 
Q 24.515625 10.6875 23.78125 0 
L 14.75 0 
Q 14.890625 8.453125 18.0625 20.40625 
Q 21.234375 32.375 27.171875 43.484375 
Q 33.109375 54.59375 39.796875 62.203125 
z
" id="ArialMT-55"/>
       </defs>
       <use xlink:href="#ArialMT-78"/>
       <use x="72.216797" xlink:href="#ArialMT-55"/>
      </g>
     </g>
    </g>
    <g id="xtick_8">
     <g id="line2d_8">
      <g>
       <use style="stroke:#000000;stroke-width:0.8;" x="324.953176" xlink:href="#mb904217538" y="353.675625"/>
      </g>
     </g>
     <g id="text_8">
      <!-- R8 -->
      <g transform="translate(315.366067 371.412344)scale(0.15 -0.15)">
       <defs>
        <path d="M 7.859375 0 
L 7.859375 71.578125 
L 39.59375 71.578125 
Q 49.171875 71.578125 54.140625 69.640625 
Q 59.125 67.71875 62.109375 62.828125 
Q 65.09375 57.953125 65.09375 52.046875 
Q 65.09375 44.4375 60.15625 39.203125 
Q 55.21875 33.984375 44.921875 32.5625 
Q 48.6875 30.765625 50.640625 29 
Q 54.78125 25.203125 58.5 19.484375 
L 70.953125 0 
L 59.03125 0 
L 49.5625 14.890625 
Q 45.40625 21.34375 42.71875 24.75 
Q 40.046875 28.171875 37.921875 29.53125 
Q 35.796875 30.90625 33.59375 31.453125 
Q 31.984375 31.78125 28.328125 31.78125 
L 17.328125 31.78125 
L 17.328125 0 
z
M 17.328125 39.984375 
L 37.703125 39.984375 
Q 44.1875 39.984375 47.84375 41.328125 
Q 51.515625 42.671875 53.421875 45.625 
Q 55.328125 48.578125 55.328125 52.046875 
Q 55.328125 57.125 51.640625 60.390625 
Q 47.953125 63.671875 39.984375 63.671875 
L 17.328125 63.671875 
z
" id="ArialMT-82"/>
        <path d="M 17.671875 38.8125 
Q 12.203125 40.828125 9.5625 44.53125 
Q 6.9375 48.25 6.9375 53.421875 
Q 6.9375 61.234375 12.546875 66.546875 
Q 18.171875 71.875 27.484375 71.875 
Q 36.859375 71.875 42.578125 66.421875 
Q 48.296875 60.984375 48.296875 53.171875 
Q 48.296875 48.1875 45.671875 44.5 
Q 43.0625 40.828125 37.75 38.8125 
Q 44.34375 36.671875 47.78125 31.875 
Q 51.21875 27.09375 51.21875 20.453125 
Q 51.21875 11.28125 44.71875 5.03125 
Q 38.234375 -1.21875 27.640625 -1.21875 
Q 17.046875 -1.21875 10.546875 5.046875 
Q 4.046875 11.328125 4.046875 20.703125 
Q 4.046875 27.6875 7.59375 32.390625 
Q 11.140625 37.109375 17.671875 38.8125 
z
M 15.921875 53.71875 
Q 15.921875 48.640625 19.1875 45.40625 
Q 22.46875 42.1875 27.6875 42.1875 
Q 32.765625 42.1875 36.015625 45.375 
Q 39.265625 48.578125 39.265625 53.21875 
Q 39.265625 58.0625 35.90625 61.359375 
Q 32.5625 64.65625 27.59375 64.65625 
Q 22.5625 64.65625 19.234375 61.421875 
Q 15.921875 58.203125 15.921875 53.71875 
z
M 13.09375 20.65625 
Q 13.09375 16.890625 14.875 13.375 
Q 16.65625 9.859375 20.171875 7.921875 
Q 23.6875 6 27.734375 6 
Q 34.03125 6 38.125 10.046875 
Q 42.234375 14.109375 42.234375 20.359375 
Q 42.234375 26.703125 38.015625 30.859375 
Q 33.796875 35.015625 27.4375 35.015625 
Q 21.234375 35.015625 17.15625 30.90625 
Q 13.09375 26.8125 13.09375 20.65625 
z
" id="ArialMT-56"/>
       </defs>
       <use xlink:href="#ArialMT-82"/>
       <use x="72.216797" xlink:href="#ArialMT-56"/>
      </g>
     </g>
    </g>
    <g id="xtick_9">
     <g id="line2d_9">
      <g>
       <use style="stroke:#000000;stroke-width:0.8;" x="358.987449" xlink:href="#mb904217538" y="353.675625"/>
      </g>
     </g>
     <g id="text_9">
      <!-- D10 -->
      <g transform="translate(345.229636 371.412344)scale(0.15 -0.15)">
       <defs>
        <path d="M 4.15625 35.296875 
Q 4.15625 48 6.765625 55.734375 
Q 9.375 63.484375 14.515625 67.671875 
Q 19.671875 71.875 27.484375 71.875 
Q 33.25 71.875 37.59375 69.546875 
Q 41.9375 67.234375 44.765625 62.859375 
Q 47.609375 58.5 49.21875 52.21875 
Q 50.828125 45.953125 50.828125 35.296875 
Q 50.828125 22.703125 48.234375 14.96875 
Q 45.65625 7.234375 40.5 3 
Q 35.359375 -1.21875 27.484375 -1.21875 
Q 17.140625 -1.21875 11.234375 6.203125 
Q 4.15625 15.140625 4.15625 35.296875 
z
M 13.1875 35.296875 
Q 13.1875 17.671875 17.3125 11.828125 
Q 21.4375 6 27.484375 6 
Q 33.546875 6 37.671875 11.859375 
Q 41.796875 17.71875 41.796875 35.296875 
Q 41.796875 52.984375 37.671875 58.78125 
Q 33.546875 64.59375 27.390625 64.59375 
Q 21.34375 64.59375 17.71875 59.46875 
Q 13.1875 52.9375 13.1875 35.296875 
z
" id="ArialMT-48"/>
       </defs>
       <use xlink:href="#ArialMT-68"/>
       <use x="72.216797" xlink:href="#ArialMT-49"/>
       <use x="127.832031" xlink:href="#ArialMT-48"/>
      </g>
     </g>
    </g>
    <g id="xtick_10">
     <g id="line2d_10">
      <g>
       <use style="stroke:#000000;stroke-width:0.8;" x="393.021721" xlink:href="#mb904217538" y="353.675625"/>
      </g>
     </g>
     <g id="text_10">
      <!-- G11 -->
      <g transform="translate(379.399846 371.412344)scale(0.15 -0.15)">
       <defs>
        <path d="M 41.21875 28.078125 
L 41.21875 36.46875 
L 71.53125 36.53125 
L 71.53125 9.96875 
Q 64.546875 4.390625 57.125 1.578125 
Q 49.703125 -1.21875 41.890625 -1.21875 
Q 31.34375 -1.21875 22.71875 3.296875 
Q 14.109375 7.8125 9.71875 16.359375 
Q 5.328125 24.90625 5.328125 35.453125 
Q 5.328125 45.90625 9.6875 54.953125 
Q 14.0625 64.015625 22.265625 68.40625 
Q 30.46875 72.796875 41.15625 72.796875 
Q 48.921875 72.796875 55.1875 70.28125 
Q 61.46875 67.78125 65.03125 63.28125 
Q 68.609375 58.796875 70.453125 51.5625 
L 61.921875 49.21875 
Q 60.296875 54.6875 57.90625 57.8125 
Q 55.515625 60.9375 51.0625 62.8125 
Q 46.625 64.703125 41.21875 64.703125 
Q 34.71875 64.703125 29.984375 62.71875 
Q 25.25 60.75 22.34375 57.515625 
Q 19.4375 54.296875 17.828125 50.4375 
Q 15.09375 43.796875 15.09375 36.03125 
Q 15.09375 26.46875 18.390625 20.015625 
Q 21.6875 13.578125 27.984375 10.453125 
Q 34.28125 7.328125 41.359375 7.328125 
Q 47.515625 7.328125 53.375 9.6875 
Q 59.234375 12.0625 62.25 14.75 
L 62.25 28.078125 
z
" id="ArialMT-71"/>
       </defs>
       <use xlink:href="#ArialMT-71"/>
       <use x="77.783203" xlink:href="#ArialMT-49"/>
       <use x="126.023438" xlink:href="#ArialMT-49"/>
      </g>
     </g>
    </g>
    <g id="xtick_11">
     <g id="line2d_11">
      <g>
       <use style="stroke:#000000;stroke-width:0.8;" x="427.055994" xlink:href="#mb904217538" y="353.675625"/>
      </g>
     </g>
     <g id="text_11">
      <!-- T12 -->
      <g transform="translate(414.133728 371.412344)scale(0.15 -0.15)">
       <use xlink:href="#ArialMT-84"/>
       <use x="61.083984" xlink:href="#ArialMT-49"/>
       <use x="116.699219" xlink:href="#ArialMT-50"/>
      </g>
     </g>
    </g>
    <g id="xtick_12">
     <g id="line2d_12">
      <g>
       <use style="stroke:#000000;stroke-width:0.8;" x="461.090266" xlink:href="#mb904217538" y="353.675625"/>
      </g>
     </g>
     <g id="text_12">
      <!-- F13 -->
      <g transform="translate(448.168 371.412344)scale(0.15 -0.15)">
       <defs>
        <path d="M 8.203125 0 
L 8.203125 71.578125 
L 56.5 71.578125 
L 56.5 63.140625 
L 17.671875 63.140625 
L 17.671875 40.96875 
L 51.265625 40.96875 
L 51.265625 32.515625 
L 17.671875 32.515625 
L 17.671875 0 
z
" id="ArialMT-70"/>
       </defs>
       <use xlink:href="#ArialMT-70"/>
       <use x="61.083984" xlink:href="#ArialMT-49"/>
       <use x="116.699219" xlink:href="#ArialMT-51"/>
      </g>
     </g>
    </g>
    <g id="xtick_13">
     <g id="line2d_13">
      <g>
       <use style="stroke:#000000;stroke-width:0.8;" x="495.124538" xlink:href="#mb904217538" y="353.675625"/>
      </g>
     </g>
     <g id="text_13">
      <!-- A14 -->
      <g transform="translate(481.780398 371.412344)scale(0.15 -0.15)">
       <defs>
        <path d="M -0.140625 0 
L 27.34375 71.578125 
L 37.546875 71.578125 
L 66.84375 0 
L 56.0625 0 
L 47.703125 21.6875 
L 17.78125 21.6875 
L 9.90625 0 
z
M 20.515625 29.390625 
L 44.78125 29.390625 
L 37.3125 49.21875 
Q 33.890625 58.25 32.234375 64.0625 
Q 30.859375 57.171875 28.375 50.390625 
z
" id="ArialMT-65"/>
       </defs>
       <use xlink:href="#ArialMT-65"/>
       <use x="66.699219" xlink:href="#ArialMT-49"/>
       <use x="122.314453" xlink:href="#ArialMT-52"/>
      </g>
     </g>
    </g>
    <g id="xtick_14">
     <g id="line2d_14">
      <g>
       <use style="stroke:#000000;stroke-width:0.8;" x="529.158811" xlink:href="#mb904217538" y="353.675625"/>
      </g>
     </g>
     <g id="text_14">
      <!-- T15 -->
      <g transform="translate(516.236545 371.412344)scale(0.15 -0.15)">
       <use xlink:href="#ArialMT-84"/>
       <use x="61.083984" xlink:href="#ArialMT-49"/>
       <use x="116.699219" xlink:href="#ArialMT-53"/>
      </g>
     </g>
    </g>
    <g id="xtick_15">
     <g id="line2d_15">
      <g>
       <use style="stroke:#000000;stroke-width:0.8;" x="563.193083" xlink:href="#mb904217538" y="353.675625"/>
      </g>
     </g>
     <g id="text_15">
      <!-- S16 -->
      <g transform="translate(549.848943 371.412344)scale(0.15 -0.15)">
       <use xlink:href="#ArialMT-83"/>
       <use x="66.699219" xlink:href="#ArialMT-49"/>
       <use x="122.314453" xlink:href="#ArialMT-54"/>
      </g>
     </g>
    </g>
    <g id="xtick_16">
     <g id="line2d_16">
      <g>
       <use style="stroke:#000000;stroke-width:0.8;" x="597.227356" xlink:href="#mb904217538" y="353.675625"/>
      </g>
     </g>
     <g id="text_16">
      <!-- R17 -->
      <g transform="translate(583.469543 371.412344)scale(0.15 -0.15)">
       <use xlink:href="#ArialMT-82"/>
       <use x="72.216797" xlink:href="#ArialMT-49"/>
       <use x="127.832031" xlink:href="#ArialMT-55"/>
      </g>
     </g>
    </g>
    <g id="text_17">
     <!-- Amino acid -->
     <g transform="translate(304.871094 389.130313)scale(0.15 -0.15)">
      <defs>
       <path d="M 6.59375 0 
L 6.59375 51.859375 
L 14.453125 51.859375 
L 14.453125 44.578125 
Q 16.890625 48.390625 20.9375 50.703125 
Q 25 53.03125 30.171875 53.03125 
Q 35.9375 53.03125 39.625 50.640625 
Q 43.3125 48.25 44.828125 43.953125 
Q 50.984375 53.03125 60.84375 53.03125 
Q 68.5625 53.03125 72.703125 48.75 
Q 76.859375 44.484375 76.859375 35.59375 
L 76.859375 0 
L 68.109375 0 
L 68.109375 32.671875 
Q 68.109375 37.9375 67.25 40.25 
Q 66.40625 42.578125 64.15625 43.984375 
Q 61.921875 45.40625 58.890625 45.40625 
Q 53.421875 45.40625 49.796875 41.765625 
Q 46.1875 38.140625 46.1875 30.125 
L 46.1875 0 
L 37.40625 0 
L 37.40625 33.6875 
Q 37.40625 39.546875 35.25 42.46875 
Q 33.109375 45.40625 28.21875 45.40625 
Q 24.515625 45.40625 21.359375 43.453125 
Q 18.21875 41.5 16.796875 37.734375 
Q 15.375 33.984375 15.375 26.90625 
L 15.375 0 
z
" id="ArialMT-109"/>
       <path d="M 6.640625 61.46875 
L 6.640625 71.578125 
L 15.4375 71.578125 
L 15.4375 61.46875 
z
M 6.640625 0 
L 6.640625 51.859375 
L 15.4375 51.859375 
L 15.4375 0 
z
" id="ArialMT-105"/>
       <path d="M 6.59375 0 
L 6.59375 51.859375 
L 14.5 51.859375 
L 14.5 44.484375 
Q 20.21875 53.03125 31 53.03125 
Q 35.6875 53.03125 39.625 51.34375 
Q 43.5625 49.65625 45.515625 46.921875 
Q 47.46875 44.1875 48.25 40.4375 
Q 48.734375 37.984375 48.734375 31.890625 
L 48.734375 0 
L 39.9375 0 
L 39.9375 31.546875 
Q 39.9375 36.921875 38.90625 39.578125 
Q 37.890625 42.234375 35.28125 43.8125 
Q 32.671875 45.40625 29.15625 45.40625 
Q 23.53125 45.40625 19.453125 41.84375 
Q 15.375 38.28125 15.375 28.328125 
L 15.375 0 
z
" id="ArialMT-110"/>
       <path d="M 3.328125 25.921875 
Q 3.328125 40.328125 11.328125 47.265625 
Q 18.015625 53.03125 27.640625 53.03125 
Q 38.328125 53.03125 45.109375 46.015625 
Q 51.90625 39.015625 51.90625 26.65625 
Q 51.90625 16.65625 48.90625 10.90625 
Q 45.90625 5.171875 40.15625 2 
Q 34.421875 -1.171875 27.640625 -1.171875 
Q 16.75 -1.171875 10.03125 5.8125 
Q 3.328125 12.796875 3.328125 25.921875 
z
M 12.359375 25.921875 
Q 12.359375 15.96875 16.703125 11.015625 
Q 21.046875 6.0625 27.640625 6.0625 
Q 34.1875 6.0625 38.53125 11.03125 
Q 42.875 16.015625 42.875 26.21875 
Q 42.875 35.84375 38.5 40.796875 
Q 34.125 45.75 27.640625 45.75 
Q 21.046875 45.75 16.703125 40.8125 
Q 12.359375 35.890625 12.359375 25.921875 
z
" id="ArialMT-111"/>
       <path id="ArialMT-32"/>
       <path d="M 40.4375 19 
L 49.078125 17.875 
Q 47.65625 8.9375 41.8125 3.875 
Q 35.984375 -1.171875 27.484375 -1.171875 
Q 16.84375 -1.171875 10.375 5.78125 
Q 3.90625 12.75 3.90625 25.734375 
Q 3.90625 34.125 6.6875 40.421875 
Q 9.46875 46.734375 15.15625 49.875 
Q 20.84375 53.03125 27.546875 53.03125 
Q 35.984375 53.03125 41.359375 48.75 
Q 46.734375 44.484375 48.25 36.625 
L 39.703125 35.296875 
Q 38.484375 40.53125 35.375 43.15625 
Q 32.28125 45.796875 27.875 45.796875 
Q 21.234375 45.796875 17.078125 41.03125 
Q 12.9375 36.28125 12.9375 25.984375 
Q 12.9375 15.53125 16.9375 10.796875 
Q 20.953125 6.0625 27.390625 6.0625 
Q 32.5625 6.0625 36.03125 9.234375 
Q 39.5 12.40625 40.4375 19 
z
" id="ArialMT-99"/>
       <path d="M 40.234375 0 
L 40.234375 6.546875 
Q 35.296875 -1.171875 25.734375 -1.171875 
Q 19.53125 -1.171875 14.328125 2.25 
Q 9.125 5.671875 6.265625 11.796875 
Q 3.421875 17.921875 3.421875 25.875 
Q 3.421875 33.640625 6 39.96875 
Q 8.59375 46.296875 13.765625 49.65625 
Q 18.953125 53.03125 25.34375 53.03125 
Q 30.03125 53.03125 33.6875 51.046875 
Q 37.359375 49.078125 39.65625 45.90625 
L 39.65625 71.578125 
L 48.390625 71.578125 
L 48.390625 0 
z
M 12.453125 25.875 
Q 12.453125 15.921875 16.640625 10.984375 
Q 20.84375 6.0625 26.5625 6.0625 
Q 32.328125 6.0625 36.34375 10.765625 
Q 40.375 15.484375 40.375 25.140625 
Q 40.375 35.796875 36.265625 40.765625 
Q 32.171875 45.75 26.171875 45.75 
Q 20.3125 45.75 16.375 40.96875 
Q 12.453125 36.1875 12.453125 25.875 
z
" id="ArialMT-100"/>
      </defs>
      <use xlink:href="#ArialMT-65"/>
      <use x="66.699219" xlink:href="#ArialMT-109"/>
      <use x="150" xlink:href="#ArialMT-105"/>
      <use x="172.216797" xlink:href="#ArialMT-110"/>
      <use x="227.832031" xlink:href="#ArialMT-111"/>
      <use x="283.447266" xlink:href="#ArialMT-32"/>
      <use x="311.230469" xlink:href="#ArialMT-97"/>
      <use x="366.845703" xlink:href="#ArialMT-99"/>
      <use x="416.845703" xlink:href="#ArialMT-105"/>
      <use x="439.0625" xlink:href="#ArialMT-100"/>
     </g>
    </g>
   </g>
   <g id="matplotlib.axis_2">
    <g id="ytick_1">
     <g id="line2d_17">
      <defs>
       <path d="M 0 0 
L -3.5 0 
" id="m4f4d4bb6f5" style="stroke:#000000;stroke-width:0.8;"/>
      </defs>
      <g>
       <use style="stroke:#000000;stroke-width:0.8;" x="49.020313" xlink:href="#m4f4d4bb6f5" y="323.03378"/>
      </g>
     </g>
     <g id="text_18">
      <!-- −2 -->
      <g transform="translate(24.917969 328.402139)scale(0.15 -0.15)">
       <defs>
        <path d="M 52.828125 31.203125 
L 5.5625 31.203125 
L 5.5625 39.40625 
L 52.828125 39.40625 
z
" id="ArialMT-8722"/>
       </defs>
       <use xlink:href="#ArialMT-8722"/>
       <use x="58.398438" xlink:href="#ArialMT-50"/>
      </g>
     </g>
    </g>
    <g id="ytick_2">
     <g id="line2d_18">
      <g>
       <use style="stroke:#000000;stroke-width:0.8;" x="49.020313" xlink:href="#m4f4d4bb6f5" y="273.323503"/>
      </g>
     </g>
     <g id="text_19">
      <!-- −1 -->
      <g transform="translate(24.917969 278.691862)scale(0.15 -0.15)">
       <use xlink:href="#ArialMT-8722"/>
       <use x="58.398438" xlink:href="#ArialMT-49"/>
      </g>
     </g>
    </g>
    <g id="ytick_3">
     <g id="line2d_19">
      <g>
       <use style="stroke:#000000;stroke-width:0.8;" x="49.020313" xlink:href="#m4f4d4bb6f5" y="223.613226"/>
      </g>
     </g>
     <g id="text_20">
      <!-- 0 -->
      <g transform="translate(33.678906 228.981585)scale(0.15 -0.15)">
       <use xlink:href="#ArialMT-48"/>
      </g>
     </g>
    </g>
    <g id="ytick_4">
     <g id="line2d_20">
      <g>
       <use style="stroke:#000000;stroke-width:0.8;" x="49.020313" xlink:href="#m4f4d4bb6f5" y="173.902948"/>
      </g>
     </g>
     <g id="text_21">
      <!-- 1 -->
      <g transform="translate(33.678906 179.271308)scale(0.15 -0.15)">
       <use xlink:href="#ArialMT-49"/>
      </g>
     </g>
    </g>
    <g id="ytick_5">
     <g id="line2d_21">
      <g>
       <use style="stroke:#000000;stroke-width:0.8;" x="49.020313" xlink:href="#m4f4d4bb6f5" y="124.192671"/>
      </g>
     </g>
     <g id="text_22">
      <!-- 2 -->
      <g transform="translate(33.678906 129.561031)scale(0.15 -0.15)">
       <use xlink:href="#ArialMT-50"/>
      </g>
     </g>
    </g>
    <g id="ytick_6">
     <g id="line2d_22">
      <g>
       <use style="stroke:#000000;stroke-width:0.8;" x="49.020313" xlink:href="#m4f4d4bb6f5" y="74.482394"/>
      </g>
     </g>
     <g id="text_23">
      <!-- 3 -->
      <g transform="translate(33.678906 79.850753)scale(0.15 -0.15)">
       <use xlink:href="#ArialMT-51"/>
      </g>
     </g>
    </g>
    <g id="text_24">
     <!-- ddG, kcal/mol -->
     <g transform="translate(17.936719 236.442891)rotate(-90)scale(0.15 -0.15)">
      <defs>
       <path d="M 8.890625 0 
L 8.890625 10.015625 
L 18.890625 10.015625 
L 18.890625 0 
Q 18.890625 -5.515625 16.9375 -8.90625 
Q 14.984375 -12.3125 10.75 -14.15625 
L 8.296875 -10.40625 
Q 11.078125 -9.1875 12.390625 -6.8125 
Q 13.71875 -4.4375 13.875 0 
z
" id="ArialMT-44"/>
       <path d="M 6.640625 0 
L 6.640625 71.578125 
L 15.4375 71.578125 
L 15.4375 30.765625 
L 36.234375 51.859375 
L 47.609375 51.859375 
L 27.78125 32.625 
L 49.609375 0 
L 38.765625 0 
L 21.625 26.515625 
L 15.4375 20.5625 
L 15.4375 0 
z
" id="ArialMT-107"/>
       <path d="M 6.390625 0 
L 6.390625 71.578125 
L 15.1875 71.578125 
L 15.1875 0 
z
" id="ArialMT-108"/>
       <path d="M 0 -1.21875 
L 20.75 72.796875 
L 27.78125 72.796875 
L 7.078125 -1.21875 
z
" id="ArialMT-47"/>
      </defs>
      <use xlink:href="#ArialMT-100"/>
      <use x="55.615234" xlink:href="#ArialMT-100"/>
      <use x="111.230469" xlink:href="#ArialMT-71"/>
      <use x="189.013672" xlink:href="#ArialMT-44"/>
      <use x="216.796875" xlink:href="#ArialMT-32"/>
      <use x="244.580078" xlink:href="#ArialMT-107"/>
      <use x="294.580078" xlink:href="#ArialMT-99"/>
      <use x="344.580078" xlink:href="#ArialMT-97"/>
      <use x="400.195312" xlink:href="#ArialMT-108"/>
      <use x="422.412109" xlink:href="#ArialMT-47"/>
      <use x="450.195312" xlink:href="#ArialMT-109"/>
      <use x="533.496094" xlink:href="#ArialMT-111"/>
      <use x="589.111328" xlink:href="#ArialMT-108"/>
     </g>
    </g>
   </g>
   <g id="patch_19">
    <path clip-path="url(#p87854f8668)" d="M 79.055558 223.613226 
L 94.370981 223.613226 
L 94.370981 213.456863 
L 79.055558 213.456863 
z
" style="fill:#1571da;"/>
   </g>
   <g id="patch_20">
    <path clip-path="url(#p87854f8668)" d="M 113.08983 223.613226 
L 128.405253 223.613226 
L 128.405253 224.087485 
L 113.08983 224.087485 
z
" style="fill:#1571da;"/>
   </g>
   <g id="patch_21">
    <path clip-path="url(#p87854f8668)" d="M 147.124103 223.613226 
L 162.439525 223.613226 
L 162.439525 237.78862 
L 147.124103 237.78862 
z
" style="fill:#1571da;"/>
   </g>
   <g id="patch_22">
    <path clip-path="url(#p87854f8668)" d="M 181.158375 223.613226 
L 196.473798 223.613226 
L 196.473798 203.371125 
L 181.158375 203.371125 
z
" style="fill:#1571da;"/>
   </g>
   <g id="patch_23">
    <path clip-path="url(#p87854f8668)" d="M 215.192648 223.613226 
L 230.50807 223.613226 
L 230.50807 215.404488 
L 215.192648 215.404488 
z
" style="fill:#1571da;"/>
   </g>
   <g id="patch_24">
    <path clip-path="url(#p87854f8668)" d="M 249.22692 223.613226 
L 264.542343 223.613226 
L 264.542343 213.038419 
L 249.22692 213.038419 
z
" style="fill:#1571da;"/>
   </g>
   <g id="patch_25">
    <path clip-path="url(#p87854f8668)" d="M 283.261193 223.613226 
L 298.576615 223.613226 
L 298.576615 226.92478 
L 283.261193 226.92478 
z
" style="fill:#1571da;"/>
   </g>
   <g id="patch_26">
    <path clip-path="url(#p87854f8668)" d="M 317.295465 223.613226 
L 332.610888 223.613226 
L 332.610888 188.461777 
L 317.295465 188.461777 
z
" style="fill:#1571da;"/>
   </g>
   <g id="patch_27">
    <path clip-path="url(#p87854f8668)" d="M 351.329737 223.613226 
L 366.64516 223.613226 
L 366.64516 42.34108 
L 351.329737 42.34108 
z
" style="fill:#1571da;"/>
   </g>
   <g id="patch_28">
    <path clip-path="url(#p87854f8668)" d="M 385.36401 223.613226 
L 400.679432 223.613226 
L 400.679432 229.022573 
L 385.36401 229.022573 
z
" style="fill:#1571da;"/>
   </g>
   <g id="patch_29">
    <path clip-path="url(#p87854f8668)" d="M 419.398282 223.613226 
L 434.713705 223.613226 
L 434.713705 232.64092 
L 419.398282 232.64092 
z
" style="fill:#1571da;"/>
   </g>
   <g id="patch_30">
    <path clip-path="url(#p87854f8668)" d="M 453.432555 223.613226 
L 468.747977 223.613226 
L 468.747977 252.529381 
L 453.432555 252.529381 
z
" style="fill:#1571da;"/>
   </g>
   <g id="patch_31">
    <path clip-path="url(#p87854f8668)" d="M 487.466827 223.613226 
L 502.78225 223.613226 
L 502.78225 221.535706 
L 487.466827 221.535706 
z
" style="fill:#1571da;"/>
   </g>
   <g id="patch_32">
    <path clip-path="url(#p87854f8668)" d="M 521.5011 223.613226 
L 536.816522 223.613226 
L 536.816522 216.995138 
L 521.5011 216.995138 
z
" style="fill:#1571da;"/>
   </g>
   <g id="patch_33">
    <path clip-path="url(#p87854f8668)" d="M 555.535372 223.613226 
L 570.850795 223.613226 
L 570.850795 214.243775 
L 555.535372 214.243775 
z
" style="fill:#1571da;"/>
   </g>
   <g id="patch_34">
    <path clip-path="url(#p87854f8668)" d="M 589.569644 223.613226 
L 604.885067 223.613226 
L 604.885067 215.20206 
L 589.569644 215.20206 
z
" style="fill:#1571da;"/>
   </g>
   <g id="line2d_23">
    <path clip-path="url(#p87854f8668)" d="M 49.020313 223.613226 
L 634.920313 223.613226 
" style="fill:none;stroke:#000000;stroke-linecap:square;"/>
   </g>
   <g id="patch_35">
    <path d="M 49.020313 353.675625 
L 49.020313 27.515625 
" style="fill:none;stroke:#000000;stroke-linecap:square;stroke-linejoin:miter;stroke-width:0.8;"/>
   </g>
   <g id="patch_36">
    <path d="M 634.920313 353.675625 
L 634.920313 27.515625 
" style="fill:none;stroke:#000000;stroke-linecap:square;stroke-linejoin:miter;stroke-width:0.8;"/>
   </g>
   <g id="patch_37">
    <path d="M 49.020313 353.675625 
L 634.920312 353.675625 
" style="fill:none;stroke:#000000;stroke-linecap:square;stroke-linejoin:miter;stroke-width:0.8;"/>
   </g>
   <g id="patch_38">
    <path d="M 49.020313 27.515625 
L 634.920312 27.515625 
" style="fill:none;stroke:#000000;stroke-linecap:square;stroke-linejoin:miter;stroke-width:0.8;"/>
   </g>
   <g id="patch_39">
    <path clip-path="url(#p87854f8668)" d="M 79.055558 223.613226 
L 94.370981 223.613226 
L 94.370981 222.630383 
L 79.055558 222.630383 
z
" style="fill:#ef476f;"/>
   </g>
   <g id="patch_40">
    <path clip-path="url(#p87854f8668)" d="M 113.08983 223.613226 
L 128.405253 223.613226 
L 128.405253 224.859481 
L 113.08983 224.859481 
z
" style="fill:#ef476f;"/>
   </g>
   <g id="patch_41">
    <path clip-path="url(#p87854f8668)" d="M 147.124103 223.613226 
L 162.439525 223.613226 
L 162.439525 221.681522 
L 147.124103 221.681522 
z
" style="fill:#ef476f;"/>
   </g>
   <g id="patch_42">
    <path clip-path="url(#p87854f8668)" d="M 181.158375 223.613226 
L 196.473798 223.613226 
L 196.473798 232.785144 
L 181.158375 232.785144 
z
" style="fill:#ef476f;"/>
   </g>
   <g id="patch_43">
    <path clip-path="url(#p87854f8668)" d="M 215.192648 223.613226 
L 230.50807 223.613226 
L 230.50807 226.209143 
L 215.192648 226.209143 
z
" style="fill:#ef476f;"/>
   </g>
   <g id="patch_44">
    <path clip-path="url(#p87854f8668)" d="M 249.22692 223.613226 
L 264.542343 223.613226 
L 264.542343 228.425759 
L 249.22692 228.425759 
z
" style="fill:#ef476f;"/>
   </g>
   <g id="patch_45">
    <path clip-path="url(#p87854f8668)" d="M 283.261193 223.613226 
L 298.576615 223.613226 
L 298.576615 234.050037 
L 283.261193 234.050037 
z
" style="fill:#ef476f;"/>
   </g>
   <g id="patch_46">
    <path clip-path="url(#p87854f8668)" d="M 317.295465 223.613226 
L 332.610888 223.613226 
L 332.610888 283.105188 
L 317.295465 283.105188 
z
" style="fill:#ef476f;"/>
   </g>
   <g id="patch_47">
    <path clip-path="url(#p87854f8668)" d="M 351.329737 223.613226 
L 366.64516 223.613226 
L 366.64516 338.85017 
L 351.329737 338.85017 
z
" style="fill:#ef476f;"/>
   </g>
   <g id="patch_48">
    <path clip-path="url(#p87854f8668)" d="M 385.36401 223.613226 
L 400.679432 223.613226 
L 400.679432 255.034395 
L 385.36401 255.034395 
z
" style="fill:#ef476f;"/>
   </g>
   <g id="patch_49">
    <path clip-path="url(#p87854f8668)" d="M 419.398282 223.613226 
L 434.713705 223.613226 
L 434.713705 244.033992 
L 419.398282 244.033992 
z
" style="fill:#ef476f;"/>
   </g>
   <g id="patch_50">
    <path clip-path="url(#p87854f8668)" d="M 453.432555 223.613226 
L 468.747977 223.613226 
L 468.747977 228.818151 
L 453.432555 228.818151 
z
" style="fill:#ef476f;"/>
   </g>
   <g id="patch_51">
    <path clip-path="url(#p87854f8668)" d="M 487.466827 223.613226 
L 502.78225 223.613226 
L 502.78225 221.679529 
L 487.466827 221.679529 
z
" style="fill:#ef476f;"/>
   </g>
   <g id="patch_52">
    <path clip-path="url(#p87854f8668)" d="M 521.5011 223.613226 
L 536.816522 223.613226 
L 536.816522 226.89499 
L 521.5011 226.89499 
z
" style="fill:#ef476f;"/>
   </g>
   <g id="patch_53">
    <path clip-path="url(#p87854f8668)" d="M 555.535372 223.613226 
L 570.850795 223.613226 
L 570.850795 223.301002 
L 555.535372 223.301002 
z
" style="fill:#ef476f;"/>
   </g>
   <g id="patch_54">
    <path clip-path="url(#p87854f8668)" d="M 589.569644 223.613226 
L 604.885067 223.613226 
L 604.885067 227.132429 
L 589.569644 227.132429 
z
" style="fill:#ef476f;"/>
   </g>
   <g id="text_25">
    <!-- Decomposition -->
    <g transform="translate(275.83125 21.515625)scale(0.2 -0.2)">
     <defs>
      <path d="M 42.09375 16.703125 
L 51.171875 15.578125 
Q 49.03125 7.625 43.21875 3.21875 
Q 37.40625 -1.171875 28.375 -1.171875 
Q 17 -1.171875 10.328125 5.828125 
Q 3.65625 12.84375 3.65625 25.484375 
Q 3.65625 38.578125 10.390625 45.796875 
Q 17.140625 53.03125 27.875 53.03125 
Q 38.28125 53.03125 44.875 45.953125 
Q 51.46875 38.875 51.46875 26.03125 
Q 51.46875 25.25 51.421875 23.6875 
L 12.75 23.6875 
Q 13.234375 15.140625 17.578125 10.59375 
Q 21.921875 6.0625 28.421875 6.0625 
Q 33.25 6.0625 36.671875 8.59375 
Q 40.09375 11.140625 42.09375 16.703125 
z
M 13.234375 30.90625 
L 42.1875 30.90625 
Q 41.609375 37.453125 38.875 40.71875 
Q 34.671875 45.796875 27.984375 45.796875 
Q 21.921875 45.796875 17.796875 41.75 
Q 13.671875 37.703125 13.234375 30.90625 
z
" id="ArialMT-101"/>
      <path d="M 6.59375 -19.875 
L 6.59375 51.859375 
L 14.59375 51.859375 
L 14.59375 45.125 
Q 17.4375 49.078125 21 51.046875 
Q 24.5625 53.03125 29.640625 53.03125 
Q 36.28125 53.03125 41.359375 49.609375 
Q 46.4375 46.1875 49.015625 39.953125 
Q 51.609375 33.734375 51.609375 26.3125 
Q 51.609375 18.359375 48.75 11.984375 
Q 45.90625 5.609375 40.453125 2.21875 
Q 35.015625 -1.171875 29 -1.171875 
Q 24.609375 -1.171875 21.109375 0.6875 
Q 17.625 2.546875 15.375 5.375 
L 15.375 -19.875 
z
M 14.546875 25.640625 
Q 14.546875 15.625 18.59375 10.84375 
Q 22.65625 6.0625 28.421875 6.0625 
Q 34.28125 6.0625 38.453125 11.015625 
Q 42.625 15.96875 42.625 26.375 
Q 42.625 36.28125 38.546875 41.203125 
Q 34.46875 46.140625 28.8125 46.140625 
Q 23.1875 46.140625 18.859375 40.890625 
Q 14.546875 35.640625 14.546875 25.640625 
z
" id="ArialMT-112"/>
      <path d="M 3.078125 15.484375 
L 11.765625 16.84375 
Q 12.5 11.625 15.84375 8.84375 
Q 19.1875 6.0625 25.203125 6.0625 
Q 31.25 6.0625 34.171875 8.515625 
Q 37.109375 10.984375 37.109375 14.3125 
Q 37.109375 17.28125 34.515625 19 
Q 32.71875 20.171875 25.53125 21.96875 
Q 15.875 24.421875 12.140625 26.203125 
Q 8.40625 27.984375 6.46875 31.125 
Q 4.546875 34.28125 4.546875 38.09375 
Q 4.546875 41.546875 6.125 44.5 
Q 7.71875 47.46875 10.453125 49.421875 
Q 12.5 50.921875 16.03125 51.96875 
Q 19.578125 53.03125 23.640625 53.03125 
Q 29.734375 53.03125 34.34375 51.265625 
Q 38.96875 49.515625 41.15625 46.5 
Q 43.359375 43.5 44.1875 38.484375 
L 35.59375 37.3125 
Q 35.015625 41.3125 32.203125 43.546875 
Q 29.390625 45.796875 24.265625 45.796875 
Q 18.21875 45.796875 15.625 43.796875 
Q 13.03125 41.796875 13.03125 39.109375 
Q 13.03125 37.40625 14.109375 36.03125 
Q 15.1875 34.625 17.484375 33.6875 
Q 18.796875 33.203125 25.25 31.453125 
Q 34.578125 28.953125 38.25 27.359375 
Q 41.9375 25.78125 44.03125 22.75 
Q 46.140625 19.734375 46.140625 15.234375 
Q 46.140625 10.84375 43.578125 6.953125 
Q 41.015625 3.078125 36.171875 0.953125 
Q 31.34375 -1.171875 25.25 -1.171875 
Q 15.140625 -1.171875 9.84375 3.03125 
Q 4.546875 7.234375 3.078125 15.484375 
z
" id="ArialMT-115"/>
      <path d="M 25.78125 7.859375 
L 27.046875 0.09375 
Q 23.34375 -0.6875 20.40625 -0.6875 
Q 15.625 -0.6875 12.984375 0.828125 
Q 10.359375 2.34375 9.28125 4.8125 
Q 8.203125 7.28125 8.203125 15.1875 
L 8.203125 45.015625 
L 1.765625 45.015625 
L 1.765625 51.859375 
L 8.203125 51.859375 
L 8.203125 64.703125 
L 16.9375 69.96875 
L 16.9375 51.859375 
L 25.78125 51.859375 
L 25.78125 45.015625 
L 16.9375 45.015625 
L 16.9375 14.703125 
Q 16.9375 10.9375 17.40625 9.859375 
Q 17.875 8.796875 18.921875 8.15625 
Q 19.96875 7.515625 21.921875 7.515625 
Q 23.390625 7.515625 25.78125 7.859375 
z
" id="ArialMT-116"/>
     </defs>
     <use xlink:href="#ArialMT-68"/>
     <use x="72.216797" xlink:href="#ArialMT-101"/>
     <use x="127.832031" xlink:href="#ArialMT-99"/>
     <use x="177.832031" xlink:href="#ArialMT-111"/>
     <use x="233.447266" xlink:href="#ArialMT-109"/>
     <use x="316.748047" xlink:href="#ArialMT-112"/>
     <use x="372.363281" xlink:href="#ArialMT-111"/>
     <use x="427.978516" xlink:href="#ArialMT-115"/>
     <use x="477.978516" xlink:href="#ArialMT-105"/>
     <use x="500.195312" xlink:href="#ArialMT-116"/>
     <use x="527.978516" xlink:href="#ArialMT-105"/>
     <use x="550.195312" xlink:href="#ArialMT-111"/>
     <use x="605.810547" xlink:href="#ArialMT-110"/>
    </g>
   </g>
   <g id="legend_1">
    <g id="patch_55">
     <path d="M 505.817187 306.541875 
L 529.817188 306.541875 
L 529.817188 298.141875 
L 505.817187 298.141875 
z
" style="fill:#323232;"/>
    </g>
    <g id="text_26">
     <!-- Full contribution -->
     <g transform="translate(539.417187 306.541875)scale(0.12 -0.12)">
      <defs>
       <path d="M 40.578125 0 
L 40.578125 7.625 
Q 34.515625 -1.171875 24.125 -1.171875 
Q 19.53125 -1.171875 15.546875 0.578125 
Q 11.578125 2.34375 9.640625 5 
Q 7.71875 7.671875 6.9375 11.53125 
Q 6.390625 14.109375 6.390625 19.734375 
L 6.390625 51.859375 
L 15.1875 51.859375 
L 15.1875 23.09375 
Q 15.1875 16.21875 15.71875 13.8125 
Q 16.546875 10.359375 19.234375 8.375 
Q 21.921875 6.390625 25.875 6.390625 
Q 29.828125 6.390625 33.296875 8.421875 
Q 36.765625 10.453125 38.203125 13.9375 
Q 39.65625 17.4375 39.65625 24.078125 
L 39.65625 51.859375 
L 48.4375 51.859375 
L 48.4375 0 
z
" id="ArialMT-117"/>
       <path d="M 6.5 0 
L 6.5 51.859375 
L 14.40625 51.859375 
L 14.40625 44 
Q 17.4375 49.515625 20 51.265625 
Q 22.5625 53.03125 25.640625 53.03125 
Q 30.078125 53.03125 34.671875 50.203125 
L 31.640625 42.046875 
Q 28.421875 43.953125 25.203125 43.953125 
Q 22.3125 43.953125 20.015625 42.21875 
Q 17.71875 40.484375 16.75 37.40625 
Q 15.28125 32.71875 15.28125 27.15625 
L 15.28125 0 
z
" id="ArialMT-114"/>
       <path d="M 14.703125 0 
L 6.546875 0 
L 6.546875 71.578125 
L 15.328125 71.578125 
L 15.328125 46.046875 
Q 20.90625 53.03125 29.546875 53.03125 
Q 34.328125 53.03125 38.59375 51.09375 
Q 42.875 49.171875 45.625 45.671875 
Q 48.390625 42.1875 49.953125 37.25 
Q 51.515625 32.328125 51.515625 26.703125 
Q 51.515625 13.375 44.921875 6.09375 
Q 38.328125 -1.171875 29.109375 -1.171875 
Q 19.921875 -1.171875 14.703125 6.5 
z
M 14.59375 26.3125 
Q 14.59375 17 17.140625 12.84375 
Q 21.296875 6.0625 28.375 6.0625 
Q 34.125 6.0625 38.328125 11.0625 
Q 42.53125 16.0625 42.53125 25.984375 
Q 42.53125 36.140625 38.5 40.96875 
Q 34.46875 45.796875 28.765625 45.796875 
Q 23 45.796875 18.796875 40.796875 
Q 14.59375 35.796875 14.59375 26.3125 
z
" id="ArialMT-98"/>
      </defs>
      <use xlink:href="#ArialMT-70"/>
      <use x="61.083984" xlink:href="#ArialMT-117"/>
      <use x="116.699219" xlink:href="#ArialMT-108"/>
      <use x="138.916016" xlink:href="#ArialMT-108"/>
      <use x="161.132812" xlink:href="#ArialMT-32"/>
      <use x="188.916016" xlink:href="#ArialMT-99"/>
      <use x="238.916016" xlink:href="#ArialMT-111"/>
      <use x="294.53125" xlink:href="#ArialMT-110"/>
      <use x="350.146484" xlink:href="#ArialMT-116"/>
      <use x="377.929688" xlink:href="#ArialMT-114"/>
      <use x="411.230469" xlink:href="#ArialMT-105"/>
      <use x="433.447266" xlink:href="#ArialMT-98"/>
      <use x="489.0625" xlink:href="#ArialMT-117"/>
      <use x="544.677734" xlink:href="#ArialMT-116"/>
      <use x="572.460938" xlink:href="#ArialMT-105"/>
      <use x="594.677734" xlink:href="#ArialMT-111"/>
      <use x="650.292969" xlink:href="#ArialMT-110"/>
     </g>
    </g>
    <g id="patch_56">
     <path d="M 505.817187 323.51625 
L 529.817188 323.51625 
L 529.817188 315.11625 
L 505.817187 315.11625 
z
" style="fill:#1571da;"/>
    </g>
    <g id="text_27">
     <!-- First order -->
     <g transform="translate(539.417187 323.51625)scale(0.12 -0.12)">
      <use xlink:href="#ArialMT-70"/>
      <use x="61.083984" xlink:href="#ArialMT-105"/>
      <use x="83.300781" xlink:href="#ArialMT-114"/>
      <use x="116.601562" xlink:href="#ArialMT-115"/>
      <use x="166.601562" xlink:href="#ArialMT-116"/>
      <use x="194.384766" xlink:href="#ArialMT-32"/>
      <use x="222.167969" xlink:href="#ArialMT-111"/>
      <use x="277.783203" xlink:href="#ArialMT-114"/>
      <use x="311.083984" xlink:href="#ArialMT-100"/>
      <use x="366.699219" xlink:href="#ArialMT-101"/>
      <use x="422.314453" xlink:href="#ArialMT-114"/>
     </g>
    </g>
    <g id="patch_57">
     <path d="M 505.817187 340.490625 
L 529.817188 340.490625 
L 529.817188 332.090625 
L 505.817187 332.090625 
z
" style="fill:#ef476f;"/>
    </g>
    <g id="text_28">
     <!-- Second order -->
     <g transform="translate(539.417187 340.490625)scale(0.12 -0.12)">
      <use xlink:href="#ArialMT-83"/>
      <use x="66.699219" xlink:href="#ArialMT-101"/>
      <use x="122.314453" xlink:href="#ArialMT-99"/>
      <use x="172.314453" xlink:href="#ArialMT-111"/>
      <use x="227.929688" xlink:href="#ArialMT-110"/>
      <use x="283.544922" xlink:href="#ArialMT-100"/>
      <use x="339.160156" xlink:href="#ArialMT-32"/>
      <use x="366.943359" xlink:href="#ArialMT-111"/>
      <use x="422.558594" xlink:href="#ArialMT-114"/>
      <use x="455.859375" xlink:href="#ArialMT-100"/>
      <use x="511.474609" xlink:href="#ArialMT-101"/>
      <use x="567.089844" xlink:href="#ArialMT-114"/>
     </g>
    </g>
   </g>
  </g>
 </g>
 <defs>
  <clipPath id="p87854f8668">
   <rect height="326.16" width="585.9" x="49.020313" y="27.515625"/>
  </clipPath>
 </defs>
</svg>
