<?xml version="1.0" encoding="utf-8" standalone="no"?>
<!DOCTYPE svg PUBLIC "-//W3C//DTD SVG 1.1//EN"
  "http://www.w3.org/Graphics/SVG/1.1/DTD/svg11.dtd">
<!-- Created with matplotlib (https://matplotlib.org/) -->
<svg height="446.394994pt" version="1.1" viewBox="0 0 1106.630078 446.394994" width="1106.630078pt" xmlns="http://www.w3.org/2000/svg" xmlns:xlink="http://www.w3.org/1999/xlink">
 <metadata>
  <rdf:RDF xmlns:cc="http://creativecommons.org/ns#" xmlns:dc="http://purl.org/dc/elements/1.1/" xmlns:rdf="http://www.w3.org/1999/02/22-rdf-syntax-ns#">
   <cc:Work>
    <dc:type rdf:resource="http://purl.org/dc/dcmitype/StillImage"/>
    <dc:date>2025-05-02T22:24:38.862358</dc:date>
    <dc:format>image/svg+xml</dc:format>
    <dc:creator>
     <cc:Agent>
      <dc:title>Matplotlib v3.3.4, https://matplotlib.org/</dc:title>
     </cc:Agent>
    </dc:creator>
   </cc:Work>
  </rdf:RDF>
 </metadata>
 <defs>
  <style type="text/css">*{stroke-linecap:butt;stroke-linejoin:round;}</style>
 </defs>
 <g id="figure_1">
  <g id="patch_1">
   <path d="M 0 446.394994 
L 1106.630078 446.394994 
L 1106.630078 0 
L 0 0 
z
" style="fill:none;"/>
  </g>
  <g id="axes_1">
   <g id="patch_2">
    <path d="M 74.176563 377.178587 
L 1078.576563 377.178587 
L 1078.576563 51.018587 
L 74.176563 51.018587 
z
" style="fill:#ffffff;"/>
   </g>
   <g id="PolyCollection_1">
    <defs>
     <path d="M 74.176563 -363.480953 
L 74.176563 -283.448771 
L 77.640011 -285.572356 
L 81.103459 -285.988771 
L 84.566907 -285.52061 
L 88.030356 -286.101277 
L 91.493804 -285.46044 
L 94.957252 -286.045273 
L 98.4207 -286.195824 
L 101.884149 -286.103926 
L 105.347597 -286.306201 
L 108.811045 -286.182916 
L 112.274494 -286.353757 
L 115.737942 -286.458631 
L 119.20139 -286.372101 
L 122.664838 -286.413769 
L 126.128287 -286.424979 
L 129.591735 -286.551027 
L 133.055183 -286.028719 
L 136.518631 -286.319811 
L 139.98208 -286.576866 
L 143.445528 -286.402967 
L 146.908976 -286.612918 
L 150.372425 -286.653659 
L 153.835873 -286.531936 
L 157.299321 -286.576685 
L 160.762769 -286.21351 
L 164.226218 -286.166882 
L 167.689666 -285.999641 
L 171.153114 -286.515269 
L 174.616563 -286.537484 
L 178.080011 -286.062552 
L 181.543459 -285.932858 
L 185.006907 -286.168875 
L 188.470356 -286.349477 
L 191.933804 -286.283079 
L 195.397252 -286.391553 
L 198.8607 -286.229997 
L 202.324149 -286.401789 
L 205.787597 -286.228683 
L 209.251045 -282.425351 
L 212.714494 -282.491115 
L 216.177942 -285.70359 
L 219.64139 -282.592864 
L 223.104838 -282.404041 
L 226.568287 -285.711539 
L 230.031735 -282.667369 
L 233.495183 -282.5651 
L 236.958631 -285.811476 
L 240.42208 -282.669385 
L 243.885528 -282.615306 
L 247.348976 -285.821145 
L 250.812425 -282.680912 
L 254.275873 -282.763615 
L 257.739321 -285.849657 
L 261.202769 -282.771722 
L 264.666218 -282.754489 
L 268.129666 -285.841459 
L 271.593114 -282.815248 
L 275.056563 -282.732069 
L 278.520011 -285.901856 
L 281.983459 -282.799486 
L 285.446907 -282.863031 
L 288.910356 -286.180968 
L 292.373804 -286.320151 
L 295.837252 -286.259482 
L 299.3007 -286.191136 
L 302.764149 -282.973793 
L 306.227597 -283.088268 
L 309.691045 -284.249964 
L 313.154494 -282.915525 
L 316.617942 -282.967225 
L 320.08139 -285.993459 
L 323.544838 -282.89931 
L 327.008287 -282.904768 
L 330.471735 -285.959331 
L 333.935183 -282.942836 
L 337.398631 -282.911403 
L 340.86208 -286.02462 
L 344.325528 -282.986429 
L 347.788976 -282.970577 
L 351.252425 -285.979169 
L 354.715873 -282.930607 
L 358.179321 -282.896887 
L 361.642769 -285.966963 
L 365.106218 -282.953253 
L 368.569666 -282.88142 
L 372.033114 -286.057955 
L 375.496563 -283.016322 
L 378.960011 -283.048321 
L 382.423459 -286.479103 
L 385.886907 -286.369292 
L 389.350356 -286.391576 
L 392.813804 -286.211835 
L 396.277252 -286.324951 
L 399.7407 -286.398891 
L 403.204149 -286.523308 
L 406.667597 -286.084609 
L 410.131045 -286.4053 
L 413.594494 -286.5205 
L 417.057942 -286.566245 
L 420.52139 -286.565271 
L 423.984838 -286.34676 
L 427.448287 -286.495046 
L 430.911735 -286.521293 
L 434.375183 -286.441737 
L 437.838631 -286.451973 
L 441.30208 -286.69852 
L 444.765528 -286.596138 
L 448.228976 -286.236021 
L 451.692425 -286.485874 
L 455.155873 -286.310684 
L 458.619321 -286.446493 
L 462.082769 -286.545139 
L 465.546218 -286.320241 
L 469.009666 -286.445972 
L 472.473114 -286.550302 
L 475.936563 -286.390738 
L 479.400011 -286.486621 
L 482.863459 -286.567422 
L 486.326907 -286.449188 
L 489.790356 -286.537281 
L 493.253804 -286.526592 
L 496.717252 -286.510672 
L 500.1807 -286.500096 
L 503.644149 -286.595707 
L 507.107597 -286.506527 
L 510.571045 -286.512981 
L 514.034494 -286.506188 
L 517.497942 -286.77169 
L 520.96139 -286.670756 
L 524.424838 -286.699766 
L 527.888287 -286.417845 
L 531.351735 -286.608366 
L 534.815183 -286.466987 
L 538.278631 -286.438114 
L 541.74208 -286.330839 
L 545.205528 -286.511034 
L 548.668976 -286.628725 
L 552.132425 -286.575824 
L 555.595873 -286.585154 
L 559.059321 -286.458291 
L 562.522769 -286.475366 
L 565.986218 -286.398076 
L 569.449666 -286.056845 
L 572.913114 -286.436257 
L 576.376563 -286.219421 
L 579.840011 -286.042012 
L 583.303459 -285.734502 
L 586.766907 -273.163852 
L 590.230356 -269.556091 
L 593.693804 -254.667055 
L 597.157252 -268.261373 
L 600.6207 -253.515856 
L 604.084149 -260.813141 
L 607.547597 -240.308196 
L 611.011045 -250.871966 
L 614.474494 -235.163042 
L 617.937942 -240.389892 
L 621.40139 -241.186647 
L 624.864838 -247.303995 
L 628.328287 -249.532465 
L 631.791735 -252.898525 
L 635.255183 -274.49725 
L 638.718631 -241.008955 
L 642.18208 -249.724673 
L 645.645528 -232.592548 
L 649.108976 -238.775366 
L 652.572425 -241.106638 
L 656.035873 -254.862615 
L 659.499321 -247.349898 
L 662.962769 -258.630857 
L 666.426218 -247.349898 
L 669.889666 -256.869358 
L 673.353114 -246.255586 
L 676.816563 -247.717047 
L 680.280011 -262.0471 
L 683.743459 -255.165732 
L 687.206907 -268.328699 
L 690.670356 -270.790662 
L 694.133804 -250.746258 
L 697.597252 -260.144154 
L 701.0607 -247.717035 
L 704.524149 -258.318398 
L 707.987597 -254.943495 
L 711.451045 -253.706977 
L 714.914494 -258.115761 
L 718.377942 -265.903197 
L 721.84139 -263.713553 
L 725.304838 -256.228215 
L 728.768287 -261.509574 
L 732.231735 -259.564779 
L 735.695183 -256.228227 
L 739.158631 -263.545972 
L 742.62208 -256.228227 
L 746.085528 -259.564779 
L 749.548976 -256.228227 
L 753.012425 -263.545972 
L 756.475873 -245.86022 
L 759.939321 -265.690687 
L 763.402769 -265.690687 
L 766.866218 -270.408963 
L 770.329666 -276.393311 
L 773.793114 -261.839934 
L 777.256563 -280.348235 
L 780.720011 -265.690687 
L 784.183459 -258.029412 
L 787.646907 -248.4098 
L 791.110356 -267.966974 
L 794.573804 -258.029412 
L 798.037252 -255.780198 
L 801.5007 -276.22675 
L 804.964149 -270.177113 
L 808.427597 -288.867624 
L 811.891045 -288.867624 
L 815.354494 -270.044521 
L 818.817942 -280.121798 
L 822.28139 -288.867624 
L 825.744838 -260.743504 
L 829.208287 -269.918314 
L 832.671735 -288.867624 
L 836.135183 -288.867624 
L 839.598631 -260.542453 
L 843.06208 -275.964599 
L 846.525528 -275.964599 
L 849.988976 -275.78094 
L 853.452425 -262.081363 
L 856.915873 -279.611266 
L 860.379321 -260.583759 
L 863.842769 -274.964053 
L 867.306218 -271.38632 
L 870.769666 -288.867624 
L 874.233114 -279.396378 
L 877.696563 -279.396378 
L 881.160011 -279.321487 
L 884.623459 -268.184331 
L 888.086907 -274.49725 
L 891.550356 -278.919588 
L 895.013804 -278.833194 
L 898.477252 -266.562264 
L 901.9407 -288.867624 
L 905.404149 -269.959236 
L 908.867597 -288.867624 
L 912.331045 -273.84595 
L 915.794494 -278.560468 
L 919.257942 -288.867624 
L 922.72139 -262.743963 
L 926.184838 -269.210966 
L 929.648287 -288.867624 
L 933.111735 -272.60445 
L 936.575183 -288.867624 
L 940.038631 -263.546923 
L 943.50208 -277.341274 
L 946.965528 -277.341251 
L 950.428976 -288.867624 
L 953.892425 -288.867624 
L 957.355873 -288.867624 
L 960.819321 -288.867624 
L 964.282769 -277.071899 
L 967.746218 -288.867624 
L 971.209666 -276.14108 
L 974.673114 -275.589649 
L 978.136563 -288.867624 
L 981.600011 -288.867624 
L 985.063459 -288.867624 
L 988.526907 -250.494706 
L 991.990356 -288.867624 
L 995.453804 -273.412619 
L 998.917252 -288.867624 
L 1002.3807 -288.867624 
L 1005.844149 -288.867624 
L 1009.307597 -288.867624 
L 1012.771045 -266.348463 
L 1016.234494 -288.867624 
L 1019.697942 -288.867624 
L 1023.16139 -288.867624 
L 1026.624838 -288.867624 
L 1030.088287 -265.432522 
L 1033.551735 -288.867624 
L 1037.015183 -288.867624 
L 1040.478631 -288.867624 
L 1043.94208 -288.867624 
L 1047.405528 -288.867624 
L 1050.868976 -288.867624 
L 1050.868976 -288.867624 
L 1050.868976 -288.867624 
L 1047.405528 -288.867624 
L 1043.94208 -288.867624 
L 1040.478631 -288.867624 
L 1037.015183 -288.867624 
L 1033.551735 -288.867624 
L 1030.088287 -302.12583 
L 1026.624838 -288.867624 
L 1023.16139 -288.867624 
L 1019.697942 -288.867624 
L 1016.234494 -288.867624 
L 1012.771045 -301.888364 
L 1009.307597 -288.867624 
L 1005.844149 -288.867624 
L 1002.3807 -288.867624 
L 998.917252 -288.867624 
L 995.453804 -299.409666 
L 991.990356 -288.867624 
L 988.526907 -311.682769 
L 985.063459 -288.867624 
L 981.600011 -288.867624 
L 978.136563 -288.867624 
L 974.673114 -298.396234 
L 971.209666 -298.119137 
L 967.746218 -288.867624 
L 964.282769 -297.631953 
L 960.819321 -288.867624 
L 957.355873 -288.867624 
L 953.892425 -288.867624 
L 950.428976 -288.867624 
L 946.965528 -297.486294 
L 943.50208 -297.486271 
L 940.038631 -302.557599 
L 936.575183 -288.867624 
L 933.111735 -299.754316 
L 929.648287 -288.867624 
L 926.184838 -301.025505 
L 922.72139 -307.075911 
L 919.257942 -288.867624 
L 915.794494 -296.800164 
L 912.331045 -299.217922 
L 908.867597 -288.867624 
L 905.404149 -300.768971 
L 901.9407 -288.867624 
L 898.477252 -301.830277 
L 895.013804 -296.640533 
L 891.550356 -296.589466 
L 888.086907 -298.920534 
L 884.623459 -305.077015 
L 881.160011 -296.348897 
L 877.696563 -296.303492 
L 874.233114 -296.303492 
L 870.769666 -288.867624 
L 867.306218 -300.24279 
L 863.842769 -298.700438 
L 860.379321 -306.635355 
L 856.915873 -296.172258 
L 853.452425 -306.093776 
L 849.988976 -298.301052 
L 846.525528 -298.208747 
L 843.06208 -298.208747 
L 839.598631 -306.210244 
L 836.135183 -288.867624 
L 832.671735 -288.867624 
L 829.208287 -304.005835 
L 825.744838 -306.144752 
L 822.28139 -288.867624 
L 818.817942 -295.854489 
L 815.354494 -303.926098 
L 811.891045 -288.867624 
L 808.427597 -288.867624 
L 804.964149 -300.691816 
L 801.5007 -298.075317 
L 798.037252 -309.36676 
L 794.573804 -309.089935 
L 791.110356 -304.460318 
L 787.646907 -311.725412 
L 784.183459 -309.089913 
L 780.720011 -305.060438 
L 777.256563 -295.7108 
L 773.793114 -308.631829 
L 770.329666 -297.989556 
L 766.866218 -303.694543 
L 763.402769 -305.060438 
L 759.939321 -305.060438 
L 756.475873 -313.99563 
L 753.012425 -305.528939 
L 749.548976 -309.214941 
L 746.085528 -306.157751 
L 742.62208 -309.214941 
L 739.158631 -305.528939 
L 735.695183 -309.214941 
L 732.231735 -306.157751 
L 728.768287 -305.889169 
L 725.304838 -309.214941 
L 721.84139 -305.462042 
L 718.377942 -302.006078 
L 714.914494 -306.245255 
L 711.451045 -311.745839 
L 707.987597 -309.14458 
L 704.524149 -306.194619 
L 701.0607 -311.399151 
L 697.597252 -305.987906 
L 694.133804 -311.607992 
L 690.670356 -300.468367 
L 687.206907 -301.311275 
L 683.743459 -309.077412 
L 680.280011 -305.704015 
L 676.816563 -311.399151 
L 673.353114 -311.241557 
L 669.889666 -308.992852 
L 666.426218 -308.798028 
L 662.962769 -308.850408 
L 659.499321 -308.798028 
L 656.035873 -306.412269 
L 652.572425 -312.882533 
L 649.108976 -316.796898 
L 645.645528 -315.064342 
L 642.18208 -311.388303 
L 638.718631 -313.939627 
L 635.255183 -298.920534 
L 631.791735 -308.526276 
L 628.328287 -310.569536 
L 624.864838 -312.562907 
L 621.40139 -311.62697 
L 617.937942 -313.59928 
L 614.474494 -314.359054 
L 611.011045 -310.640713 
L 607.547597 -311.352907 
L 604.084149 -305.514672 
L 600.6207 -308.388679 
L 597.157252 -301.332359 
L 593.693804 -308.116972 
L 590.230356 -302.9424 
L 586.766907 -300.814965 
L 583.303459 -365.206376 
L 579.840011 -365.666792 
L 576.376563 -365.687582 
L 572.913114 -365.64435 
L 569.449666 -365.682939 
L 565.986218 -365.668582 
L 562.522769 -365.647815 
L 559.059321 -365.656964 
L 555.595873 -365.610676 
L 552.132425 -365.615612 
L 548.668976 -365.597224 
L 545.205528 -365.632257 
L 541.74208 -365.652978 
L 538.278631 -365.640953 
L 534.815183 -365.605739 
L 531.351735 -365.617537 
L 527.888287 -365.589751 
L 524.424838 -365.568939 
L 520.96139 -365.547176 
L 517.497942 -365.569075 
L 514.034494 -365.613099 
L 510.571045 -365.638961 
L 507.107597 -365.633095 
L 503.644149 -365.606871 
L 500.1807 -365.616201 
L 496.717252 -365.611015 
L 493.253804 -365.612623 
L 489.790356 -365.617017 
L 486.326907 -365.621908 
L 482.863459 -365.595752 
L 479.400011 -365.620617 
L 475.936563 -365.600779 
L 472.473114 -365.60327 
L 469.009666 -365.609589 
L 465.546218 -365.655605 
L 462.082769 -365.604131 
L 458.619321 -365.652684 
L 455.155873 -365.667744 
L 451.692425 -365.632778 
L 448.228976 -365.659931 
L 444.765528 -365.594891 
L 441.30208 -365.570592 
L 437.838631 -365.60943 
L 434.375183 -365.629766 
L 430.911735 -365.587622 
L 427.448287 -365.621387 
L 423.984838 -365.665411 
L 420.52139 -365.60977 
L 417.057942 -365.61559 
L 413.594494 -365.603769 
L 410.131045 -365.620413 
L 406.667597 -365.614367 
L 403.204149 -365.616541 
L 399.7407 -365.638825 
L 396.277252 -365.689167 
L 392.813804 -365.693809 
L 389.350356 -365.633095 
L 385.886907 -365.64007 
L 382.423459 -365.599104 
L 378.960011 -363.515941 
L 375.496563 -363.505999 
L 372.033114 -365.610087 
L 368.569666 -363.416389 
L 365.106218 -363.470468 
L 361.642769 -365.588483 
L 358.179321 -363.433396 
L 354.715873 -363.467116 
L 351.252425 -365.600462 
L 347.788976 -363.479956 
L 344.325528 -363.508581 
L 340.86208 -365.597405 
L 337.398631 -363.445648 
L 333.935183 -363.480341 
L 330.471735 -365.581983 
L 327.008287 -363.44413 
L 323.544838 -363.455386 
L 320.08139 -365.615114 
L 316.617942 -363.474069 
L 313.154494 -363.474136 
L 309.691045 -364.247181 
L 306.227597 -363.531386 
L 302.764149 -363.490193 
L 299.3007 -365.655628 
L 295.837252 -365.54978 
L 292.373804 -365.557548 
L 288.910356 -365.56955 
L 285.446907 -363.41195 
L 281.983459 -363.396279 
L 278.520011 -365.526138 
L 275.056563 -363.345394 
L 271.593114 -363.4033 
L 268.129666 -365.469636 
L 264.666218 -363.354905 
L 261.202769 -363.382964 
L 257.739321 -365.477517 
L 254.275873 -363.356966 
L 250.812425 -363.33971 
L 247.348976 -365.450546 
L 243.885528 -363.276369 
L 240.42208 -363.330674 
L 236.958631 -365.440921 
L 233.495183 -363.254153 
L 230.031735 -363.320415 
L 226.568287 -365.346872 
L 223.104838 -363.165335 
L 219.64139 -363.284997 
L 216.177942 -365.343045 
L 212.714494 -363.210876 
L 209.251045 -363.200912 
L 205.787597 -365.665819 
L 202.324149 -365.629857 
L 198.8607 -365.576956 
L 195.397252 -365.597926 
L 191.933804 -365.644531 
L 188.470356 -365.647385 
L 185.006907 -365.666068 
L 181.543459 -365.558092 
L 178.080011 -365.68466 
L 174.616563 -365.598515 
L 171.153114 -365.610721 
L 167.689666 -365.619485 
L 164.226218 -365.635088 
L 160.762769 -365.662377 
L 157.299321 -365.596092 
L 153.835873 -365.610993 
L 150.372425 -365.59856 
L 146.908976 -365.614797 
L 143.445528 -365.64589 
L 139.98208 -365.603112 
L 136.518631 -365.660655 
L 133.055183 -365.651778 
L 129.591735 -365.601776 
L 126.128287 -365.640093 
L 122.664838 -365.644645 
L 119.20139 -365.655152 
L 115.737942 -365.593578 
L 112.274494 -365.621772 
L 108.811045 -365.589887 
L 105.347597 -365.556416 
L 101.884149 -365.58966 
L 98.4207 -365.58649 
L 94.957252 -365.657326 
L 91.493804 -365.118963 
L 88.030356 -365.63579 
L 84.566907 -365.162013 
L 81.103459 -365.614276 
L 77.640011 -365.208641 
L 74.176563 -363.480953 
z
" id="m4516399905" style="stroke:#0091b5;stroke-opacity:0.15;"/>
    </defs>
    <g clip-path="url(#pfaaa7de7a5)">
     <use style="fill:#0091b5;fill-opacity:0.15;stroke:#0091b5;stroke-opacity:0.15;" x="0" xlink:href="#m4516399905" y="446.394994"/>
    </g>
   </g>
   <g id="matplotlib.axis_1">
    <g id="xtick_1">
     <g id="line2d_1">
      <defs>
       <path d="M 0 0 
L 0 3.5 
" id="m343f971f26" style="stroke:#000000;stroke-width:0.8;"/>
      </defs>
      <g>
       <use style="stroke:#000000;stroke-width:0.8;" x="74.176563" xlink:href="#m343f971f26" y="377.178587"/>
      </g>
     </g>
     <g id="text_1">
      <!-- 1 -->
      <g transform="translate(67.225391 402.073119)scale(0.25 -0.25)">
       <defs>
        <path d="M 37.25 0 
L 28.46875 0 
L 28.46875 56 
Q 25.296875 52.984375 20.140625 49.953125 
Q 14.984375 46.921875 10.890625 45.40625 
L 10.890625 53.90625 
Q 18.265625 57.375 23.78125 62.296875 
Q 29.296875 67.234375 31.59375 71.875 
L 37.25 71.875 
z
" id="ArialMT-49"/>
       </defs>
       <use xlink:href="#ArialMT-49"/>
      </g>
     </g>
    </g>
    <g id="xtick_2">
     <g id="line2d_2">
      <g>
       <use style="stroke:#000000;stroke-width:0.8;" x="185.776563" xlink:href="#m343f971f26" y="377.178587"/>
      </g>
     </g>
     <g id="text_2">
      <!-- 33 -->
      <g transform="translate(171.874219 402.073119)scale(0.25 -0.25)">
       <defs>
        <path d="M 4.203125 18.890625 
L 12.984375 20.0625 
Q 14.5 12.59375 18.140625 9.296875 
Q 21.78125 6 27 6 
Q 33.203125 6 37.46875 10.296875 
Q 41.75 14.59375 41.75 20.953125 
Q 41.75 27 37.796875 30.921875 
Q 33.84375 34.859375 27.734375 34.859375 
Q 25.25 34.859375 21.53125 33.890625 
L 22.515625 41.609375 
Q 23.390625 41.5 23.921875 41.5 
Q 29.546875 41.5 34.03125 44.421875 
Q 38.53125 47.359375 38.53125 53.46875 
Q 38.53125 58.296875 35.25 61.46875 
Q 31.984375 64.65625 26.8125 64.65625 
Q 21.6875 64.65625 18.265625 61.421875 
Q 14.84375 58.203125 13.875 51.765625 
L 5.078125 53.328125 
Q 6.6875 62.15625 12.390625 67.015625 
Q 18.109375 71.875 26.609375 71.875 
Q 32.46875 71.875 37.390625 69.359375 
Q 42.328125 66.84375 44.9375 62.5 
Q 47.5625 58.15625 47.5625 53.265625 
Q 47.5625 48.640625 45.0625 44.828125 
Q 42.578125 41.015625 37.703125 38.765625 
Q 44.046875 37.3125 47.5625 32.6875 
Q 51.078125 28.078125 51.078125 21.140625 
Q 51.078125 11.765625 44.234375 5.25 
Q 37.40625 -1.265625 26.953125 -1.265625 
Q 17.53125 -1.265625 11.296875 4.34375 
Q 5.078125 9.96875 4.203125 18.890625 
z
" id="ArialMT-51"/>
       </defs>
       <use xlink:href="#ArialMT-51"/>
       <use x="55.615234" xlink:href="#ArialMT-51"/>
      </g>
     </g>
    </g>
    <g id="xtick_3">
     <g id="line2d_3">
      <g>
       <use style="stroke:#000000;stroke-width:0.8;" x="297.376563" xlink:href="#m343f971f26" y="377.178587"/>
      </g>
     </g>
     <g id="text_3">
      <!-- 65 -->
      <g transform="translate(283.474219 402.073119)scale(0.25 -0.25)">
       <defs>
        <path d="M 49.75 54.046875 
L 41.015625 53.375 
Q 39.84375 58.546875 37.703125 60.890625 
Q 34.125 64.65625 28.90625 64.65625 
Q 24.703125 64.65625 21.53125 62.3125 
Q 17.390625 59.28125 14.984375 53.46875 
Q 12.59375 47.65625 12.5 36.921875 
Q 15.671875 41.75 20.265625 44.09375 
Q 24.859375 46.4375 29.890625 46.4375 
Q 38.671875 46.4375 44.84375 39.96875 
Q 51.03125 33.5 51.03125 23.25 
Q 51.03125 16.5 48.125 10.71875 
Q 45.21875 4.9375 40.140625 1.859375 
Q 35.0625 -1.21875 28.609375 -1.21875 
Q 17.625 -1.21875 10.6875 6.859375 
Q 3.765625 14.9375 3.765625 33.5 
Q 3.765625 54.25 11.421875 63.671875 
Q 18.109375 71.875 29.4375 71.875 
Q 37.890625 71.875 43.28125 67.140625 
Q 48.6875 62.40625 49.75 54.046875 
z
M 13.875 23.1875 
Q 13.875 18.65625 15.796875 14.5 
Q 17.71875 10.359375 21.1875 8.171875 
Q 24.65625 6 28.46875 6 
Q 34.03125 6 38.03125 10.484375 
Q 42.046875 14.984375 42.046875 22.703125 
Q 42.046875 30.125 38.078125 34.390625 
Q 34.125 38.671875 28.125 38.671875 
Q 22.171875 38.671875 18.015625 34.390625 
Q 13.875 30.125 13.875 23.1875 
z
" id="ArialMT-54"/>
        <path d="M 4.15625 18.75 
L 13.375 19.53125 
Q 14.40625 12.796875 18.140625 9.390625 
Q 21.875 6 27.15625 6 
Q 33.5 6 37.890625 10.78125 
Q 42.28125 15.578125 42.28125 23.484375 
Q 42.28125 31 38.0625 35.34375 
Q 33.84375 39.703125 27 39.703125 
Q 22.75 39.703125 19.328125 37.765625 
Q 15.921875 35.84375 13.96875 32.765625 
L 5.71875 33.84375 
L 12.640625 70.609375 
L 48.25 70.609375 
L 48.25 62.203125 
L 19.671875 62.203125 
L 15.828125 42.96875 
Q 22.265625 47.46875 29.34375 47.46875 
Q 38.71875 47.46875 45.15625 40.96875 
Q 51.609375 34.46875 51.609375 24.265625 
Q 51.609375 14.546875 45.953125 7.46875 
Q 39.0625 -1.21875 27.15625 -1.21875 
Q 17.390625 -1.21875 11.203125 4.25 
Q 5.03125 9.71875 4.15625 18.75 
z
" id="ArialMT-53"/>
       </defs>
       <use xlink:href="#ArialMT-54"/>
       <use x="55.615234" xlink:href="#ArialMT-53"/>
      </g>
     </g>
    </g>
    <g id="xtick_4">
     <g id="line2d_4">
      <g>
       <use style="stroke:#000000;stroke-width:0.8;" x="408.976562" xlink:href="#m343f971f26" y="377.178587"/>
      </g>
     </g>
     <g id="text_4">
      <!-- 97 -->
      <g transform="translate(395.074219 402.073119)scale(0.25 -0.25)">
       <defs>
        <path d="M 5.46875 16.546875 
L 13.921875 17.328125 
Q 14.984375 11.375 18.015625 8.6875 
Q 21.046875 6 25.78125 6 
Q 29.828125 6 32.875 7.859375 
Q 35.9375 9.71875 37.890625 12.8125 
Q 39.84375 15.921875 41.15625 21.1875 
Q 42.484375 26.46875 42.484375 31.9375 
Q 42.484375 32.515625 42.4375 33.6875 
Q 39.796875 29.5 35.234375 26.875 
Q 30.671875 24.265625 25.34375 24.265625 
Q 16.453125 24.265625 10.296875 30.703125 
Q 4.15625 37.15625 4.15625 47.703125 
Q 4.15625 58.59375 10.578125 65.234375 
Q 17 71.875 26.65625 71.875 
Q 33.640625 71.875 39.421875 68.109375 
Q 45.21875 64.359375 48.21875 57.390625 
Q 51.21875 50.4375 51.21875 37.25 
Q 51.21875 23.53125 48.234375 15.40625 
Q 45.265625 7.28125 39.375 3.03125 
Q 33.5 -1.21875 25.59375 -1.21875 
Q 17.1875 -1.21875 11.859375 3.4375 
Q 6.546875 8.109375 5.46875 16.546875 
z
M 41.453125 48.140625 
Q 41.453125 55.71875 37.421875 60.15625 
Q 33.40625 64.59375 27.734375 64.59375 
Q 21.875 64.59375 17.53125 59.8125 
Q 13.1875 55.03125 13.1875 47.40625 
Q 13.1875 40.578125 17.3125 36.296875 
Q 21.4375 32.03125 27.484375 32.03125 
Q 33.59375 32.03125 37.515625 36.296875 
Q 41.453125 40.578125 41.453125 48.140625 
z
" id="ArialMT-57"/>
        <path d="M 4.734375 62.203125 
L 4.734375 70.65625 
L 51.078125 70.65625 
L 51.078125 63.8125 
Q 44.234375 56.546875 37.515625 44.484375 
Q 30.8125 32.421875 27.15625 19.671875 
Q 24.515625 10.6875 23.78125 0 
L 14.75 0 
Q 14.890625 8.453125 18.0625 20.40625 
Q 21.234375 32.375 27.171875 43.484375 
Q 33.109375 54.59375 39.796875 62.203125 
z
" id="ArialMT-55"/>
       </defs>
       <use xlink:href="#ArialMT-57"/>
       <use x="55.615234" xlink:href="#ArialMT-55"/>
      </g>
     </g>
    </g>
    <g id="xtick_5">
     <g id="line2d_5">
      <g>
       <use style="stroke:#000000;stroke-width:0.8;" x="520.576563" xlink:href="#m343f971f26" y="377.178587"/>
      </g>
     </g>
     <g id="text_5">
      <!-- 129 -->
      <g transform="translate(499.723047 402.073119)scale(0.25 -0.25)">
       <defs>
        <path d="M 50.34375 8.453125 
L 50.34375 0 
L 3.03125 0 
Q 2.9375 3.171875 4.046875 6.109375 
Q 5.859375 10.9375 9.828125 15.625 
Q 13.8125 20.3125 21.34375 26.46875 
Q 33.015625 36.03125 37.109375 41.625 
Q 41.21875 47.21875 41.21875 52.203125 
Q 41.21875 57.421875 37.46875 61 
Q 33.734375 64.59375 27.734375 64.59375 
Q 21.390625 64.59375 17.578125 60.78125 
Q 13.765625 56.984375 13.71875 50.25 
L 4.6875 51.171875 
Q 5.609375 61.28125 11.65625 66.578125 
Q 17.71875 71.875 27.9375 71.875 
Q 38.234375 71.875 44.234375 66.15625 
Q 50.25 60.453125 50.25 52 
Q 50.25 47.703125 48.484375 43.546875 
Q 46.734375 39.40625 42.65625 34.8125 
Q 38.578125 30.21875 29.109375 22.21875 
Q 21.1875 15.578125 18.9375 13.203125 
Q 16.703125 10.84375 15.234375 8.453125 
z
" id="ArialMT-50"/>
       </defs>
       <use xlink:href="#ArialMT-49"/>
       <use x="55.615234" xlink:href="#ArialMT-50"/>
       <use x="111.230469" xlink:href="#ArialMT-57"/>
      </g>
     </g>
    </g>
    <g id="xtick_6">
     <g id="line2d_6">
      <g>
       <use style="stroke:#000000;stroke-width:0.8;" x="632.176563" xlink:href="#m343f971f26" y="377.178587"/>
      </g>
     </g>
     <g id="text_6">
      <!-- 162 -->
      <g transform="translate(611.323047 402.073119)scale(0.25 -0.25)">
       <use xlink:href="#ArialMT-49"/>
       <use x="55.615234" xlink:href="#ArialMT-54"/>
       <use x="111.230469" xlink:href="#ArialMT-50"/>
      </g>
     </g>
    </g>
    <g id="xtick_7">
     <g id="line2d_7">
      <g>
       <use style="stroke:#000000;stroke-width:0.8;" x="743.776563" xlink:href="#m343f971f26" y="377.178587"/>
      </g>
     </g>
     <g id="text_7">
      <!-- 194 -->
      <g transform="translate(722.923047 402.073119)scale(0.25 -0.25)">
       <defs>
        <path d="M 32.328125 0 
L 32.328125 17.140625 
L 1.265625 17.140625 
L 1.265625 25.203125 
L 33.9375 71.578125 
L 41.109375 71.578125 
L 41.109375 25.203125 
L 50.78125 25.203125 
L 50.78125 17.140625 
L 41.109375 17.140625 
L 41.109375 0 
z
M 32.328125 25.203125 
L 32.328125 57.46875 
L 9.90625 25.203125 
z
" id="ArialMT-52"/>
       </defs>
       <use xlink:href="#ArialMT-49"/>
       <use x="55.615234" xlink:href="#ArialMT-57"/>
       <use x="111.230469" xlink:href="#ArialMT-52"/>
      </g>
     </g>
    </g>
    <g id="xtick_8">
     <g id="line2d_8">
      <g>
       <use style="stroke:#000000;stroke-width:0.8;" x="855.376563" xlink:href="#m343f971f26" y="377.178587"/>
      </g>
     </g>
     <g id="text_8">
      <!-- 226 -->
      <g transform="translate(834.523047 402.073119)scale(0.25 -0.25)">
       <use xlink:href="#ArialMT-50"/>
       <use x="55.615234" xlink:href="#ArialMT-50"/>
       <use x="111.230469" xlink:href="#ArialMT-54"/>
      </g>
     </g>
    </g>
    <g id="xtick_9">
     <g id="line2d_9">
      <g>
       <use style="stroke:#000000;stroke-width:0.8;" x="966.976563" xlink:href="#m343f971f26" y="377.178587"/>
      </g>
     </g>
     <g id="text_9">
      <!-- 258 -->
      <g transform="translate(946.123047 402.073119)scale(0.25 -0.25)">
       <defs>
        <path d="M 17.671875 38.8125 
Q 12.203125 40.828125 9.5625 44.53125 
Q 6.9375 48.25 6.9375 53.421875 
Q 6.9375 61.234375 12.546875 66.546875 
Q 18.171875 71.875 27.484375 71.875 
Q 36.859375 71.875 42.578125 66.421875 
Q 48.296875 60.984375 48.296875 53.171875 
Q 48.296875 48.1875 45.671875 44.5 
Q 43.0625 40.828125 37.75 38.8125 
Q 44.34375 36.671875 47.78125 31.875 
Q 51.21875 27.09375 51.21875 20.453125 
Q 51.21875 11.28125 44.71875 5.03125 
Q 38.234375 -1.21875 27.640625 -1.21875 
Q 17.046875 -1.21875 10.546875 5.046875 
Q 4.046875 11.328125 4.046875 20.703125 
Q 4.046875 27.6875 7.59375 32.390625 
Q 11.140625 37.109375 17.671875 38.8125 
z
M 15.921875 53.71875 
Q 15.921875 48.640625 19.1875 45.40625 
Q 22.46875 42.1875 27.6875 42.1875 
Q 32.765625 42.1875 36.015625 45.375 
Q 39.265625 48.578125 39.265625 53.21875 
Q 39.265625 58.0625 35.90625 61.359375 
Q 32.5625 64.65625 27.59375 64.65625 
Q 22.5625 64.65625 19.234375 61.421875 
Q 15.921875 58.203125 15.921875 53.71875 
z
M 13.09375 20.65625 
Q 13.09375 16.890625 14.875 13.375 
Q 16.65625 9.859375 20.171875 7.921875 
Q 23.6875 6 27.734375 6 
Q 34.03125 6 38.125 10.046875 
Q 42.234375 14.109375 42.234375 20.359375 
Q 42.234375 26.703125 38.015625 30.859375 
Q 33.796875 35.015625 27.4375 35.015625 
Q 21.234375 35.015625 17.15625 30.90625 
Q 13.09375 26.8125 13.09375 20.65625 
z
" id="ArialMT-56"/>
       </defs>
       <use xlink:href="#ArialMT-50"/>
       <use x="55.615234" xlink:href="#ArialMT-53"/>
       <use x="111.230469" xlink:href="#ArialMT-56"/>
      </g>
     </g>
    </g>
    <g id="xtick_10">
     <g id="line2d_10">
      <g>
       <use style="stroke:#000000;stroke-width:0.8;" x="1078.576563" xlink:href="#m343f971f26" y="377.178587"/>
      </g>
     </g>
     <g id="text_10">
      <!-- 291 -->
      <g transform="translate(1057.723047 402.073119)scale(0.25 -0.25)">
       <use xlink:href="#ArialMT-50"/>
       <use x="55.615234" xlink:href="#ArialMT-57"/>
       <use x="111.230469" xlink:href="#ArialMT-49"/>
      </g>
     </g>
    </g>
    <g id="text_11">
     <!-- overall region(s) index -->
     <g transform="translate(428.81875 432.880931)scale(0.3 -0.3)">
      <defs>
       <path d="M 3.328125 25.921875 
Q 3.328125 40.328125 11.328125 47.265625 
Q 18.015625 53.03125 27.640625 53.03125 
Q 38.328125 53.03125 45.109375 46.015625 
Q 51.90625 39.015625 51.90625 26.65625 
Q 51.90625 16.65625 48.90625 10.90625 
Q 45.90625 5.171875 40.15625 2 
Q 34.421875 -1.171875 27.640625 -1.171875 
Q 16.75 -1.171875 10.03125 5.8125 
Q 3.328125 12.796875 3.328125 25.921875 
z
M 12.359375 25.921875 
Q 12.359375 15.96875 16.703125 11.015625 
Q 21.046875 6.0625 27.640625 6.0625 
Q 34.1875 6.0625 38.53125 11.03125 
Q 42.875 16.015625 42.875 26.21875 
Q 42.875 35.84375 38.5 40.796875 
Q 34.125 45.75 27.640625 45.75 
Q 21.046875 45.75 16.703125 40.8125 
Q 12.359375 35.890625 12.359375 25.921875 
z
" id="ArialMT-111"/>
       <path d="M 21 0 
L 1.265625 51.859375 
L 10.546875 51.859375 
L 21.6875 20.796875 
Q 23.484375 15.765625 25 10.359375 
Q 26.171875 14.453125 28.265625 20.21875 
L 39.796875 51.859375 
L 48.828125 51.859375 
L 29.203125 0 
z
" id="ArialMT-118"/>
       <path d="M 42.09375 16.703125 
L 51.171875 15.578125 
Q 49.03125 7.625 43.21875 3.21875 
Q 37.40625 -1.171875 28.375 -1.171875 
Q 17 -1.171875 10.328125 5.828125 
Q 3.65625 12.84375 3.65625 25.484375 
Q 3.65625 38.578125 10.390625 45.796875 
Q 17.140625 53.03125 27.875 53.03125 
Q 38.28125 53.03125 44.875 45.953125 
Q 51.46875 38.875 51.46875 26.03125 
Q 51.46875 25.25 51.421875 23.6875 
L 12.75 23.6875 
Q 13.234375 15.140625 17.578125 10.59375 
Q 21.921875 6.0625 28.421875 6.0625 
Q 33.25 6.0625 36.671875 8.59375 
Q 40.09375 11.140625 42.09375 16.703125 
z
M 13.234375 30.90625 
L 42.1875 30.90625 
Q 41.609375 37.453125 38.875 40.71875 
Q 34.671875 45.796875 27.984375 45.796875 
Q 21.921875 45.796875 17.796875 41.75 
Q 13.671875 37.703125 13.234375 30.90625 
z
" id="ArialMT-101"/>
       <path d="M 6.5 0 
L 6.5 51.859375 
L 14.40625 51.859375 
L 14.40625 44 
Q 17.4375 49.515625 20 51.265625 
Q 22.5625 53.03125 25.640625 53.03125 
Q 30.078125 53.03125 34.671875 50.203125 
L 31.640625 42.046875 
Q 28.421875 43.953125 25.203125 43.953125 
Q 22.3125 43.953125 20.015625 42.21875 
Q 17.71875 40.484375 16.75 37.40625 
Q 15.28125 32.71875 15.28125 27.15625 
L 15.28125 0 
z
" id="ArialMT-114"/>
       <path d="M 40.4375 6.390625 
Q 35.546875 2.25 31.03125 0.53125 
Q 26.515625 -1.171875 21.34375 -1.171875 
Q 12.796875 -1.171875 8.203125 3 
Q 3.609375 7.171875 3.609375 13.671875 
Q 3.609375 17.484375 5.34375 20.625 
Q 7.078125 23.78125 9.890625 25.6875 
Q 12.703125 27.59375 16.21875 28.5625 
Q 18.796875 29.25 24.03125 29.890625 
Q 34.671875 31.15625 39.703125 32.90625 
Q 39.75 34.71875 39.75 35.203125 
Q 39.75 40.578125 37.25 42.78125 
Q 33.890625 45.75 27.25 45.75 
Q 21.046875 45.75 18.09375 43.578125 
Q 15.140625 41.40625 13.71875 35.890625 
L 5.125 37.0625 
Q 6.296875 42.578125 8.984375 45.96875 
Q 11.671875 49.359375 16.75 51.1875 
Q 21.828125 53.03125 28.515625 53.03125 
Q 35.15625 53.03125 39.296875 51.46875 
Q 43.453125 49.90625 45.40625 47.53125 
Q 47.359375 45.171875 48.140625 41.546875 
Q 48.578125 39.3125 48.578125 33.453125 
L 48.578125 21.734375 
Q 48.578125 9.46875 49.140625 6.21875 
Q 49.703125 2.984375 51.375 0 
L 42.1875 0 
Q 40.828125 2.734375 40.4375 6.390625 
z
M 39.703125 26.03125 
Q 34.90625 24.078125 25.34375 22.703125 
Q 19.921875 21.921875 17.671875 20.9375 
Q 15.4375 19.96875 14.203125 18.09375 
Q 12.984375 16.21875 12.984375 13.921875 
Q 12.984375 10.40625 15.640625 8.0625 
Q 18.3125 5.71875 23.4375 5.71875 
Q 28.515625 5.71875 32.46875 7.9375 
Q 36.421875 10.15625 38.28125 14.015625 
Q 39.703125 17 39.703125 22.796875 
z
" id="ArialMT-97"/>
       <path d="M 6.390625 0 
L 6.390625 71.578125 
L 15.1875 71.578125 
L 15.1875 0 
z
" id="ArialMT-108"/>
       <path id="ArialMT-32"/>
       <path d="M 4.984375 -4.296875 
L 13.53125 -5.5625 
Q 14.0625 -9.515625 16.5 -11.328125 
Q 19.78125 -13.765625 25.4375 -13.765625 
Q 31.546875 -13.765625 34.859375 -11.328125 
Q 38.1875 -8.890625 39.359375 -4.5 
Q 40.046875 -1.8125 39.984375 6.78125 
Q 34.234375 0 25.640625 0 
Q 14.9375 0 9.078125 7.71875 
Q 3.21875 15.4375 3.21875 26.21875 
Q 3.21875 33.640625 5.90625 39.90625 
Q 8.59375 46.1875 13.6875 49.609375 
Q 18.796875 53.03125 25.6875 53.03125 
Q 34.859375 53.03125 40.828125 45.609375 
L 40.828125 51.859375 
L 48.921875 51.859375 
L 48.921875 7.03125 
Q 48.921875 -5.078125 46.453125 -10.125 
Q 44 -15.1875 38.640625 -18.109375 
Q 33.296875 -21.046875 25.484375 -21.046875 
Q 16.21875 -21.046875 10.5 -16.875 
Q 4.78125 -12.703125 4.984375 -4.296875 
z
M 12.25 26.859375 
Q 12.25 16.65625 16.296875 11.96875 
Q 20.359375 7.28125 26.46875 7.28125 
Q 32.515625 7.28125 36.609375 11.9375 
Q 40.71875 16.609375 40.71875 26.5625 
Q 40.71875 36.078125 36.5 40.90625 
Q 32.28125 45.75 26.3125 45.75 
Q 20.453125 45.75 16.34375 40.984375 
Q 12.25 36.234375 12.25 26.859375 
z
" id="ArialMT-103"/>
       <path d="M 6.640625 61.46875 
L 6.640625 71.578125 
L 15.4375 71.578125 
L 15.4375 61.46875 
z
M 6.640625 0 
L 6.640625 51.859375 
L 15.4375 51.859375 
L 15.4375 0 
z
" id="ArialMT-105"/>
       <path d="M 6.59375 0 
L 6.59375 51.859375 
L 14.5 51.859375 
L 14.5 44.484375 
Q 20.21875 53.03125 31 53.03125 
Q 35.6875 53.03125 39.625 51.34375 
Q 43.5625 49.65625 45.515625 46.921875 
Q 47.46875 44.1875 48.25 40.4375 
Q 48.734375 37.984375 48.734375 31.890625 
L 48.734375 0 
L 39.9375 0 
L 39.9375 31.546875 
Q 39.9375 36.921875 38.90625 39.578125 
Q 37.890625 42.234375 35.28125 43.8125 
Q 32.671875 45.40625 29.15625 45.40625 
Q 23.53125 45.40625 19.453125 41.84375 
Q 15.375 38.28125 15.375 28.328125 
L 15.375 0 
z
" id="ArialMT-110"/>
       <path d="M 23.390625 -21.046875 
Q 16.109375 -11.859375 11.078125 0.4375 
Q 6.0625 12.75 6.0625 25.921875 
Q 6.0625 37.546875 9.8125 48.1875 
Q 14.203125 60.546875 23.390625 72.796875 
L 29.6875 72.796875 
Q 23.78125 62.640625 21.875 58.296875 
Q 18.890625 51.5625 17.1875 44.234375 
Q 15.09375 35.109375 15.09375 25.875 
Q 15.09375 2.390625 29.6875 -21.046875 
z
" id="ArialMT-40"/>
       <path d="M 3.078125 15.484375 
L 11.765625 16.84375 
Q 12.5 11.625 15.84375 8.84375 
Q 19.1875 6.0625 25.203125 6.0625 
Q 31.25 6.0625 34.171875 8.515625 
Q 37.109375 10.984375 37.109375 14.3125 
Q 37.109375 17.28125 34.515625 19 
Q 32.71875 20.171875 25.53125 21.96875 
Q 15.875 24.421875 12.140625 26.203125 
Q 8.40625 27.984375 6.46875 31.125 
Q 4.546875 34.28125 4.546875 38.09375 
Q 4.546875 41.546875 6.125 44.5 
Q 7.71875 47.46875 10.453125 49.421875 
Q 12.5 50.921875 16.03125 51.96875 
Q 19.578125 53.03125 23.640625 53.03125 
Q 29.734375 53.03125 34.34375 51.265625 
Q 38.96875 49.515625 41.15625 46.5 
Q 43.359375 43.5 44.1875 38.484375 
L 35.59375 37.3125 
Q 35.015625 41.3125 32.203125 43.546875 
Q 29.390625 45.796875 24.265625 45.796875 
Q 18.21875 45.796875 15.625 43.796875 
Q 13.03125 41.796875 13.03125 39.109375 
Q 13.03125 37.40625 14.109375 36.03125 
Q 15.1875 34.625 17.484375 33.6875 
Q 18.796875 33.203125 25.25 31.453125 
Q 34.578125 28.953125 38.25 27.359375 
Q 41.9375 25.78125 44.03125 22.75 
Q 46.140625 19.734375 46.140625 15.234375 
Q 46.140625 10.84375 43.578125 6.953125 
Q 41.015625 3.078125 36.171875 0.953125 
Q 31.34375 -1.171875 25.25 -1.171875 
Q 15.140625 -1.171875 9.84375 3.03125 
Q 4.546875 7.234375 3.078125 15.484375 
z
" id="ArialMT-115"/>
       <path d="M 12.359375 -21.046875 
L 6.0625 -21.046875 
Q 20.65625 2.390625 20.65625 25.875 
Q 20.65625 35.0625 18.5625 44.09375 
Q 16.890625 51.421875 13.921875 58.15625 
Q 12.015625 62.546875 6.0625 72.796875 
L 12.359375 72.796875 
Q 21.53125 60.546875 25.921875 48.1875 
Q 29.6875 37.546875 29.6875 25.921875 
Q 29.6875 12.75 24.625 0.4375 
Q 19.578125 -11.859375 12.359375 -21.046875 
z
" id="ArialMT-41"/>
       <path d="M 40.234375 0 
L 40.234375 6.546875 
Q 35.296875 -1.171875 25.734375 -1.171875 
Q 19.53125 -1.171875 14.328125 2.25 
Q 9.125 5.671875 6.265625 11.796875 
Q 3.421875 17.921875 3.421875 25.875 
Q 3.421875 33.640625 6 39.96875 
Q 8.59375 46.296875 13.765625 49.65625 
Q 18.953125 53.03125 25.34375 53.03125 
Q 30.03125 53.03125 33.6875 51.046875 
Q 37.359375 49.078125 39.65625 45.90625 
L 39.65625 71.578125 
L 48.390625 71.578125 
L 48.390625 0 
z
M 12.453125 25.875 
Q 12.453125 15.921875 16.640625 10.984375 
Q 20.84375 6.0625 26.5625 6.0625 
Q 32.328125 6.0625 36.34375 10.765625 
Q 40.375 15.484375 40.375 25.140625 
Q 40.375 35.796875 36.265625 40.765625 
Q 32.171875 45.75 26.171875 45.75 
Q 20.3125 45.75 16.375 40.96875 
Q 12.453125 36.1875 12.453125 25.875 
z
" id="ArialMT-100"/>
       <path d="M 0.734375 0 
L 19.671875 26.953125 
L 2.15625 51.859375 
L 13.140625 51.859375 
L 21.09375 39.703125 
Q 23.34375 36.234375 24.703125 33.890625 
Q 26.859375 37.109375 28.65625 39.59375 
L 37.40625 51.859375 
L 47.90625 51.859375 
L 29.984375 27.4375 
L 49.265625 0 
L 38.484375 0 
L 27.828125 16.109375 
L 25 20.453125 
L 11.375 0 
z
" id="ArialMT-120"/>
      </defs>
      <use xlink:href="#ArialMT-111"/>
      <use x="55.615234" xlink:href="#ArialMT-118"/>
      <use x="105.615234" xlink:href="#ArialMT-101"/>
      <use x="161.230469" xlink:href="#ArialMT-114"/>
      <use x="194.53125" xlink:href="#ArialMT-97"/>
      <use x="250.146484" xlink:href="#ArialMT-108"/>
      <use x="272.363281" xlink:href="#ArialMT-108"/>
      <use x="294.580078" xlink:href="#ArialMT-32"/>
      <use x="322.363281" xlink:href="#ArialMT-114"/>
      <use x="355.664062" xlink:href="#ArialMT-101"/>
      <use x="411.279297" xlink:href="#ArialMT-103"/>
      <use x="466.894531" xlink:href="#ArialMT-105"/>
      <use x="489.111328" xlink:href="#ArialMT-111"/>
      <use x="544.726562" xlink:href="#ArialMT-110"/>
      <use x="600.341797" xlink:href="#ArialMT-40"/>
      <use x="633.642578" xlink:href="#ArialMT-115"/>
      <use x="683.642578" xlink:href="#ArialMT-41"/>
      <use x="716.943359" xlink:href="#ArialMT-32"/>
      <use x="744.726562" xlink:href="#ArialMT-105"/>
      <use x="766.943359" xlink:href="#ArialMT-110"/>
      <use x="822.558594" xlink:href="#ArialMT-100"/>
      <use x="878.173828" xlink:href="#ArialMT-101"/>
      <use x="933.789062" xlink:href="#ArialMT-120"/>
     </g>
    </g>
   </g>
   <g id="matplotlib.axis_2">
    <g id="ytick_1">
     <g id="line2d_11">
      <defs>
       <path d="M 0 0 
L -3.5 0 
" id="m34534b3e14" style="stroke:#000000;stroke-width:0.8;"/>
      </defs>
      <g>
       <use style="stroke:#000000;stroke-width:0.8;" x="74.176563" xlink:href="#m34534b3e14" y="377.178587"/>
      </g>
     </g>
     <g id="text_12">
      <!-- 0 -->
      <g transform="translate(53.274219 386.125853)scale(0.25 -0.25)">
       <defs>
        <path d="M 4.15625 35.296875 
Q 4.15625 48 6.765625 55.734375 
Q 9.375 63.484375 14.515625 67.671875 
Q 19.671875 71.875 27.484375 71.875 
Q 33.25 71.875 37.59375 69.546875 
Q 41.9375 67.234375 44.765625 62.859375 
Q 47.609375 58.5 49.21875 52.21875 
Q 50.828125 45.953125 50.828125 35.296875 
Q 50.828125 22.703125 48.234375 14.96875 
Q 45.65625 7.234375 40.5 3 
Q 35.359375 -1.21875 27.484375 -1.21875 
Q 17.140625 -1.21875 11.234375 6.203125 
Q 4.15625 15.140625 4.15625 35.296875 
z
M 13.1875 35.296875 
Q 13.1875 17.671875 17.3125 11.828125 
Q 21.4375 6 27.484375 6 
Q 33.546875 6 37.671875 11.859375 
Q 41.796875 17.71875 41.796875 35.296875 
Q 41.796875 52.984375 37.671875 58.78125 
Q 33.546875 64.59375 27.390625 64.59375 
Q 21.34375 64.59375 17.71875 59.46875 
Q 13.1875 52.9375 13.1875 35.296875 
z
" id="ArialMT-48"/>
       </defs>
       <use xlink:href="#ArialMT-48"/>
      </g>
     </g>
    </g>
    <g id="ytick_2">
     <g id="line2d_12">
      <g>
       <use style="stroke:#000000;stroke-width:0.8;" x="74.176563" xlink:href="#m34534b3e14" y="317.813393"/>
      </g>
     </g>
     <g id="text_13">
      <!-- 10 -->
      <g transform="translate(39.371875 326.760659)scale(0.25 -0.25)">
       <use xlink:href="#ArialMT-49"/>
       <use x="55.615234" xlink:href="#ArialMT-48"/>
      </g>
     </g>
    </g>
    <g id="ytick_3">
     <g id="line2d_13">
      <g>
       <use style="stroke:#000000;stroke-width:0.8;" x="74.176563" xlink:href="#m34534b3e14" y="258.448199"/>
      </g>
     </g>
     <g id="text_14">
      <!-- 20 -->
      <g transform="translate(39.371875 267.395465)scale(0.25 -0.25)">
       <use xlink:href="#ArialMT-50"/>
       <use x="55.615234" xlink:href="#ArialMT-48"/>
      </g>
     </g>
    </g>
    <g id="ytick_4">
     <g id="line2d_14">
      <g>
       <use style="stroke:#000000;stroke-width:0.8;" x="74.176563" xlink:href="#m34534b3e14" y="199.083005"/>
      </g>
     </g>
     <g id="text_15">
      <!-- 30 -->
      <g transform="translate(39.371875 208.030271)scale(0.25 -0.25)">
       <use xlink:href="#ArialMT-51"/>
       <use x="55.615234" xlink:href="#ArialMT-48"/>
      </g>
     </g>
    </g>
    <g id="ytick_5">
     <g id="line2d_15">
      <g>
       <use style="stroke:#000000;stroke-width:0.8;" x="74.176563" xlink:href="#m34534b3e14" y="139.717811"/>
      </g>
     </g>
     <g id="text_16">
      <!-- 40 -->
      <g transform="translate(39.371875 148.665077)scale(0.25 -0.25)">
       <use xlink:href="#ArialMT-52"/>
       <use x="55.615234" xlink:href="#ArialMT-48"/>
      </g>
     </g>
    </g>
    <g id="ytick_6">
     <g id="line2d_16">
      <g>
       <use style="stroke:#000000;stroke-width:0.8;" x="74.176563" xlink:href="#m34534b3e14" y="80.352617"/>
      </g>
     </g>
     <g id="text_17">
      <!-- 50 -->
      <g transform="translate(39.371875 89.299883)scale(0.25 -0.25)">
       <use xlink:href="#ArialMT-53"/>
       <use x="55.615234" xlink:href="#ArialMT-48"/>
      </g>
     </g>
    </g>
    <g id="text_18">
     <!-- Q, average log score -->
     <g transform="translate(29.057813 353.329056)rotate(-90)scale(0.3 -0.3)">
      <defs>
       <path d="M 61.96875 7.671875 
Q 68.5625 3.125 74.125 1.03125 
L 71.34375 -5.5625 
Q 63.625 -2.78125 55.953125 3.21875 
Q 48 -1.21875 38.375 -1.21875 
Q 28.65625 -1.21875 20.75 3.46875 
Q 12.84375 8.15625 8.5625 16.640625 
Q 4.296875 25.140625 4.296875 35.796875 
Q 4.296875 46.390625 8.59375 55.078125 
Q 12.890625 63.765625 20.828125 68.3125 
Q 28.765625 72.859375 38.578125 72.859375 
Q 48.484375 72.859375 56.4375 68.140625 
Q 64.40625 63.421875 68.578125 54.953125 
Q 72.75 46.484375 72.75 35.84375 
Q 72.75 27 70.0625 19.9375 
Q 67.390625 12.890625 61.96875 7.671875 
z
M 41.109375 19.78125 
Q 49.3125 17.484375 54.640625 12.9375 
Q 62.984375 20.5625 62.984375 35.84375 
Q 62.984375 44.53125 60.03125 51.015625 
Q 57.078125 57.515625 51.390625 61.109375 
Q 45.703125 64.703125 38.625 64.703125 
Q 28.03125 64.703125 21.046875 57.453125 
Q 14.0625 50.203125 14.0625 35.796875 
Q 14.0625 21.828125 20.96875 14.359375 
Q 27.875 6.890625 38.625 6.890625 
Q 43.703125 6.890625 48.1875 8.796875 
Q 43.75 11.671875 38.8125 12.890625 
z
" id="ArialMT-81"/>
       <path d="M 8.890625 0 
L 8.890625 10.015625 
L 18.890625 10.015625 
L 18.890625 0 
Q 18.890625 -5.515625 16.9375 -8.90625 
Q 14.984375 -12.3125 10.75 -14.15625 
L 8.296875 -10.40625 
Q 11.078125 -9.1875 12.390625 -6.8125 
Q 13.71875 -4.4375 13.875 0 
z
" id="ArialMT-44"/>
       <path d="M 40.4375 19 
L 49.078125 17.875 
Q 47.65625 8.9375 41.8125 3.875 
Q 35.984375 -1.171875 27.484375 -1.171875 
Q 16.84375 -1.171875 10.375 5.78125 
Q 3.90625 12.75 3.90625 25.734375 
Q 3.90625 34.125 6.6875 40.421875 
Q 9.46875 46.734375 15.15625 49.875 
Q 20.84375 53.03125 27.546875 53.03125 
Q 35.984375 53.03125 41.359375 48.75 
Q 46.734375 44.484375 48.25 36.625 
L 39.703125 35.296875 
Q 38.484375 40.53125 35.375 43.15625 
Q 32.28125 45.796875 27.875 45.796875 
Q 21.234375 45.796875 17.078125 41.03125 
Q 12.9375 36.28125 12.9375 25.984375 
Q 12.9375 15.53125 16.9375 10.796875 
Q 20.953125 6.0625 27.390625 6.0625 
Q 32.5625 6.0625 36.03125 9.234375 
Q 39.5 12.40625 40.4375 19 
z
" id="ArialMT-99"/>
      </defs>
      <use xlink:href="#ArialMT-81"/>
      <use x="77.783203" xlink:href="#ArialMT-44"/>
      <use x="105.566406" xlink:href="#ArialMT-32"/>
      <use x="133.349609" xlink:href="#ArialMT-97"/>
      <use x="188.964844" xlink:href="#ArialMT-118"/>
      <use x="238.964844" xlink:href="#ArialMT-101"/>
      <use x="294.580078" xlink:href="#ArialMT-114"/>
      <use x="327.880859" xlink:href="#ArialMT-97"/>
      <use x="383.496094" xlink:href="#ArialMT-103"/>
      <use x="439.111328" xlink:href="#ArialMT-101"/>
      <use x="494.726562" xlink:href="#ArialMT-32"/>
      <use x="522.509766" xlink:href="#ArialMT-108"/>
      <use x="544.726562" xlink:href="#ArialMT-111"/>
      <use x="600.341797" xlink:href="#ArialMT-103"/>
      <use x="655.957031" xlink:href="#ArialMT-32"/>
      <use x="683.740234" xlink:href="#ArialMT-115"/>
      <use x="733.740234" xlink:href="#ArialMT-99"/>
      <use x="783.740234" xlink:href="#ArialMT-111"/>
      <use x="839.355469" xlink:href="#ArialMT-114"/>
      <use x="872.65625" xlink:href="#ArialMT-101"/>
     </g>
    </g>
   </g>
   <g id="line2d_17">
    <path clip-path="url(#pfaaa7de7a5)" d="M 74.176563 122.930132 
L 77.640011 121.004495 
L 81.103459 120.59347 
L 84.566907 121.053682 
L 88.030356 120.52646 
L 91.493804 121.105293 
L 94.957252 120.543694 
L 105.347597 120.463686 
L 108.811045 120.508593 
L 115.737942 120.368889 
L 129.591735 120.318592 
L 133.055183 120.554745 
L 139.98208 120.305005 
L 143.445528 120.370565 
L 150.372425 120.268884 
L 167.689666 120.585431 
L 171.153114 120.331999 
L 174.616563 120.326994 
L 181.543459 120.649519 
L 188.470356 120.396563 
L 198.8607 120.491518 
L 202.324149 120.379171 
L 205.787597 120.447743 
L 209.251045 123.581862 
L 212.714494 123.543998 
L 216.177942 120.871676 
L 219.64139 123.456063 
L 223.104838 123.610305 
L 226.568287 120.865788 
L 230.031735 123.401101 
L 233.495183 123.485367 
L 236.958631 120.768795 
L 240.42208 123.394964 
L 243.885528 123.449156 
L 247.348976 120.759148 
L 250.812425 123.384683 
L 254.275873 123.334703 
L 257.739321 120.731407 
L 261.202769 123.317651 
L 264.666218 123.340297 
L 268.129666 120.739446 
L 271.593114 123.28572 
L 275.056563 123.356262 
L 278.520011 120.680997 
L 281.983459 123.297111 
L 285.446907 123.257503 
L 288.910356 120.519734 
L 295.837252 120.490363 
L 299.3007 120.471612 
L 302.764149 123.163001 
L 306.227597 123.085167 
L 309.691045 122.146421 
L 313.154494 123.200163 
L 316.617942 123.174347 
L 320.08139 120.590707 
L 323.544838 123.217646 
L 327.008287 123.220545 
L 330.471735 120.624336 
L 333.935183 123.183405 
L 337.398631 123.216468 
L 340.86208 120.583981 
L 344.325528 123.147489 
L 347.788976 123.169727 
L 351.252425 120.605178 
L 354.715873 123.196132 
L 358.179321 123.229852 
L 361.642769 120.617271 
L 365.106218 123.183133 
L 368.569666 123.246089 
L 372.033114 120.560973 
L 375.496563 123.133833 
L 378.960011 123.112863 
L 382.423459 120.355891 
L 396.277252 120.387935 
L 403.204149 120.325069 
L 406.667597 120.545506 
L 410.131045 120.382137 
L 420.52139 120.307473 
L 423.984838 120.388908 
L 430.911735 120.340536 
L 437.838631 120.364292 
L 441.30208 120.260438 
L 458.619321 120.345405 
L 462.082769 120.320359 
L 465.546218 120.407071 
L 472.473114 120.318208 
L 475.936563 120.399235 
L 482.863459 120.313407 
L 489.790356 120.317845 
L 514.034494 120.335351 
L 517.497942 120.224611 
L 527.888287 120.391196 
L 531.351735 120.282042 
L 541.74208 120.403085 
L 548.668976 120.282019 
L 565.986218 120.361665 
L 569.449666 120.525102 
L 572.913114 120.35469 
L 579.840011 120.540591 
L 583.303459 120.924555 
L 586.766907 159.405585 
L 590.230356 160.145748 
L 593.693804 165.00298 
L 597.157252 161.598128 
L 600.6207 165.442721 
L 604.084149 163.231088 
L 607.547597 170.564436 
L 611.011045 165.638654 
L 614.474494 171.63394 
L 617.937942 169.400408 
L 621.40139 169.988186 
L 624.864838 166.461543 
L 628.328287 166.343987 
L 631.791735 165.682588 
L 635.255183 159.686102 
L 638.718631 168.920697 
L 642.18208 165.838506 
L 645.645528 172.566549 
L 649.108976 168.608862 
L 652.572425 169.400408 
L 656.035873 165.757546 
L 659.499321 168.321031 
L 662.962769 162.654361 
L 666.426218 168.321031 
L 669.889666 163.463889 
L 673.353114 167.646428 
L 676.816563 166.836901 
L 680.280011 162.519436 
L 683.743459 164.273416 
L 687.206907 161.575006 
L 690.670356 160.765479 
L 694.133804 165.217869 
L 697.597252 163.328964 
L 701.0607 166.836901 
L 704.524149 164.138491 
L 707.987597 164.350956 
L 711.451045 163.668586 
L 714.914494 164.214491 
L 718.377942 162.440356 
L 721.84139 161.807196 
L 725.304838 163.67341 
L 728.768287 162.695622 
L 732.231735 163.533729 
L 735.695183 163.67341 
L 739.158631 161.857538 
L 742.62208 163.67341 
L 746.085528 163.533729 
L 749.548976 163.67341 
L 753.012425 161.857538 
L 756.475873 166.467069 
L 759.939321 161.019432 
L 763.402769 161.019432 
L 766.866218 159.343241 
L 770.329666 159.20356 
L 773.793114 161.159112 
L 777.256563 158.365476 
L 780.720011 161.019432 
L 784.183459 162.835326 
L 787.646907 166.327388 
L 791.110356 160.181347 
L 794.573804 162.835326 
L 798.037252 163.821515 
L 801.5007 159.243961 
L 804.964149 160.960529 
L 808.427597 157.527369 
L 811.891045 157.527369 
L 815.354494 159.409684 
L 818.817942 158.40685 
L 822.28139 157.527369 
L 825.744838 162.950866 
L 829.208287 159.432919 
L 832.671735 157.527369 
L 836.135183 157.527369 
L 839.598631 163.018645 
L 843.06208 159.308321 
L 849.988976 159.353998 
L 853.452425 162.307424 
L 856.915873 158.503232 
L 860.379321 162.785436 
L 863.842769 159.562749 
L 867.306218 160.580438 
L 870.769666 157.527369 
L 874.233114 158.545059 
L 881.160011 158.559802 
L 884.623459 159.764321 
L 888.086907 159.686102 
L 891.550356 158.640467 
L 895.013804 158.658131 
L 898.477252 162.198723 
L 901.9407 157.527369 
L 905.404149 161.03089 
L 908.867597 157.527369 
L 912.331045 159.863058 
L 919.257942 157.527369 
L 922.72139 161.485056 
L 926.184838 161.276758 
L 929.648287 157.527369 
L 933.111735 160.215611 
L 936.575183 157.527369 
L 940.038631 163.342732 
L 943.50208 158.981221 
L 946.965528 158.981221 
L 950.428976 157.527369 
L 960.819321 157.527369 
L 964.282769 159.043068 
L 967.746218 157.527369 
L 971.209666 159.264886 
L 974.673114 159.402052 
L 978.136563 157.527369 
L 985.063459 157.527369 
L 988.526907 165.306256 
L 991.990356 157.527369 
L 995.453804 159.983851 
L 998.917252 157.527369 
L 1009.307597 157.527369 
L 1012.771045 162.27658 
L 1016.234494 157.527369 
L 1026.624838 157.527369 
L 1030.088287 162.615818 
L 1033.551735 157.527369 
L 1050.868976 157.527369 
L 1050.868976 157.527369 
" style="fill:none;stroke:#3b61b1;stroke-linecap:square;stroke-width:4;"/>
   </g>
   <g id="line2d_18">
    <path clip-path="url(#pfaaa7de7a5)" d="M 74.176563 82.914041 
L 77.640011 81.186353 
L 81.103459 80.780717 
L 84.566907 81.232981 
L 88.030356 80.759204 
L 91.493804 81.276031 
L 94.957252 80.737667 
L 101.884149 80.805334 
L 108.811045 80.805107 
L 126.128287 80.754901 
L 133.055183 80.743216 
L 153.835873 80.784001 
L 174.616563 80.796479 
L 178.080011 80.710334 
L 181.543459 80.836902 
L 185.006907 80.728926 
L 202.324149 80.765137 
L 205.787597 80.729175 
L 209.251045 83.194082 
L 212.714494 83.184117 
L 216.177942 81.051949 
L 219.64139 83.109997 
L 223.104838 83.229658 
L 226.568287 81.048122 
L 230.031735 83.074578 
L 233.495183 83.140841 
L 236.958631 80.954073 
L 240.42208 83.06432 
L 243.885528 83.118625 
L 247.348976 80.944448 
L 250.812425 83.055284 
L 254.275873 83.038028 
L 257.739321 80.917477 
L 261.202769 83.01203 
L 264.666218 83.040089 
L 268.129666 80.925358 
L 271.593114 82.991694 
L 275.056563 83.0496 
L 278.520011 80.868856 
L 281.983459 82.998714 
L 285.446907 82.983043 
L 288.910356 80.825443 
L 295.837252 80.845213 
L 299.3007 80.739366 
L 302.764149 82.904801 
L 306.227597 82.863608 
L 309.691045 82.147813 
L 313.154494 82.920857 
L 316.617942 82.920925 
L 320.08139 80.779879 
L 323.544838 82.939608 
L 327.008287 82.950863 
L 330.471735 80.813011 
L 333.935183 82.914652 
L 337.398631 82.949346 
L 340.86208 80.797589 
L 344.325528 82.886413 
L 347.788976 82.915037 
L 351.252425 80.794531 
L 354.715873 82.927878 
L 358.179321 82.961597 
L 361.642769 80.806511 
L 365.106218 82.924526 
L 368.569666 82.978605 
L 372.033114 80.784907 
L 375.496563 82.888994 
L 378.960011 82.879053 
L 382.423459 80.79589 
L 396.277252 80.705827 
L 406.667597 80.780627 
L 465.546218 80.739388 
L 475.936563 80.794214 
L 496.717252 80.783978 
L 579.840011 80.728201 
L 583.303459 81.188618 
L 586.766907 145.580029 
L 590.230356 143.452593 
L 593.693804 138.278022 
L 597.157252 145.062635 
L 600.6207 138.006315 
L 604.084149 140.880322 
L 607.547597 135.042086 
L 611.011045 135.754281 
L 614.474494 132.03594 
L 617.937942 132.795714 
L 621.40139 134.768024 
L 624.864838 133.832087 
L 631.791735 137.868718 
L 635.255183 147.474459 
L 638.718631 132.455367 
L 642.18208 135.006691 
L 645.645528 131.330652 
L 649.108976 129.598095 
L 652.572425 133.512461 
L 656.035873 139.982724 
L 659.499321 137.596966 
L 669.889666 137.402142 
L 673.353114 135.153437 
L 676.816563 134.995843 
L 680.280011 140.690979 
L 683.743459 137.317582 
L 687.206907 145.083719 
L 690.670356 145.926626 
L 694.133804 134.787002 
L 697.597252 140.407088 
L 701.0607 134.995843 
L 704.524149 140.200375 
L 707.987597 137.250413 
L 711.451045 134.649155 
L 714.914494 140.149739 
L 718.377942 144.388916 
L 721.84139 140.932951 
L 725.304838 137.180052 
L 728.768287 140.505825 
L 732.231735 140.237243 
L 735.695183 137.180052 
L 739.158631 140.866055 
L 742.62208 137.180052 
L 746.085528 140.237243 
L 749.548976 137.180052 
L 753.012425 140.866055 
L 756.475873 132.399363 
L 759.939321 141.334556 
L 763.402769 141.334556 
L 766.866218 142.700451 
L 770.329666 148.405437 
L 773.793114 137.763165 
L 777.256563 150.684194 
L 780.720011 141.334556 
L 784.183459 137.305081 
L 787.646907 134.669582 
L 791.110356 141.934676 
L 794.573804 137.305058 
L 798.037252 137.028233 
L 801.5007 148.319677 
L 804.964149 145.703178 
L 808.427597 157.527369 
L 811.891045 157.527369 
L 815.354494 142.468895 
L 818.817942 150.540505 
L 822.28139 157.527369 
L 825.744838 140.250242 
L 829.208287 142.389159 
L 832.671735 157.527369 
L 836.135183 157.527369 
L 839.598631 140.184749 
L 843.06208 148.186247 
L 849.988976 148.093941 
L 853.452425 140.301218 
L 856.915873 150.222736 
L 860.379321 139.759638 
L 863.842769 147.694556 
L 867.306218 146.152203 
L 870.769666 157.527369 
L 874.233114 150.091502 
L 881.160011 150.046097 
L 884.623459 141.317979 
L 888.086907 147.474459 
L 891.550356 149.805528 
L 895.013804 149.754461 
L 898.477252 144.564717 
L 901.9407 157.527369 
L 905.404149 145.626023 
L 908.867597 157.527369 
L 912.331045 147.177072 
L 915.794494 149.594829 
L 919.257942 157.527369 
L 922.72139 139.319083 
L 926.184838 145.369489 
L 929.648287 157.527369 
L 933.111735 146.640678 
L 936.575183 157.527369 
L 940.038631 143.837395 
L 943.50208 148.908723 
L 946.965528 148.9087 
L 950.428976 157.527369 
L 960.819321 157.527369 
L 964.282769 148.763041 
L 967.746218 157.527369 
L 971.209666 148.275857 
L 974.673114 147.99876 
L 978.136563 157.527369 
L 985.063459 157.527369 
L 988.526907 134.712224 
L 991.990356 157.527369 
L 995.453804 146.985328 
L 998.917252 157.527369 
L 1009.307597 157.527369 
L 1012.771045 144.50663 
L 1016.234494 157.527369 
L 1026.624838 157.527369 
L 1030.088287 144.269164 
L 1033.551735 157.527369 
L 1050.868976 157.527369 
L 1050.868976 157.527369 
" style="fill:none;stroke:#0091b5;stroke-linecap:square;"/>
   </g>
   <g id="line2d_19">
    <path clip-path="url(#pfaaa7de7a5)" d="M 74.176563 162.946223 
L 77.640011 160.822638 
L 81.103459 160.406222 
L 84.566907 160.874384 
L 88.030356 160.293717 
L 91.493804 160.934554 
L 94.957252 160.349721 
L 98.4207 160.19917 
L 101.884149 160.291067 
L 105.347597 160.088793 
L 108.811045 160.212078 
L 115.737942 159.936363 
L 119.20139 160.022893 
L 129.591735 159.843967 
L 133.055183 160.366275 
L 139.98208 159.818128 
L 143.445528 159.992027 
L 146.908976 159.782075 
L 150.372425 159.741335 
L 153.835873 159.863058 
L 157.299321 159.818309 
L 160.762769 160.181483 
L 164.226218 160.228112 
L 167.689666 160.395352 
L 171.153114 159.879725 
L 174.616563 159.857509 
L 178.080011 160.332442 
L 181.543459 160.462136 
L 188.470356 160.045517 
L 191.933804 160.111915 
L 195.397252 160.00344 
L 198.8607 160.164997 
L 202.324149 159.993204 
L 205.787597 160.166311 
L 209.251045 163.969642 
L 212.714494 163.903878 
L 216.177942 160.691404 
L 219.64139 163.80213 
L 223.104838 163.990952 
L 226.568287 160.683455 
L 230.031735 163.727624 
L 233.495183 163.829894 
L 236.958631 160.583518 
L 240.42208 163.725609 
L 243.885528 163.779688 
L 247.348976 160.573848 
L 250.812425 163.714082 
L 254.275873 163.631379 
L 257.739321 160.545337 
L 261.202769 163.623271 
L 264.666218 163.640505 
L 268.129666 160.553535 
L 271.593114 163.579746 
L 275.056563 163.662925 
L 278.520011 160.493138 
L 281.983459 163.595507 
L 285.446907 163.531963 
L 288.910356 160.214026 
L 292.373804 160.074843 
L 299.3007 160.203858 
L 302.764149 163.421201 
L 306.227597 163.306725 
L 309.691045 162.14503 
L 313.154494 163.479469 
L 316.617942 163.427768 
L 320.08139 160.401535 
L 323.544838 163.495684 
L 327.008287 163.490226 
L 330.471735 160.435662 
L 333.935183 163.452158 
L 337.398631 163.483591 
L 340.86208 160.370374 
L 344.325528 163.408564 
L 347.788976 163.424417 
L 351.252425 160.415824 
L 354.715873 163.464387 
L 358.179321 163.498107 
L 361.642769 160.428031 
L 365.106218 163.441741 
L 368.569666 163.513574 
L 372.033114 160.337039 
L 375.496563 163.378672 
L 378.960011 163.346673 
L 382.423459 159.915891 
L 385.886907 160.025701 
L 389.350356 160.003418 
L 392.813804 160.183159 
L 403.204149 159.871686 
L 406.667597 160.310385 
L 410.131045 159.989694 
L 417.057942 159.828749 
L 420.52139 159.829723 
L 423.984838 160.048234 
L 427.448287 159.899948 
L 434.375183 159.953257 
L 437.838631 159.943021 
L 441.30208 159.696473 
L 444.765528 159.798856 
L 448.228976 160.158973 
L 451.692425 159.90912 
L 455.155873 160.084309 
L 462.082769 159.849855 
L 465.546218 160.074753 
L 472.473114 159.844692 
L 475.936563 160.004256 
L 482.863459 159.827571 
L 486.326907 159.945806 
L 493.253804 159.868402 
L 500.1807 159.894898 
L 503.644149 159.799286 
L 510.571045 159.882012 
L 514.034494 159.888806 
L 517.497942 159.623304 
L 520.96139 159.724237 
L 524.424838 159.695228 
L 527.888287 159.977148 
L 531.351735 159.786627 
L 534.815183 159.928006 
L 541.74208 160.064154 
L 548.668976 159.766268 
L 565.986218 159.996918 
L 569.449666 160.338149 
L 572.913114 159.958737 
L 583.303459 160.660492 
L 586.766907 173.231142 
L 590.230356 176.838902 
L 593.693804 191.727939 
L 597.157252 178.133621 
L 600.6207 192.879138 
L 604.084149 185.581853 
L 607.547597 206.086798 
L 611.011045 195.523027 
L 614.474494 211.231952 
L 617.937942 206.005102 
L 621.40139 205.208347 
L 624.864838 199.090999 
L 628.328287 196.862529 
L 631.791735 193.496469 
L 635.255183 171.897744 
L 638.718631 205.386039 
L 642.18208 196.67032 
L 645.645528 213.802445 
L 649.108976 207.619628 
L 652.572425 205.288356 
L 656.035873 191.532379 
L 659.499321 199.045096 
L 662.962769 187.764137 
L 666.426218 199.045096 
L 669.889666 189.525636 
L 673.353114 200.139408 
L 676.816563 198.677947 
L 680.280011 184.347894 
L 683.743459 191.229262 
L 687.206907 178.066294 
L 690.670356 175.604332 
L 694.133804 195.648736 
L 697.597252 186.250839 
L 701.0607 198.677958 
L 704.524149 188.076596 
L 707.987597 191.451499 
L 711.451045 192.688017 
L 714.914494 188.279232 
L 718.377942 180.491797 
L 721.84139 182.681441 
L 725.304838 190.166778 
L 728.768287 184.88542 
L 732.231735 186.830215 
L 735.695183 190.166767 
L 739.158631 182.849021 
L 742.62208 190.166767 
L 746.085528 186.830215 
L 749.548976 190.166767 
L 753.012425 182.849021 
L 756.475873 200.534774 
L 759.939321 180.704307 
L 763.402769 180.704307 
L 766.866218 175.986031 
L 770.329666 170.001683 
L 773.793114 184.55506 
L 777.256563 166.046758 
L 780.720011 180.704307 
L 784.183459 188.365582 
L 787.646907 197.985194 
L 791.110356 178.428019 
L 794.573804 188.365582 
L 798.037252 190.614796 
L 801.5007 170.168244 
L 804.964149 176.217881 
L 808.427597 157.527369 
L 811.891045 157.527369 
L 815.354494 176.350473 
L 818.817942 166.273196 
L 822.28139 157.527369 
L 825.744838 185.65149 
L 829.208287 176.476679 
L 832.671735 157.527369 
L 836.135183 157.527369 
L 839.598631 185.852541 
L 843.06208 170.430395 
L 846.525528 170.430395 
L 849.988976 170.614054 
L 853.452425 184.31363 
L 856.915873 166.783728 
L 860.379321 185.811235 
L 863.842769 171.430941 
L 867.306218 175.008673 
L 870.769666 157.527369 
L 874.233114 166.998616 
L 881.160011 167.073506 
L 884.623459 178.210663 
L 888.086907 171.897744 
L 891.550356 167.475405 
L 895.013804 167.5618 
L 898.477252 179.83273 
L 901.9407 157.527369 
L 905.404149 176.435758 
L 908.867597 157.527369 
L 912.331045 172.549043 
L 915.794494 167.834526 
L 919.257942 157.527369 
L 922.72139 183.65103 
L 926.184838 177.184028 
L 929.648287 157.527369 
L 933.111735 173.790544 
L 936.575183 157.527369 
L 940.038631 182.84807 
L 943.50208 169.05372 
L 946.965528 169.053743 
L 950.428976 157.527369 
L 960.819321 157.527369 
L 964.282769 169.323095 
L 967.746218 157.527369 
L 971.209666 170.253914 
L 974.673114 170.805345 
L 978.136563 157.527369 
L 985.063459 157.527369 
L 988.526907 195.900288 
L 991.990356 157.527369 
L 995.453804 172.982375 
L 998.917252 157.527369 
L 1009.307597 157.527369 
L 1012.771045 180.046531 
L 1016.234494 157.527369 
L 1026.624838 157.527369 
L 1030.088287 180.962472 
L 1033.551735 157.527369 
L 1050.868976 157.527369 
L 1050.868976 157.527369 
" style="fill:none;stroke:#0091b5;stroke-linecap:square;"/>
   </g>
   <g id="patch_3">
    <path d="M 74.176563 377.178587 
L 74.176563 51.018588 
" style="fill:none;stroke:#000000;stroke-linecap:square;stroke-linejoin:miter;stroke-width:0.8;"/>
   </g>
   <g id="patch_4">
    <path d="M 1078.576563 377.178587 
L 1078.576563 51.018588 
" style="fill:none;stroke:#000000;stroke-linecap:square;stroke-linejoin:miter;stroke-width:0.8;"/>
   </g>
   <g id="patch_5">
    <path d="M 74.176563 377.178587 
L 1078.576563 377.178587 
" style="fill:none;stroke:#000000;stroke-linecap:square;stroke-linejoin:miter;stroke-width:0.8;"/>
   </g>
   <g id="patch_6">
    <path d="M 74.176563 51.018587 
L 1078.576563 51.018587 
" style="fill:none;stroke:#000000;stroke-linecap:square;stroke-linejoin:miter;stroke-width:0.8;"/>
   </g>
   <g id="text_19">
    <!-- Q-score plot -->
    <g transform="translate(483.795625 31.972187)scale(0.34 -0.34)">
     <defs>
      <path d="M 3.171875 21.484375 
L 3.171875 30.328125 
L 30.171875 30.328125 
L 30.171875 21.484375 
z
" id="ArialMT-45"/>
      <path d="M 6.59375 -19.875 
L 6.59375 51.859375 
L 14.59375 51.859375 
L 14.59375 45.125 
Q 17.4375 49.078125 21 51.046875 
Q 24.5625 53.03125 29.640625 53.03125 
Q 36.28125 53.03125 41.359375 49.609375 
Q 46.4375 46.1875 49.015625 39.953125 
Q 51.609375 33.734375 51.609375 26.3125 
Q 51.609375 18.359375 48.75 11.984375 
Q 45.90625 5.609375 40.453125 2.21875 
Q 35.015625 -1.171875 29 -1.171875 
Q 24.609375 -1.171875 21.109375 0.6875 
Q 17.625 2.546875 15.375 5.375 
L 15.375 -19.875 
z
M 14.546875 25.640625 
Q 14.546875 15.625 18.59375 10.84375 
Q 22.65625 6.0625 28.421875 6.0625 
Q 34.28125 6.0625 38.453125 11.015625 
Q 42.625 15.96875 42.625 26.375 
Q 42.625 36.28125 38.546875 41.203125 
Q 34.46875 46.140625 28.8125 46.140625 
Q 23.1875 46.140625 18.859375 40.890625 
Q 14.546875 35.640625 14.546875 25.640625 
z
" id="ArialMT-112"/>
      <path d="M 25.78125 7.859375 
L 27.046875 0.09375 
Q 23.34375 -0.6875 20.40625 -0.6875 
Q 15.625 -0.6875 12.984375 0.828125 
Q 10.359375 2.34375 9.28125 4.8125 
Q 8.203125 7.28125 8.203125 15.1875 
L 8.203125 45.015625 
L 1.765625 45.015625 
L 1.765625 51.859375 
L 8.203125 51.859375 
L 8.203125 64.703125 
L 16.9375 69.96875 
L 16.9375 51.859375 
L 25.78125 51.859375 
L 25.78125 45.015625 
L 16.9375 45.015625 
L 16.9375 14.703125 
Q 16.9375 10.9375 17.40625 9.859375 
Q 17.875 8.796875 18.921875 8.15625 
Q 19.96875 7.515625 21.921875 7.515625 
Q 23.390625 7.515625 25.78125 7.859375 
z
" id="ArialMT-116"/>
     </defs>
     <use xlink:href="#ArialMT-81"/>
     <use x="77.783203" xlink:href="#ArialMT-45"/>
     <use x="111.083984" xlink:href="#ArialMT-115"/>
     <use x="161.083984" xlink:href="#ArialMT-99"/>
     <use x="211.083984" xlink:href="#ArialMT-111"/>
     <use x="266.699219" xlink:href="#ArialMT-114"/>
     <use x="300" xlink:href="#ArialMT-101"/>
     <use x="355.615234" xlink:href="#ArialMT-32"/>
     <use x="383.398438" xlink:href="#ArialMT-112"/>
     <use x="439.013672" xlink:href="#ArialMT-108"/>
     <use x="461.230469" xlink:href="#ArialMT-111"/>
     <use x="516.845703" xlink:href="#ArialMT-116"/>
    </g>
   </g>
  </g>
 </g>
 <defs>
  <clipPath id="pfaaa7de7a5">
   <rect height="326.16" width="1004.4" x="74.176563" y="51.018588"/>
  </clipPath>
 </defs>
</svg>
