<?xml version="1.0" encoding="utf-8" standalone="no"?>
<!DOCTYPE svg PUBLIC "-//W3C//DTD SVG 1.1//EN"
  "http://www.w3.org/Graphics/SVG/1.1/DTD/svg11.dtd">
<!-- Created with matplotlib (https://matplotlib.org/) -->
<svg height="446.373744pt" version="1.1" viewBox="0 0 1105.888281 446.373744" width="1105.888281pt" xmlns="http://www.w3.org/2000/svg" xmlns:xlink="http://www.w3.org/1999/xlink">
 <metadata>
  <rdf:RDF xmlns:cc="http://creativecommons.org/ns#" xmlns:dc="http://purl.org/dc/elements/1.1/" xmlns:rdf="http://www.w3.org/1999/02/22-rdf-syntax-ns#">
   <cc:Work>
    <dc:type rdf:resource="http://purl.org/dc/dcmitype/StillImage"/>
    <dc:date>2025-05-02T21:59:55.343537</dc:date>
    <dc:format>image/svg+xml</dc:format>
    <dc:creator>
     <cc:Agent>
      <dc:title>Matplotlib v3.3.4, https://matplotlib.org/</dc:title>
     </cc:Agent>
    </dc:creator>
   </cc:Work>
  </rdf:RDF>
 </metadata>
 <defs>
  <style type="text/css">*{stroke-linecap:butt;stroke-linejoin:round;}</style>
 </defs>
 <g id="figure_1">
  <g id="patch_1">
   <path d="M 0 446.373744 
L 1105.888281 446.373744 
L 1105.888281 -0 
L 0 -0 
z
" style="fill:none;"/>
  </g>
  <g id="axes_1">
   <g id="patch_2">
    <path d="M 80.385937 377.157338 
L 1084.785938 377.157338 
L 1084.785938 50.997338 
L 80.385937 50.997338 
z
" style="fill:#ffffff;"/>
   </g>
   <g id="patch_3">
    <path clip-path="url(#p66cd2089b7)" d="M 76.111895 377.157338 
L 84.65998 377.157338 
L 84.65998 377.156937 
L 76.111895 377.156937 
z
" style="fill:#0091b5;"/>
   </g>
   <g id="patch_4">
    <path clip-path="url(#p66cd2089b7)" d="M 86.797001 377.157338 
L 95.345086 377.157338 
L 95.345086 376.261507 
L 86.797001 376.261507 
z
" style="fill:#0091b5;"/>
   </g>
   <g id="patch_5">
    <path clip-path="url(#p66cd2089b7)" d="M 97.482108 377.157338 
L 106.030193 377.157338 
L 106.030193 377.131804 
L 97.482108 377.131804 
z
" style="fill:#0091b5;"/>
   </g>
   <g id="patch_6">
    <path clip-path="url(#p66cd2089b7)" d="M 108.167214 377.157338 
L 116.715299 377.157338 
L 116.715299 377.151021 
L 108.167214 377.151021 
z
" style="fill:#0091b5;"/>
   </g>
   <g id="patch_7">
    <path clip-path="url(#p66cd2089b7)" d="M 118.85232 377.157338 
L 127.400406 377.157338 
L 127.400406 377.148911 
L 118.85232 377.148911 
z
" style="fill:#0091b5;"/>
   </g>
   <g id="patch_8">
    <path clip-path="url(#p66cd2089b7)" d="M 129.537427 377.157338 
L 138.085512 377.157338 
L 138.085512 377.093583 
L 129.537427 377.093583 
z
" style="fill:#0091b5;"/>
   </g>
   <g id="patch_9">
    <path clip-path="url(#p66cd2089b7)" d="M 140.222533 377.157338 
L 148.770618 377.157338 
L 148.770618 377.071175 
L 140.222533 377.071175 
z
" style="fill:#0091b5;"/>
   </g>
   <g id="patch_10">
    <path clip-path="url(#p66cd2089b7)" d="M 150.90764 377.157338 
L 159.455725 377.157338 
L 159.455725 377.15659 
L 150.90764 377.15659 
z
" style="fill:#0091b5;"/>
   </g>
   <g id="patch_11">
    <path clip-path="url(#p66cd2089b7)" d="M 161.592746 377.157338 
L 170.140831 377.157338 
L 170.140831 377.156563 
L 161.592746 377.156563 
z
" style="fill:#0091b5;"/>
   </g>
   <g id="patch_12">
    <path clip-path="url(#p66cd2089b7)" d="M 172.277852 377.157338 
L 180.825938 377.157338 
L 180.825938 377.139269 
L 172.277852 377.139269 
z
" style="fill:#0091b5;"/>
   </g>
   <g id="patch_13">
    <path clip-path="url(#p66cd2089b7)" d="M 182.962959 377.157338 
L 191.511044 377.157338 
L 191.511044 377.156737 
L 182.962959 377.156737 
z
" style="fill:#0091b5;"/>
   </g>
   <g id="patch_14">
    <path clip-path="url(#p66cd2089b7)" d="M 193.648065 377.157338 
L 202.19615 377.157338 
L 202.19615 377.140885 
L 193.648065 377.140885 
z
" style="fill:#0091b5;"/>
   </g>
   <g id="patch_15">
    <path clip-path="url(#p66cd2089b7)" d="M 204.333172 377.157338 
L 212.881257 377.157338 
L 212.881257 377.121347 
L 204.333172 377.121347 
z
" style="fill:#0091b5;"/>
   </g>
   <g id="patch_16">
    <path clip-path="url(#p66cd2089b7)" d="M 215.018278 377.157338 
L 223.566363 377.157338 
L 223.566363 377.152356 
L 215.018278 377.152356 
z
" style="fill:#0091b5;"/>
   </g>
   <g id="patch_17">
    <path clip-path="url(#p66cd2089b7)" d="M 225.703384 377.157338 
L 234.251469 377.157338 
L 234.251469 377.133433 
L 225.703384 377.133433 
z
" style="fill:#0091b5;"/>
   </g>
   <g id="patch_18">
    <path clip-path="url(#p66cd2089b7)" d="M 236.388491 377.157338 
L 244.936576 377.157338 
L 244.936576 377.13151 
L 236.388491 377.13151 
z
" style="fill:#0091b5;"/>
   </g>
   <g id="patch_19">
    <path clip-path="url(#p66cd2089b7)" d="M 247.073597 377.157338 
L 255.621682 377.157338 
L 255.621682 377.129467 
L 247.073597 377.129467 
z
" style="fill:#0091b5;"/>
   </g>
   <g id="patch_20">
    <path clip-path="url(#p66cd2089b7)" d="M 257.758703 377.157338 
L 266.306789 377.157338 
L 266.306789 377.116967 
L 257.758703 377.116967 
z
" style="fill:#0091b5;"/>
   </g>
   <g id="patch_21">
    <path clip-path="url(#p66cd2089b7)" d="M 268.44381 377.157338 
L 276.991895 377.157338 
L 276.991895 377.098805 
L 268.44381 377.098805 
z
" style="fill:#0091b5;"/>
   </g>
   <g id="patch_22">
    <path clip-path="url(#p66cd2089b7)" d="M 279.128916 377.157338 
L 287.677001 377.157338 
L 287.677001 377.101716 
L 279.128916 377.101716 
z
" style="fill:#0091b5;"/>
   </g>
   <g id="patch_23">
    <path clip-path="url(#p66cd2089b7)" d="M 289.814023 377.157338 
L 298.362108 377.157338 
L 298.362108 377.091273 
L 289.814023 377.091273 
z
" style="fill:#0091b5;"/>
   </g>
   <g id="patch_24">
    <path clip-path="url(#p66cd2089b7)" d="M 300.499129 377.157338 
L 309.047214 377.157338 
L 309.047214 376.515829 
L 300.499129 376.515829 
z
" style="fill:#0091b5;"/>
   </g>
   <g id="patch_25">
    <path clip-path="url(#p66cd2089b7)" d="M 311.184235 377.157338 
L 319.73232 377.157338 
L 319.73232 376.758066 
L 311.184235 376.758066 
z
" style="fill:#0091b5;"/>
   </g>
   <g id="patch_26">
    <path clip-path="url(#p66cd2089b7)" d="M 321.869342 377.157338 
L 330.417427 377.157338 
L 330.417427 377.081244 
L 321.869342 377.081244 
z
" style="fill:#0091b5;"/>
   </g>
   <g id="patch_27">
    <path clip-path="url(#p66cd2089b7)" d="M 332.554448 377.157338 
L 341.102533 377.157338 
L 341.102533 377.035304 
L 332.554448 377.035304 
z
" style="fill:#0091b5;"/>
   </g>
   <g id="patch_28">
    <path clip-path="url(#p66cd2089b7)" d="M 343.239555 377.157338 
L 351.78764 377.157338 
L 351.78764 377.065098 
L 343.239555 377.065098 
z
" style="fill:#0091b5;"/>
   </g>
   <g id="patch_29">
    <path clip-path="url(#p66cd2089b7)" d="M 353.924661 377.157338 
L 362.472746 377.157338 
L 362.472746 377.060157 
L 353.924661 377.060157 
z
" style="fill:#0091b5;"/>
   </g>
   <g id="patch_30">
    <path clip-path="url(#p66cd2089b7)" d="M 364.609767 377.157338 
L 373.157852 377.157338 
L 373.157852 377.078613 
L 364.609767 377.078613 
z
" style="fill:#0091b5;"/>
   </g>
   <g id="patch_31">
    <path clip-path="url(#p66cd2089b7)" d="M 375.294874 377.157338 
L 383.842959 377.157338 
L 383.842959 377.035198 
L 375.294874 377.035198 
z
" style="fill:#0091b5;"/>
   </g>
   <g id="patch_32">
    <path clip-path="url(#p66cd2089b7)" d="M 385.97998 377.157338 
L 394.528065 377.157338 
L 394.528065 377.062868 
L 385.97998 377.062868 
z
" style="fill:#0091b5;"/>
   </g>
   <g id="patch_33">
    <path clip-path="url(#p66cd2089b7)" d="M 396.665086 377.157338 
L 405.213172 377.157338 
L 405.213172 377.081297 
L 396.665086 377.081297 
z
" style="fill:#0091b5;"/>
   </g>
   <g id="patch_34">
    <path clip-path="url(#p66cd2089b7)" d="M 407.350193 377.157338 
L 415.898278 377.157338 
L 415.898278 377.0409 
L 407.350193 377.0409 
z
" style="fill:#0091b5;"/>
   </g>
   <g id="patch_35">
    <path clip-path="url(#p66cd2089b7)" d="M 418.035299 377.157338 
L 426.583384 377.157338 
L 426.583384 377.058528 
L 418.035299 377.058528 
z
" style="fill:#0091b5;"/>
   </g>
   <g id="patch_36">
    <path clip-path="url(#p66cd2089b7)" d="M 428.720406 377.157338 
L 437.268491 377.157338 
L 437.268491 376.962162 
L 428.720406 376.962162 
z
" style="fill:#0091b5;"/>
   </g>
   <g id="patch_37">
    <path clip-path="url(#p66cd2089b7)" d="M 439.405512 377.157338 
L 447.953597 377.157338 
L 447.953597 376.947806 
L 439.405512 376.947806 
z
" style="fill:#0091b5;"/>
   </g>
   <g id="patch_38">
    <path clip-path="url(#p66cd2089b7)" d="M 450.090618 377.157338 
L 458.638703 377.157338 
L 458.638703 376.915836 
L 450.090618 376.915836 
z
" style="fill:#0091b5;"/>
   </g>
   <g id="patch_39">
    <path clip-path="url(#p66cd2089b7)" d="M 460.775725 377.157338 
L 469.32381 377.157338 
L 469.32381 376.943653 
L 460.775725 376.943653 
z
" style="fill:#0091b5;"/>
   </g>
   <g id="patch_40">
    <path clip-path="url(#p66cd2089b7)" d="M 471.460831 377.157338 
L 480.008916 377.157338 
L 480.008916 376.985532 
L 471.460831 376.985532 
z
" style="fill:#0091b5;"/>
   </g>
   <g id="patch_41">
    <path clip-path="url(#p66cd2089b7)" d="M 482.145938 377.157338 
L 490.694023 377.157338 
L 490.694023 376.60871 
L 482.145938 376.60871 
z
" style="fill:#0091b5;"/>
   </g>
   <g id="patch_42">
    <path clip-path="url(#p66cd2089b7)" d="M 492.831044 377.157338 
L 501.379129 377.157338 
L 501.379129 376.606546 
L 492.831044 376.606546 
z
" style="fill:#0091b5;"/>
   </g>
   <g id="patch_43">
    <path clip-path="url(#p66cd2089b7)" d="M 503.51615 377.157338 
L 512.064235 377.157338 
L 512.064235 376.639345 
L 503.51615 376.639345 
z
" style="fill:#0091b5;"/>
   </g>
   <g id="patch_44">
    <path clip-path="url(#p66cd2089b7)" d="M 514.201257 377.157338 
L 522.749342 377.157338 
L 522.749342 376.660739 
L 514.201257 376.660739 
z
" style="fill:#0091b5;"/>
   </g>
   <g id="patch_45">
    <path clip-path="url(#p66cd2089b7)" d="M 524.886363 377.157338 
L 533.434448 377.157338 
L 533.434448 376.055702 
L 524.886363 376.055702 
z
" style="fill:#0091b5;"/>
   </g>
   <g id="patch_46">
    <path clip-path="url(#p66cd2089b7)" d="M 535.571469 377.157338 
L 544.119555 377.157338 
L 544.119555 57.392632 
L 535.571469 57.392632 
z
" style="fill:#0091b5;"/>
   </g>
   <g id="patch_47">
    <path clip-path="url(#p66cd2089b7)" d="M 546.256576 377.157338 
L 554.804661 377.157338 
L 554.804661 376.93102 
L 546.256576 376.93102 
z
" style="fill:#0091b5;"/>
   </g>
   <g id="patch_48">
    <path clip-path="url(#p66cd2089b7)" d="M 556.941682 377.157338 
L 565.489767 377.157338 
L 565.489767 377.143035 
L 556.941682 377.143035 
z
" style="fill:#0091b5;"/>
   </g>
   <g id="patch_49">
    <path clip-path="url(#p66cd2089b7)" d="M 567.626789 377.157338 
L 576.174874 377.157338 
L 576.174874 377.145345 
L 567.626789 377.145345 
z
" style="fill:#0091b5;"/>
   </g>
   <g id="patch_50">
    <path clip-path="url(#p66cd2089b7)" d="M 578.311895 377.157338 
L 586.85998 377.157338 
L 586.85998 377.139496 
L 578.311895 377.139496 
z
" style="fill:#0091b5;"/>
   </g>
   <g id="patch_51">
    <path clip-path="url(#p66cd2089b7)" d="M 588.997001 377.157338 
L 597.545086 377.157338 
L 597.545086 377.067141 
L 588.997001 377.067141 
z
" style="fill:#0091b5;"/>
   </g>
   <g id="patch_52">
    <path clip-path="url(#p66cd2089b7)" d="M 599.682108 377.157338 
L 608.230193 377.157338 
L 608.230193 374.030725 
L 599.682108 374.030725 
z
" style="fill:#0091b5;"/>
   </g>
   <g id="patch_53">
    <path clip-path="url(#p66cd2089b7)" d="M 610.367214 377.157338 
L 618.915299 377.157338 
L 618.915299 376.418849 
L 610.367214 376.418849 
z
" style="fill:#0091b5;"/>
   </g>
   <g id="patch_54">
    <path clip-path="url(#p66cd2089b7)" d="M 621.05232 377.157338 
L 629.600406 377.157338 
L 629.600406 377.148817 
L 621.05232 377.148817 
z
" style="fill:#0091b5;"/>
   </g>
   <g id="patch_55">
    <path clip-path="url(#p66cd2089b7)" d="M 631.737427 377.157338 
L 640.285512 377.157338 
L 640.285512 377.156309 
L 631.737427 377.156309 
z
" style="fill:#0091b5;"/>
   </g>
   <g id="patch_56">
    <path clip-path="url(#p66cd2089b7)" d="M 642.422533 377.157338 
L 650.970618 377.157338 
L 650.970618 377.156723 
L 642.422533 377.156723 
z
" style="fill:#0091b5;"/>
   </g>
   <g id="patch_57">
    <path clip-path="url(#p66cd2089b7)" d="M 653.10764 377.157338 
L 661.655725 377.157338 
L 661.655725 377.156857 
L 653.10764 377.156857 
z
" style="fill:#0091b5;"/>
   </g>
   <g id="patch_58">
    <path clip-path="url(#p66cd2089b7)" d="M 663.792746 377.157338 
L 672.340831 377.157338 
L 672.340831 377.157164 
L 663.792746 377.157164 
z
" style="fill:#0091b5;"/>
   </g>
   <g id="patch_59">
    <path clip-path="url(#p66cd2089b7)" d="M 674.477852 377.157338 
L 683.025937 377.157338 
L 683.025937 377.157244 
L 674.477852 377.157244 
z
" style="fill:#0091b5;"/>
   </g>
   <g id="patch_60">
    <path clip-path="url(#p66cd2089b7)" d="M 685.162959 377.157338 
L 693.711044 377.157338 
L 693.711044 377.157311 
L 685.162959 377.157311 
z
" style="fill:#0091b5;"/>
   </g>
   <g id="patch_61">
    <path clip-path="url(#p66cd2089b7)" d="M 695.848065 377.157338 
L 704.39615 377.157338 
L 704.39615 377.157297 
L 695.848065 377.157297 
z
" style="fill:#0091b5;"/>
   </g>
   <g id="patch_62">
    <path clip-path="url(#p66cd2089b7)" d="M 706.533172 377.157338 
L 715.081257 377.157338 
L 715.081257 377.157311 
L 706.533172 377.157311 
z
" style="fill:#0091b5;"/>
   </g>
   <g id="patch_63">
    <path clip-path="url(#p66cd2089b7)" d="M 717.218278 377.157338 
L 725.766363 377.157338 
L 725.766363 377.157271 
L 717.218278 377.157271 
z
" style="fill:#0091b5;"/>
   </g>
   <g id="patch_64">
    <path clip-path="url(#p66cd2089b7)" d="M 727.903384 377.157338 
L 736.451469 377.157338 
L 736.451469 377.157324 
L 727.903384 377.157324 
z
" style="fill:#0091b5;"/>
   </g>
   <g id="patch_65">
    <path clip-path="url(#p66cd2089b7)" d="M 738.588491 377.157338 
L 747.136576 377.157338 
L 747.136576 377.157324 
L 738.588491 377.157324 
z
" style="fill:#0091b5;"/>
   </g>
   <g id="patch_66">
    <path clip-path="url(#p66cd2089b7)" d="M 749.273597 377.157338 
L 757.821682 377.157338 
L 757.821682 377.157311 
L 749.273597 377.157311 
z
" style="fill:#0091b5;"/>
   </g>
   <g id="patch_67">
    <path clip-path="url(#p66cd2089b7)" d="M 781.328916 377.157338 
L 789.877001 377.157338 
L 789.877001 377.157311 
L 781.328916 377.157311 
z
" style="fill:#0091b5;"/>
   </g>
   <g id="patch_68">
    <path clip-path="url(#p66cd2089b7)" d="M 802.699129 377.157338 
L 811.247214 377.157338 
L 811.247214 377.157324 
L 802.699129 377.157324 
z
" style="fill:#0091b5;"/>
   </g>
   <g id="patch_69">
    <path clip-path="url(#p66cd2089b7)" d="M 824.069342 377.157338 
L 832.617427 377.157338 
L 832.617427 377.157311 
L 824.069342 377.157311 
z
" style="fill:#0091b5;"/>
   </g>
   <g id="patch_70">
    <path clip-path="url(#p66cd2089b7)" d="M 866.809767 377.157338 
L 875.357852 377.157338 
L 875.357852 377.157324 
L 866.809767 377.157324 
z
" style="fill:#0091b5;"/>
   </g>
   <g id="patch_71">
    <path clip-path="url(#p66cd2089b7)" d="M 941.605512 377.157338 
L 950.153597 377.157338 
L 950.153597 377.157324 
L 941.605512 377.157324 
z
" style="fill:#0091b5;"/>
   </g>
   <g id="patch_72">
    <path clip-path="url(#p66cd2089b7)" d="M 962.975725 377.157338 
L 971.52381 377.157338 
L 971.52381 377.157311 
L 962.975725 377.157311 
z
" style="fill:#0091b5;"/>
   </g>
   <g id="patch_73">
    <path clip-path="url(#p66cd2089b7)" d="M 995.031044 377.157338 
L 1003.579129 377.157338 
L 1003.579129 377.157311 
L 995.031044 377.157311 
z
" style="fill:#0091b5;"/>
   </g>
   <g id="patch_74">
    <path clip-path="url(#p66cd2089b7)" d="M 1069.826789 377.157338 
L 1078.374874 377.157338 
L 1078.374874 377.157324 
L 1069.826789 377.157324 
z
" style="fill:#0091b5;"/>
   </g>
   <g id="matplotlib.axis_1">
    <g id="xtick_1">
     <g id="line2d_1">
      <defs>
       <path d="M 0 0 
L 0 3.5 
" id="m5fd4dfef0e" style="stroke:#000000;stroke-width:0.8;"/>
      </defs>
      <g>
       <use style="stroke:#000000;stroke-width:0.8;" x="80.385937" xlink:href="#m5fd4dfef0e" y="377.157338"/>
      </g>
     </g>
     <g id="text_1">
      <!-- 0 -->
      <g transform="translate(73.434766 402.051869)scale(0.25 -0.25)">
       <defs>
        <path d="M 4.15625 35.296875 
Q 4.15625 48 6.765625 55.734375 
Q 9.375 63.484375 14.515625 67.671875 
Q 19.671875 71.875 27.484375 71.875 
Q 33.25 71.875 37.59375 69.546875 
Q 41.9375 67.234375 44.765625 62.859375 
Q 47.609375 58.5 49.21875 52.21875 
Q 50.828125 45.953125 50.828125 35.296875 
Q 50.828125 22.703125 48.234375 14.96875 
Q 45.65625 7.234375 40.5 3 
Q 35.359375 -1.21875 27.484375 -1.21875 
Q 17.140625 -1.21875 11.234375 6.203125 
Q 4.15625 15.140625 4.15625 35.296875 
z
M 13.1875 35.296875 
Q 13.1875 17.671875 17.3125 11.828125 
Q 21.4375 6 27.484375 6 
Q 33.546875 6 37.671875 11.859375 
Q 41.796875 17.71875 41.796875 35.296875 
Q 41.796875 52.984375 37.671875 58.78125 
Q 33.546875 64.59375 27.390625 64.59375 
Q 21.34375 64.59375 17.71875 59.46875 
Q 13.1875 52.9375 13.1875 35.296875 
z
" id="ArialMT-48"/>
       </defs>
       <use xlink:href="#ArialMT-48"/>
      </g>
     </g>
    </g>
    <g id="xtick_2">
     <g id="line2d_2">
      <g>
       <use style="stroke:#000000;stroke-width:0.8;" x="191.985938" xlink:href="#m5fd4dfef0e" y="377.157338"/>
      </g>
     </g>
     <g id="text_2">
      <!-- 10 -->
      <g transform="translate(178.083594 402.051869)scale(0.25 -0.25)">
       <defs>
        <path d="M 37.25 0 
L 28.46875 0 
L 28.46875 56 
Q 25.296875 52.984375 20.140625 49.953125 
Q 14.984375 46.921875 10.890625 45.40625 
L 10.890625 53.90625 
Q 18.265625 57.375 23.78125 62.296875 
Q 29.296875 67.234375 31.59375 71.875 
L 37.25 71.875 
z
" id="ArialMT-49"/>
       </defs>
       <use xlink:href="#ArialMT-49"/>
       <use x="55.615234" xlink:href="#ArialMT-48"/>
      </g>
     </g>
    </g>
    <g id="xtick_3">
     <g id="line2d_3">
      <g>
       <use style="stroke:#000000;stroke-width:0.8;" x="303.585938" xlink:href="#m5fd4dfef0e" y="377.157338"/>
      </g>
     </g>
     <g id="text_3">
      <!-- 20 -->
      <g transform="translate(289.683594 402.051869)scale(0.25 -0.25)">
       <defs>
        <path d="M 50.34375 8.453125 
L 50.34375 0 
L 3.03125 0 
Q 2.9375 3.171875 4.046875 6.109375 
Q 5.859375 10.9375 9.828125 15.625 
Q 13.8125 20.3125 21.34375 26.46875 
Q 33.015625 36.03125 37.109375 41.625 
Q 41.21875 47.21875 41.21875 52.203125 
Q 41.21875 57.421875 37.46875 61 
Q 33.734375 64.59375 27.734375 64.59375 
Q 21.390625 64.59375 17.578125 60.78125 
Q 13.765625 56.984375 13.71875 50.25 
L 4.6875 51.171875 
Q 5.609375 61.28125 11.65625 66.578125 
Q 17.71875 71.875 27.9375 71.875 
Q 38.234375 71.875 44.234375 66.15625 
Q 50.25 60.453125 50.25 52 
Q 50.25 47.703125 48.484375 43.546875 
Q 46.734375 39.40625 42.65625 34.8125 
Q 38.578125 30.21875 29.109375 22.21875 
Q 21.1875 15.578125 18.9375 13.203125 
Q 16.703125 10.84375 15.234375 8.453125 
z
" id="ArialMT-50"/>
       </defs>
       <use xlink:href="#ArialMT-50"/>
       <use x="55.615234" xlink:href="#ArialMT-48"/>
      </g>
     </g>
    </g>
    <g id="xtick_4">
     <g id="line2d_4">
      <g>
       <use style="stroke:#000000;stroke-width:0.8;" x="415.185938" xlink:href="#m5fd4dfef0e" y="377.157338"/>
      </g>
     </g>
     <g id="text_4">
      <!-- 31 -->
      <g transform="translate(401.283594 402.051869)scale(0.25 -0.25)">
       <defs>
        <path d="M 4.203125 18.890625 
L 12.984375 20.0625 
Q 14.5 12.59375 18.140625 9.296875 
Q 21.78125 6 27 6 
Q 33.203125 6 37.46875 10.296875 
Q 41.75 14.59375 41.75 20.953125 
Q 41.75 27 37.796875 30.921875 
Q 33.84375 34.859375 27.734375 34.859375 
Q 25.25 34.859375 21.53125 33.890625 
L 22.515625 41.609375 
Q 23.390625 41.5 23.921875 41.5 
Q 29.546875 41.5 34.03125 44.421875 
Q 38.53125 47.359375 38.53125 53.46875 
Q 38.53125 58.296875 35.25 61.46875 
Q 31.984375 64.65625 26.8125 64.65625 
Q 21.6875 64.65625 18.265625 61.421875 
Q 14.84375 58.203125 13.875 51.765625 
L 5.078125 53.328125 
Q 6.6875 62.15625 12.390625 67.015625 
Q 18.109375 71.875 26.609375 71.875 
Q 32.46875 71.875 37.390625 69.359375 
Q 42.328125 66.84375 44.9375 62.5 
Q 47.5625 58.15625 47.5625 53.265625 
Q 47.5625 48.640625 45.0625 44.828125 
Q 42.578125 41.015625 37.703125 38.765625 
Q 44.046875 37.3125 47.5625 32.6875 
Q 51.078125 28.078125 51.078125 21.140625 
Q 51.078125 11.765625 44.234375 5.25 
Q 37.40625 -1.265625 26.953125 -1.265625 
Q 17.53125 -1.265625 11.296875 4.34375 
Q 5.078125 9.96875 4.203125 18.890625 
z
" id="ArialMT-51"/>
       </defs>
       <use xlink:href="#ArialMT-51"/>
       <use x="55.615234" xlink:href="#ArialMT-49"/>
      </g>
     </g>
    </g>
    <g id="xtick_5">
     <g id="line2d_5">
      <g>
       <use style="stroke:#000000;stroke-width:0.8;" x="526.785938" xlink:href="#m5fd4dfef0e" y="377.157338"/>
      </g>
     </g>
     <g id="text_5">
      <!-- 41 -->
      <g transform="translate(512.883594 402.051869)scale(0.25 -0.25)">
       <defs>
        <path d="M 32.328125 0 
L 32.328125 17.140625 
L 1.265625 17.140625 
L 1.265625 25.203125 
L 33.9375 71.578125 
L 41.109375 71.578125 
L 41.109375 25.203125 
L 50.78125 25.203125 
L 50.78125 17.140625 
L 41.109375 17.140625 
L 41.109375 0 
z
M 32.328125 25.203125 
L 32.328125 57.46875 
L 9.90625 25.203125 
z
" id="ArialMT-52"/>
       </defs>
       <use xlink:href="#ArialMT-52"/>
       <use x="55.615234" xlink:href="#ArialMT-49"/>
      </g>
     </g>
    </g>
    <g id="xtick_6">
     <g id="line2d_6">
      <g>
       <use style="stroke:#000000;stroke-width:0.8;" x="638.385937" xlink:href="#m5fd4dfef0e" y="377.157338"/>
      </g>
     </g>
     <g id="text_6">
      <!-- 52 -->
      <g transform="translate(624.483594 402.051869)scale(0.25 -0.25)">
       <defs>
        <path d="M 4.15625 18.75 
L 13.375 19.53125 
Q 14.40625 12.796875 18.140625 9.390625 
Q 21.875 6 27.15625 6 
Q 33.5 6 37.890625 10.78125 
Q 42.28125 15.578125 42.28125 23.484375 
Q 42.28125 31 38.0625 35.34375 
Q 33.84375 39.703125 27 39.703125 
Q 22.75 39.703125 19.328125 37.765625 
Q 15.921875 35.84375 13.96875 32.765625 
L 5.71875 33.84375 
L 12.640625 70.609375 
L 48.25 70.609375 
L 48.25 62.203125 
L 19.671875 62.203125 
L 15.828125 42.96875 
Q 22.265625 47.46875 29.34375 47.46875 
Q 38.71875 47.46875 45.15625 40.96875 
Q 51.609375 34.46875 51.609375 24.265625 
Q 51.609375 14.546875 45.953125 7.46875 
Q 39.0625 -1.21875 27.15625 -1.21875 
Q 17.390625 -1.21875 11.203125 4.25 
Q 5.03125 9.71875 4.15625 18.75 
z
" id="ArialMT-53"/>
       </defs>
       <use xlink:href="#ArialMT-53"/>
       <use x="55.615234" xlink:href="#ArialMT-50"/>
      </g>
     </g>
    </g>
    <g id="xtick_7">
     <g id="line2d_7">
      <g>
       <use style="stroke:#000000;stroke-width:0.8;" x="749.985937" xlink:href="#m5fd4dfef0e" y="377.157338"/>
      </g>
     </g>
     <g id="text_7">
      <!-- 62 -->
      <g transform="translate(736.083594 402.051869)scale(0.25 -0.25)">
       <defs>
        <path d="M 49.75 54.046875 
L 41.015625 53.375 
Q 39.84375 58.546875 37.703125 60.890625 
Q 34.125 64.65625 28.90625 64.65625 
Q 24.703125 64.65625 21.53125 62.3125 
Q 17.390625 59.28125 14.984375 53.46875 
Q 12.59375 47.65625 12.5 36.921875 
Q 15.671875 41.75 20.265625 44.09375 
Q 24.859375 46.4375 29.890625 46.4375 
Q 38.671875 46.4375 44.84375 39.96875 
Q 51.03125 33.5 51.03125 23.25 
Q 51.03125 16.5 48.125 10.71875 
Q 45.21875 4.9375 40.140625 1.859375 
Q 35.0625 -1.21875 28.609375 -1.21875 
Q 17.625 -1.21875 10.6875 6.859375 
Q 3.765625 14.9375 3.765625 33.5 
Q 3.765625 54.25 11.421875 63.671875 
Q 18.109375 71.875 29.4375 71.875 
Q 37.890625 71.875 43.28125 67.140625 
Q 48.6875 62.40625 49.75 54.046875 
z
M 13.875 23.1875 
Q 13.875 18.65625 15.796875 14.5 
Q 17.71875 10.359375 21.1875 8.171875 
Q 24.65625 6 28.46875 6 
Q 34.03125 6 38.03125 10.484375 
Q 42.046875 14.984375 42.046875 22.703125 
Q 42.046875 30.125 38.078125 34.390625 
Q 34.125 38.671875 28.125 38.671875 
Q 22.171875 38.671875 18.015625 34.390625 
Q 13.875 30.125 13.875 23.1875 
z
" id="ArialMT-54"/>
       </defs>
       <use xlink:href="#ArialMT-54"/>
       <use x="55.615234" xlink:href="#ArialMT-50"/>
      </g>
     </g>
    </g>
    <g id="xtick_8">
     <g id="line2d_8">
      <g>
       <use style="stroke:#000000;stroke-width:0.8;" x="861.585938" xlink:href="#m5fd4dfef0e" y="377.157338"/>
      </g>
     </g>
     <g id="text_8">
      <!-- 73 -->
      <g transform="translate(847.683594 402.051869)scale(0.25 -0.25)">
       <defs>
        <path d="M 4.734375 62.203125 
L 4.734375 70.65625 
L 51.078125 70.65625 
L 51.078125 63.8125 
Q 44.234375 56.546875 37.515625 44.484375 
Q 30.8125 32.421875 27.15625 19.671875 
Q 24.515625 10.6875 23.78125 0 
L 14.75 0 
Q 14.890625 8.453125 18.0625 20.40625 
Q 21.234375 32.375 27.171875 43.484375 
Q 33.109375 54.59375 39.796875 62.203125 
z
" id="ArialMT-55"/>
       </defs>
       <use xlink:href="#ArialMT-55"/>
       <use x="55.615234" xlink:href="#ArialMT-51"/>
      </g>
     </g>
    </g>
    <g id="xtick_9">
     <g id="line2d_9">
      <g>
       <use style="stroke:#000000;stroke-width:0.8;" x="973.185938" xlink:href="#m5fd4dfef0e" y="377.157338"/>
      </g>
     </g>
     <g id="text_9">
      <!-- 83 -->
      <g transform="translate(959.283594 402.051869)scale(0.25 -0.25)">
       <defs>
        <path d="M 17.671875 38.8125 
Q 12.203125 40.828125 9.5625 44.53125 
Q 6.9375 48.25 6.9375 53.421875 
Q 6.9375 61.234375 12.546875 66.546875 
Q 18.171875 71.875 27.484375 71.875 
Q 36.859375 71.875 42.578125 66.421875 
Q 48.296875 60.984375 48.296875 53.171875 
Q 48.296875 48.1875 45.671875 44.5 
Q 43.0625 40.828125 37.75 38.8125 
Q 44.34375 36.671875 47.78125 31.875 
Q 51.21875 27.09375 51.21875 20.453125 
Q 51.21875 11.28125 44.71875 5.03125 
Q 38.234375 -1.21875 27.640625 -1.21875 
Q 17.046875 -1.21875 10.546875 5.046875 
Q 4.046875 11.328125 4.046875 20.703125 
Q 4.046875 27.6875 7.59375 32.390625 
Q 11.140625 37.109375 17.671875 38.8125 
z
M 15.921875 53.71875 
Q 15.921875 48.640625 19.1875 45.40625 
Q 22.46875 42.1875 27.6875 42.1875 
Q 32.765625 42.1875 36.015625 45.375 
Q 39.265625 48.578125 39.265625 53.21875 
Q 39.265625 58.0625 35.90625 61.359375 
Q 32.5625 64.65625 27.59375 64.65625 
Q 22.5625 64.65625 19.234375 61.421875 
Q 15.921875 58.203125 15.921875 53.71875 
z
M 13.09375 20.65625 
Q 13.09375 16.890625 14.875 13.375 
Q 16.65625 9.859375 20.171875 7.921875 
Q 23.6875 6 27.734375 6 
Q 34.03125 6 38.125 10.046875 
Q 42.234375 14.109375 42.234375 20.359375 
Q 42.234375 26.703125 38.015625 30.859375 
Q 33.796875 35.015625 27.4375 35.015625 
Q 21.234375 35.015625 17.15625 30.90625 
Q 13.09375 26.8125 13.09375 20.65625 
z
" id="ArialMT-56"/>
       </defs>
       <use xlink:href="#ArialMT-56"/>
       <use x="55.615234" xlink:href="#ArialMT-51"/>
      </g>
     </g>
    </g>
    <g id="xtick_10">
     <g id="line2d_10">
      <g>
       <use style="stroke:#000000;stroke-width:0.8;" x="1084.785938" xlink:href="#m5fd4dfef0e" y="377.157338"/>
      </g>
     </g>
     <g id="text_10">
      <!-- 94 -->
      <g transform="translate(1070.883594 402.051869)scale(0.25 -0.25)">
       <defs>
        <path d="M 5.46875 16.546875 
L 13.921875 17.328125 
Q 14.984375 11.375 18.015625 8.6875 
Q 21.046875 6 25.78125 6 
Q 29.828125 6 32.875 7.859375 
Q 35.9375 9.71875 37.890625 12.8125 
Q 39.84375 15.921875 41.15625 21.1875 
Q 42.484375 26.46875 42.484375 31.9375 
Q 42.484375 32.515625 42.4375 33.6875 
Q 39.796875 29.5 35.234375 26.875 
Q 30.671875 24.265625 25.34375 24.265625 
Q 16.453125 24.265625 10.296875 30.703125 
Q 4.15625 37.15625 4.15625 47.703125 
Q 4.15625 58.59375 10.578125 65.234375 
Q 17 71.875 26.65625 71.875 
Q 33.640625 71.875 39.421875 68.109375 
Q 45.21875 64.359375 48.21875 57.390625 
Q 51.21875 50.4375 51.21875 37.25 
Q 51.21875 23.53125 48.234375 15.40625 
Q 45.265625 7.28125 39.375 3.03125 
Q 33.5 -1.21875 25.59375 -1.21875 
Q 17.1875 -1.21875 11.859375 3.4375 
Q 6.546875 8.109375 5.46875 16.546875 
z
M 41.453125 48.140625 
Q 41.453125 55.71875 37.421875 60.15625 
Q 33.40625 64.59375 27.734375 64.59375 
Q 21.875 64.59375 17.53125 59.8125 
Q 13.1875 55.03125 13.1875 47.40625 
Q 13.1875 40.578125 17.3125 36.296875 
Q 21.4375 32.03125 27.484375 32.03125 
Q 33.59375 32.03125 37.515625 36.296875 
Q 41.453125 40.578125 41.453125 48.140625 
z
" id="ArialMT-57"/>
       </defs>
       <use xlink:href="#ArialMT-57"/>
       <use x="55.615234" xlink:href="#ArialMT-52"/>
      </g>
     </g>
    </g>
    <g id="text_11">
     <!-- Sequence length -->
     <g transform="translate(469.999219 432.859681)scale(0.3 -0.3)">
      <defs>
       <path d="M 4.5 23 
L 13.421875 23.78125 
Q 14.0625 18.40625 16.375 14.96875 
Q 18.703125 11.53125 23.578125 9.40625 
Q 28.46875 7.28125 34.578125 7.28125 
Q 39.984375 7.28125 44.140625 8.890625 
Q 48.296875 10.5 50.3125 13.296875 
Q 52.34375 16.109375 52.34375 19.4375 
Q 52.34375 22.796875 50.390625 25.3125 
Q 48.4375 27.828125 43.953125 29.546875 
Q 41.0625 30.671875 31.203125 33.03125 
Q 21.34375 35.40625 17.390625 37.5 
Q 12.25 40.1875 9.734375 44.15625 
Q 7.234375 48.140625 7.234375 53.078125 
Q 7.234375 58.5 10.296875 63.203125 
Q 13.375 67.921875 19.28125 70.359375 
Q 25.203125 72.796875 32.421875 72.796875 
Q 40.375 72.796875 46.453125 70.234375 
Q 52.546875 67.671875 55.8125 62.6875 
Q 59.078125 57.71875 59.328125 51.421875 
L 50.25 50.734375 
Q 49.515625 57.515625 45.28125 60.984375 
Q 41.0625 64.453125 32.8125 64.453125 
Q 24.21875 64.453125 20.28125 61.296875 
Q 16.359375 58.15625 16.359375 53.71875 
Q 16.359375 49.859375 19.140625 47.359375 
Q 21.875 44.875 33.421875 42.265625 
Q 44.96875 39.65625 49.265625 37.703125 
Q 55.515625 34.8125 58.484375 30.390625 
Q 61.46875 25.984375 61.46875 20.21875 
Q 61.46875 14.5 58.203125 9.4375 
Q 54.9375 4.390625 48.796875 1.578125 
Q 42.671875 -1.21875 35.015625 -1.21875 
Q 25.296875 -1.21875 18.71875 1.609375 
Q 12.15625 4.4375 8.421875 10.125 
Q 4.6875 15.828125 4.5 23 
z
" id="ArialMT-83"/>
       <path d="M 42.09375 16.703125 
L 51.171875 15.578125 
Q 49.03125 7.625 43.21875 3.21875 
Q 37.40625 -1.171875 28.375 -1.171875 
Q 17 -1.171875 10.328125 5.828125 
Q 3.65625 12.84375 3.65625 25.484375 
Q 3.65625 38.578125 10.390625 45.796875 
Q 17.140625 53.03125 27.875 53.03125 
Q 38.28125 53.03125 44.875 45.953125 
Q 51.46875 38.875 51.46875 26.03125 
Q 51.46875 25.25 51.421875 23.6875 
L 12.75 23.6875 
Q 13.234375 15.140625 17.578125 10.59375 
Q 21.921875 6.0625 28.421875 6.0625 
Q 33.25 6.0625 36.671875 8.59375 
Q 40.09375 11.140625 42.09375 16.703125 
z
M 13.234375 30.90625 
L 42.1875 30.90625 
Q 41.609375 37.453125 38.875 40.71875 
Q 34.671875 45.796875 27.984375 45.796875 
Q 21.921875 45.796875 17.796875 41.75 
Q 13.671875 37.703125 13.234375 30.90625 
z
" id="ArialMT-101"/>
       <path d="M 39.65625 -19.875 
L 39.65625 5.515625 
Q 37.59375 2.640625 33.90625 0.734375 
Q 30.21875 -1.171875 26.078125 -1.171875 
Q 16.84375 -1.171875 10.171875 6.203125 
Q 3.515625 13.578125 3.515625 26.421875 
Q 3.515625 34.234375 6.21875 40.421875 
Q 8.9375 46.625 14.078125 49.828125 
Q 19.234375 53.03125 25.390625 53.03125 
Q 35.015625 53.03125 40.53125 44.921875 
L 40.53125 51.859375 
L 48.4375 51.859375 
L 48.4375 -19.875 
z
M 12.546875 26.078125 
Q 12.546875 16.0625 16.75 11.0625 
Q 20.953125 6.0625 26.8125 6.0625 
Q 32.421875 6.0625 36.46875 10.8125 
Q 40.53125 15.578125 40.53125 25.296875 
Q 40.53125 35.640625 36.25 40.859375 
Q 31.984375 46.09375 26.21875 46.09375 
Q 20.515625 46.09375 16.53125 41.234375 
Q 12.546875 36.375 12.546875 26.078125 
z
" id="ArialMT-113"/>
       <path d="M 40.578125 0 
L 40.578125 7.625 
Q 34.515625 -1.171875 24.125 -1.171875 
Q 19.53125 -1.171875 15.546875 0.578125 
Q 11.578125 2.34375 9.640625 5 
Q 7.71875 7.671875 6.9375 11.53125 
Q 6.390625 14.109375 6.390625 19.734375 
L 6.390625 51.859375 
L 15.1875 51.859375 
L 15.1875 23.09375 
Q 15.1875 16.21875 15.71875 13.8125 
Q 16.546875 10.359375 19.234375 8.375 
Q 21.921875 6.390625 25.875 6.390625 
Q 29.828125 6.390625 33.296875 8.421875 
Q 36.765625 10.453125 38.203125 13.9375 
Q 39.65625 17.4375 39.65625 24.078125 
L 39.65625 51.859375 
L 48.4375 51.859375 
L 48.4375 0 
z
" id="ArialMT-117"/>
       <path d="M 6.59375 0 
L 6.59375 51.859375 
L 14.5 51.859375 
L 14.5 44.484375 
Q 20.21875 53.03125 31 53.03125 
Q 35.6875 53.03125 39.625 51.34375 
Q 43.5625 49.65625 45.515625 46.921875 
Q 47.46875 44.1875 48.25 40.4375 
Q 48.734375 37.984375 48.734375 31.890625 
L 48.734375 0 
L 39.9375 0 
L 39.9375 31.546875 
Q 39.9375 36.921875 38.90625 39.578125 
Q 37.890625 42.234375 35.28125 43.8125 
Q 32.671875 45.40625 29.15625 45.40625 
Q 23.53125 45.40625 19.453125 41.84375 
Q 15.375 38.28125 15.375 28.328125 
L 15.375 0 
z
" id="ArialMT-110"/>
       <path d="M 40.4375 19 
L 49.078125 17.875 
Q 47.65625 8.9375 41.8125 3.875 
Q 35.984375 -1.171875 27.484375 -1.171875 
Q 16.84375 -1.171875 10.375 5.78125 
Q 3.90625 12.75 3.90625 25.734375 
Q 3.90625 34.125 6.6875 40.421875 
Q 9.46875 46.734375 15.15625 49.875 
Q 20.84375 53.03125 27.546875 53.03125 
Q 35.984375 53.03125 41.359375 48.75 
Q 46.734375 44.484375 48.25 36.625 
L 39.703125 35.296875 
Q 38.484375 40.53125 35.375 43.15625 
Q 32.28125 45.796875 27.875 45.796875 
Q 21.234375 45.796875 17.078125 41.03125 
Q 12.9375 36.28125 12.9375 25.984375 
Q 12.9375 15.53125 16.9375 10.796875 
Q 20.953125 6.0625 27.390625 6.0625 
Q 32.5625 6.0625 36.03125 9.234375 
Q 39.5 12.40625 40.4375 19 
z
" id="ArialMT-99"/>
       <path id="ArialMT-32"/>
       <path d="M 6.390625 0 
L 6.390625 71.578125 
L 15.1875 71.578125 
L 15.1875 0 
z
" id="ArialMT-108"/>
       <path d="M 4.984375 -4.296875 
L 13.53125 -5.5625 
Q 14.0625 -9.515625 16.5 -11.328125 
Q 19.78125 -13.765625 25.4375 -13.765625 
Q 31.546875 -13.765625 34.859375 -11.328125 
Q 38.1875 -8.890625 39.359375 -4.5 
Q 40.046875 -1.8125 39.984375 6.78125 
Q 34.234375 0 25.640625 0 
Q 14.9375 0 9.078125 7.71875 
Q 3.21875 15.4375 3.21875 26.21875 
Q 3.21875 33.640625 5.90625 39.90625 
Q 8.59375 46.1875 13.6875 49.609375 
Q 18.796875 53.03125 25.6875 53.03125 
Q 34.859375 53.03125 40.828125 45.609375 
L 40.828125 51.859375 
L 48.921875 51.859375 
L 48.921875 7.03125 
Q 48.921875 -5.078125 46.453125 -10.125 
Q 44 -15.1875 38.640625 -18.109375 
Q 33.296875 -21.046875 25.484375 -21.046875 
Q 16.21875 -21.046875 10.5 -16.875 
Q 4.78125 -12.703125 4.984375 -4.296875 
z
M 12.25 26.859375 
Q 12.25 16.65625 16.296875 11.96875 
Q 20.359375 7.28125 26.46875 7.28125 
Q 32.515625 7.28125 36.609375 11.9375 
Q 40.71875 16.609375 40.71875 26.5625 
Q 40.71875 36.078125 36.5 40.90625 
Q 32.28125 45.75 26.3125 45.75 
Q 20.453125 45.75 16.34375 40.984375 
Q 12.25 36.234375 12.25 26.859375 
z
" id="ArialMT-103"/>
       <path d="M 25.78125 7.859375 
L 27.046875 0.09375 
Q 23.34375 -0.6875 20.40625 -0.6875 
Q 15.625 -0.6875 12.984375 0.828125 
Q 10.359375 2.34375 9.28125 4.8125 
Q 8.203125 7.28125 8.203125 15.1875 
L 8.203125 45.015625 
L 1.765625 45.015625 
L 1.765625 51.859375 
L 8.203125 51.859375 
L 8.203125 64.703125 
L 16.9375 69.96875 
L 16.9375 51.859375 
L 25.78125 51.859375 
L 25.78125 45.015625 
L 16.9375 45.015625 
L 16.9375 14.703125 
Q 16.9375 10.9375 17.40625 9.859375 
Q 17.875 8.796875 18.921875 8.15625 
Q 19.96875 7.515625 21.921875 7.515625 
Q 23.390625 7.515625 25.78125 7.859375 
z
" id="ArialMT-116"/>
       <path d="M 6.59375 0 
L 6.59375 71.578125 
L 15.375 71.578125 
L 15.375 45.90625 
Q 21.53125 53.03125 30.90625 53.03125 
Q 36.671875 53.03125 40.921875 50.75 
Q 45.171875 48.484375 47 44.484375 
Q 48.828125 40.484375 48.828125 32.859375 
L 48.828125 0 
L 40.046875 0 
L 40.046875 32.859375 
Q 40.046875 39.453125 37.1875 42.453125 
Q 34.328125 45.453125 29.109375 45.453125 
Q 25.203125 45.453125 21.75 43.421875 
Q 18.3125 41.40625 16.84375 37.9375 
Q 15.375 34.46875 15.375 28.375 
L 15.375 0 
z
" id="ArialMT-104"/>
      </defs>
      <use xlink:href="#ArialMT-83"/>
      <use x="66.699219" xlink:href="#ArialMT-101"/>
      <use x="122.314453" xlink:href="#ArialMT-113"/>
      <use x="177.929688" xlink:href="#ArialMT-117"/>
      <use x="233.544922" xlink:href="#ArialMT-101"/>
      <use x="289.160156" xlink:href="#ArialMT-110"/>
      <use x="344.775391" xlink:href="#ArialMT-99"/>
      <use x="394.775391" xlink:href="#ArialMT-101"/>
      <use x="450.390625" xlink:href="#ArialMT-32"/>
      <use x="478.173828" xlink:href="#ArialMT-108"/>
      <use x="500.390625" xlink:href="#ArialMT-101"/>
      <use x="556.005859" xlink:href="#ArialMT-110"/>
      <use x="611.621094" xlink:href="#ArialMT-103"/>
      <use x="667.236328" xlink:href="#ArialMT-116"/>
      <use x="695.019531" xlink:href="#ArialMT-104"/>
     </g>
    </g>
   </g>
   <g id="matplotlib.axis_2">
    <g id="ytick_1">
     <g id="line2d_11">
      <defs>
       <path d="M 0 0 
L -3.5 0 
" id="m52c06a749b" style="stroke:#000000;stroke-width:0.8;"/>
      </defs>
      <g>
       <use style="stroke:#000000;stroke-width:0.8;" x="80.385937" xlink:href="#m52c06a749b" y="377.157338"/>
      </g>
     </g>
     <g id="text_12">
      <!-- 0.0 -->
      <g transform="translate(38.635937 386.104603)scale(0.25 -0.25)">
       <defs>
        <path d="M 9.078125 0 
L 9.078125 10.015625 
L 19.09375 10.015625 
L 19.09375 0 
z
" id="ArialMT-46"/>
       </defs>
       <use xlink:href="#ArialMT-48"/>
       <use x="55.615234" xlink:href="#ArialMT-46"/>
       <use x="83.398438" xlink:href="#ArialMT-48"/>
      </g>
     </g>
    </g>
    <g id="ytick_2">
     <g id="line2d_12">
      <g>
       <use style="stroke:#000000;stroke-width:0.8;" x="80.385937" xlink:href="#m52c06a749b" y="310.385054"/>
      </g>
     </g>
     <g id="text_13">
      <!-- 0.5 -->
      <g transform="translate(38.635937 319.33232)scale(0.25 -0.25)">
       <use xlink:href="#ArialMT-48"/>
       <use x="55.615234" xlink:href="#ArialMT-46"/>
       <use x="83.398438" xlink:href="#ArialMT-53"/>
      </g>
     </g>
    </g>
    <g id="ytick_3">
     <g id="line2d_13">
      <g>
       <use style="stroke:#000000;stroke-width:0.8;" x="80.385937" xlink:href="#m52c06a749b" y="243.612771"/>
      </g>
     </g>
     <g id="text_14">
      <!-- 1.0 -->
      <g transform="translate(38.635937 252.560036)scale(0.25 -0.25)">
       <use xlink:href="#ArialMT-49"/>
       <use x="55.615234" xlink:href="#ArialMT-46"/>
       <use x="83.398438" xlink:href="#ArialMT-48"/>
      </g>
     </g>
    </g>
    <g id="ytick_4">
     <g id="line2d_14">
      <g>
       <use style="stroke:#000000;stroke-width:0.8;" x="80.385937" xlink:href="#m52c06a749b" y="176.840488"/>
      </g>
     </g>
     <g id="text_15">
      <!-- 1.5 -->
      <g transform="translate(38.635937 185.787753)scale(0.25 -0.25)">
       <use xlink:href="#ArialMT-49"/>
       <use x="55.615234" xlink:href="#ArialMT-46"/>
       <use x="83.398438" xlink:href="#ArialMT-53"/>
      </g>
     </g>
    </g>
    <g id="ytick_5">
     <g id="line2d_15">
      <g>
       <use style="stroke:#000000;stroke-width:0.8;" x="80.385937" xlink:href="#m52c06a749b" y="110.068204"/>
      </g>
     </g>
     <g id="text_16">
      <!-- 2.0 -->
      <g transform="translate(38.635937 119.01547)scale(0.25 -0.25)">
       <use xlink:href="#ArialMT-50"/>
       <use x="55.615234" xlink:href="#ArialMT-46"/>
       <use x="83.398438" xlink:href="#ArialMT-48"/>
      </g>
     </g>
    </g>
    <g id="text_17">
     <!-- Count -->
     <g transform="translate(28.673437 254.101556)rotate(-90)scale(0.3 -0.3)">
      <defs>
       <path d="M 58.796875 25.09375 
L 68.265625 22.703125 
Q 65.28125 11.03125 57.546875 4.90625 
Q 49.8125 -1.21875 38.625 -1.21875 
Q 27.046875 -1.21875 19.796875 3.484375 
Q 12.546875 8.203125 8.765625 17.140625 
Q 4.984375 26.078125 4.984375 36.328125 
Q 4.984375 47.515625 9.25 55.828125 
Q 13.53125 64.15625 21.40625 68.46875 
Q 29.296875 72.796875 38.765625 72.796875 
Q 49.515625 72.796875 56.828125 67.328125 
Q 64.15625 61.859375 67.046875 51.953125 
L 57.71875 49.75 
Q 55.21875 57.5625 50.484375 61.125 
Q 45.75 64.703125 38.578125 64.703125 
Q 30.328125 64.703125 24.78125 60.734375 
Q 19.234375 56.78125 16.984375 50.109375 
Q 14.75 43.453125 14.75 36.375 
Q 14.75 27.25 17.40625 20.4375 
Q 20.0625 13.625 25.671875 10.25 
Q 31.296875 6.890625 37.84375 6.890625 
Q 45.796875 6.890625 51.3125 11.46875 
Q 56.84375 16.0625 58.796875 25.09375 
z
" id="ArialMT-67"/>
       <path d="M 3.328125 25.921875 
Q 3.328125 40.328125 11.328125 47.265625 
Q 18.015625 53.03125 27.640625 53.03125 
Q 38.328125 53.03125 45.109375 46.015625 
Q 51.90625 39.015625 51.90625 26.65625 
Q 51.90625 16.65625 48.90625 10.90625 
Q 45.90625 5.171875 40.15625 2 
Q 34.421875 -1.171875 27.640625 -1.171875 
Q 16.75 -1.171875 10.03125 5.8125 
Q 3.328125 12.796875 3.328125 25.921875 
z
M 12.359375 25.921875 
Q 12.359375 15.96875 16.703125 11.015625 
Q 21.046875 6.0625 27.640625 6.0625 
Q 34.1875 6.0625 38.53125 11.03125 
Q 42.875 16.015625 42.875 26.21875 
Q 42.875 35.84375 38.5 40.796875 
Q 34.125 45.75 27.640625 45.75 
Q 21.046875 45.75 16.703125 40.8125 
Q 12.359375 35.890625 12.359375 25.921875 
z
" id="ArialMT-111"/>
      </defs>
      <use xlink:href="#ArialMT-67"/>
      <use x="72.216797" xlink:href="#ArialMT-111"/>
      <use x="127.832031" xlink:href="#ArialMT-117"/>
      <use x="183.447266" xlink:href="#ArialMT-110"/>
      <use x="239.0625" xlink:href="#ArialMT-116"/>
     </g>
    </g>
    <g id="text_18">
     <!-- 1e7 -->
     <g transform="translate(80.385937 47.997338)scale(0.1 -0.1)">
      <use xlink:href="#ArialMT-49"/>
      <use x="55.615234" xlink:href="#ArialMT-101"/>
      <use x="111.230469" xlink:href="#ArialMT-55"/>
     </g>
    </g>
   </g>
   <g id="patch_75">
    <path d="M 80.385937 377.157338 
L 80.385937 50.997338 
" style="fill:none;stroke:#000000;stroke-linecap:square;stroke-linejoin:miter;stroke-width:0.8;"/>
   </g>
   <g id="patch_76">
    <path d="M 1084.785938 377.157338 
L 1084.785938 50.997338 
" style="fill:none;stroke:#000000;stroke-linecap:square;stroke-linejoin:miter;stroke-width:0.8;"/>
   </g>
   <g id="patch_77">
    <path d="M 80.385937 377.157338 
L 1084.785938 377.157338 
" style="fill:none;stroke:#000000;stroke-linecap:square;stroke-linejoin:miter;stroke-width:0.8;"/>
   </g>
   <g id="patch_78">
    <path d="M 80.385937 50.997338 
L 1084.785938 50.997338 
" style="fill:none;stroke:#000000;stroke-linecap:square;stroke-linejoin:miter;stroke-width:0.8;"/>
   </g>
   <g id="text_19">
    <!-- Distribution of sequence lengths in pep dataset -->
    <g transform="translate(229.155937 31.950938)scale(0.34 -0.34)">
     <defs>
      <path d="M 7.71875 0 
L 7.71875 71.578125 
L 32.375 71.578125 
Q 40.71875 71.578125 45.125 70.5625 
Q 51.265625 69.140625 55.609375 65.4375 
Q 61.28125 60.640625 64.078125 53.1875 
Q 66.890625 45.75 66.890625 36.1875 
Q 66.890625 28.03125 64.984375 21.734375 
Q 63.09375 15.4375 60.109375 11.296875 
Q 57.125 7.171875 53.578125 4.796875 
Q 50.046875 2.4375 45.046875 1.21875 
Q 40.046875 0 33.546875 0 
z
M 17.1875 8.453125 
L 32.46875 8.453125 
Q 39.546875 8.453125 43.578125 9.765625 
Q 47.609375 11.078125 50 13.484375 
Q 53.375 16.84375 55.25 22.53125 
Q 57.125 28.21875 57.125 36.328125 
Q 57.125 47.5625 53.4375 53.59375 
Q 49.75 59.625 44.484375 61.671875 
Q 40.671875 63.140625 32.234375 63.140625 
L 17.1875 63.140625 
z
" id="ArialMT-68"/>
      <path d="M 6.640625 61.46875 
L 6.640625 71.578125 
L 15.4375 71.578125 
L 15.4375 61.46875 
z
M 6.640625 0 
L 6.640625 51.859375 
L 15.4375 51.859375 
L 15.4375 0 
z
" id="ArialMT-105"/>
      <path d="M 3.078125 15.484375 
L 11.765625 16.84375 
Q 12.5 11.625 15.84375 8.84375 
Q 19.1875 6.0625 25.203125 6.0625 
Q 31.25 6.0625 34.171875 8.515625 
Q 37.109375 10.984375 37.109375 14.3125 
Q 37.109375 17.28125 34.515625 19 
Q 32.71875 20.171875 25.53125 21.96875 
Q 15.875 24.421875 12.140625 26.203125 
Q 8.40625 27.984375 6.46875 31.125 
Q 4.546875 34.28125 4.546875 38.09375 
Q 4.546875 41.546875 6.125 44.5 
Q 7.71875 47.46875 10.453125 49.421875 
Q 12.5 50.921875 16.03125 51.96875 
Q 19.578125 53.03125 23.640625 53.03125 
Q 29.734375 53.03125 34.34375 51.265625 
Q 38.96875 49.515625 41.15625 46.5 
Q 43.359375 43.5 44.1875 38.484375 
L 35.59375 37.3125 
Q 35.015625 41.3125 32.203125 43.546875 
Q 29.390625 45.796875 24.265625 45.796875 
Q 18.21875 45.796875 15.625 43.796875 
Q 13.03125 41.796875 13.03125 39.109375 
Q 13.03125 37.40625 14.109375 36.03125 
Q 15.1875 34.625 17.484375 33.6875 
Q 18.796875 33.203125 25.25 31.453125 
Q 34.578125 28.953125 38.25 27.359375 
Q 41.9375 25.78125 44.03125 22.75 
Q 46.140625 19.734375 46.140625 15.234375 
Q 46.140625 10.84375 43.578125 6.953125 
Q 41.015625 3.078125 36.171875 0.953125 
Q 31.34375 -1.171875 25.25 -1.171875 
Q 15.140625 -1.171875 9.84375 3.03125 
Q 4.546875 7.234375 3.078125 15.484375 
z
" id="ArialMT-115"/>
      <path d="M 6.5 0 
L 6.5 51.859375 
L 14.40625 51.859375 
L 14.40625 44 
Q 17.4375 49.515625 20 51.265625 
Q 22.5625 53.03125 25.640625 53.03125 
Q 30.078125 53.03125 34.671875 50.203125 
L 31.640625 42.046875 
Q 28.421875 43.953125 25.203125 43.953125 
Q 22.3125 43.953125 20.015625 42.21875 
Q 17.71875 40.484375 16.75 37.40625 
Q 15.28125 32.71875 15.28125 27.15625 
L 15.28125 0 
z
" id="ArialMT-114"/>
      <path d="M 14.703125 0 
L 6.546875 0 
L 6.546875 71.578125 
L 15.328125 71.578125 
L 15.328125 46.046875 
Q 20.90625 53.03125 29.546875 53.03125 
Q 34.328125 53.03125 38.59375 51.09375 
Q 42.875 49.171875 45.625 45.671875 
Q 48.390625 42.1875 49.953125 37.25 
Q 51.515625 32.328125 51.515625 26.703125 
Q 51.515625 13.375 44.921875 6.09375 
Q 38.328125 -1.171875 29.109375 -1.171875 
Q 19.921875 -1.171875 14.703125 6.5 
z
M 14.59375 26.3125 
Q 14.59375 17 17.140625 12.84375 
Q 21.296875 6.0625 28.375 6.0625 
Q 34.125 6.0625 38.328125 11.0625 
Q 42.53125 16.0625 42.53125 25.984375 
Q 42.53125 36.140625 38.5 40.96875 
Q 34.46875 45.796875 28.765625 45.796875 
Q 23 45.796875 18.796875 40.796875 
Q 14.59375 35.796875 14.59375 26.3125 
z
" id="ArialMT-98"/>
      <path d="M 8.6875 0 
L 8.6875 45.015625 
L 0.921875 45.015625 
L 0.921875 51.859375 
L 8.6875 51.859375 
L 8.6875 57.375 
Q 8.6875 62.59375 9.625 65.140625 
Q 10.890625 68.5625 14.078125 70.671875 
Q 17.28125 72.796875 23.046875 72.796875 
Q 26.765625 72.796875 31.25 71.921875 
L 29.9375 64.265625 
Q 27.203125 64.75 24.75 64.75 
Q 20.75 64.75 19.09375 63.03125 
Q 17.4375 61.328125 17.4375 56.640625 
L 17.4375 51.859375 
L 27.546875 51.859375 
L 27.546875 45.015625 
L 17.4375 45.015625 
L 17.4375 0 
z
" id="ArialMT-102"/>
      <path d="M 6.59375 -19.875 
L 6.59375 51.859375 
L 14.59375 51.859375 
L 14.59375 45.125 
Q 17.4375 49.078125 21 51.046875 
Q 24.5625 53.03125 29.640625 53.03125 
Q 36.28125 53.03125 41.359375 49.609375 
Q 46.4375 46.1875 49.015625 39.953125 
Q 51.609375 33.734375 51.609375 26.3125 
Q 51.609375 18.359375 48.75 11.984375 
Q 45.90625 5.609375 40.453125 2.21875 
Q 35.015625 -1.171875 29 -1.171875 
Q 24.609375 -1.171875 21.109375 0.6875 
Q 17.625 2.546875 15.375 5.375 
L 15.375 -19.875 
z
M 14.546875 25.640625 
Q 14.546875 15.625 18.59375 10.84375 
Q 22.65625 6.0625 28.421875 6.0625 
Q 34.28125 6.0625 38.453125 11.015625 
Q 42.625 15.96875 42.625 26.375 
Q 42.625 36.28125 38.546875 41.203125 
Q 34.46875 46.140625 28.8125 46.140625 
Q 23.1875 46.140625 18.859375 40.890625 
Q 14.546875 35.640625 14.546875 25.640625 
z
" id="ArialMT-112"/>
      <path d="M 40.234375 0 
L 40.234375 6.546875 
Q 35.296875 -1.171875 25.734375 -1.171875 
Q 19.53125 -1.171875 14.328125 2.25 
Q 9.125 5.671875 6.265625 11.796875 
Q 3.421875 17.921875 3.421875 25.875 
Q 3.421875 33.640625 6 39.96875 
Q 8.59375 46.296875 13.765625 49.65625 
Q 18.953125 53.03125 25.34375 53.03125 
Q 30.03125 53.03125 33.6875 51.046875 
Q 37.359375 49.078125 39.65625 45.90625 
L 39.65625 71.578125 
L 48.390625 71.578125 
L 48.390625 0 
z
M 12.453125 25.875 
Q 12.453125 15.921875 16.640625 10.984375 
Q 20.84375 6.0625 26.5625 6.0625 
Q 32.328125 6.0625 36.34375 10.765625 
Q 40.375 15.484375 40.375 25.140625 
Q 40.375 35.796875 36.265625 40.765625 
Q 32.171875 45.75 26.171875 45.75 
Q 20.3125 45.75 16.375 40.96875 
Q 12.453125 36.1875 12.453125 25.875 
z
" id="ArialMT-100"/>
      <path d="M 40.4375 6.390625 
Q 35.546875 2.25 31.03125 0.53125 
Q 26.515625 -1.171875 21.34375 -1.171875 
Q 12.796875 -1.171875 8.203125 3 
Q 3.609375 7.171875 3.609375 13.671875 
Q 3.609375 17.484375 5.34375 20.625 
Q 7.078125 23.78125 9.890625 25.6875 
Q 12.703125 27.59375 16.21875 28.5625 
Q 18.796875 29.25 24.03125 29.890625 
Q 34.671875 31.15625 39.703125 32.90625 
Q 39.75 34.71875 39.75 35.203125 
Q 39.75 40.578125 37.25 42.78125 
Q 33.890625 45.75 27.25 45.75 
Q 21.046875 45.75 18.09375 43.578125 
Q 15.140625 41.40625 13.71875 35.890625 
L 5.125 37.0625 
Q 6.296875 42.578125 8.984375 45.96875 
Q 11.671875 49.359375 16.75 51.1875 
Q 21.828125 53.03125 28.515625 53.03125 
Q 35.15625 53.03125 39.296875 51.46875 
Q 43.453125 49.90625 45.40625 47.53125 
Q 47.359375 45.171875 48.140625 41.546875 
Q 48.578125 39.3125 48.578125 33.453125 
L 48.578125 21.734375 
Q 48.578125 9.46875 49.140625 6.21875 
Q 49.703125 2.984375 51.375 0 
L 42.1875 0 
Q 40.828125 2.734375 40.4375 6.390625 
z
M 39.703125 26.03125 
Q 34.90625 24.078125 25.34375 22.703125 
Q 19.921875 21.921875 17.671875 20.9375 
Q 15.4375 19.96875 14.203125 18.09375 
Q 12.984375 16.21875 12.984375 13.921875 
Q 12.984375 10.40625 15.640625 8.0625 
Q 18.3125 5.71875 23.4375 5.71875 
Q 28.515625 5.71875 32.46875 7.9375 
Q 36.421875 10.15625 38.28125 14.015625 
Q 39.703125 17 39.703125 22.796875 
z
" id="ArialMT-97"/>
     </defs>
     <use xlink:href="#ArialMT-68"/>
     <use x="72.216797" xlink:href="#ArialMT-105"/>
     <use x="94.433594" xlink:href="#ArialMT-115"/>
     <use x="144.433594" xlink:href="#ArialMT-116"/>
     <use x="172.216797" xlink:href="#ArialMT-114"/>
     <use x="205.517578" xlink:href="#ArialMT-105"/>
     <use x="227.734375" xlink:href="#ArialMT-98"/>
     <use x="283.349609" xlink:href="#ArialMT-117"/>
     <use x="338.964844" xlink:href="#ArialMT-116"/>
     <use x="366.748047" xlink:href="#ArialMT-105"/>
     <use x="388.964844" xlink:href="#ArialMT-111"/>
     <use x="444.580078" xlink:href="#ArialMT-110"/>
     <use x="500.195312" xlink:href="#ArialMT-32"/>
     <use x="527.978516" xlink:href="#ArialMT-111"/>
     <use x="583.59375" xlink:href="#ArialMT-102"/>
     <use x="611.376953" xlink:href="#ArialMT-32"/>
     <use x="639.160156" xlink:href="#ArialMT-115"/>
     <use x="689.160156" xlink:href="#ArialMT-101"/>
     <use x="744.775391" xlink:href="#ArialMT-113"/>
     <use x="800.390625" xlink:href="#ArialMT-117"/>
     <use x="856.005859" xlink:href="#ArialMT-101"/>
     <use x="911.621094" xlink:href="#ArialMT-110"/>
     <use x="967.236328" xlink:href="#ArialMT-99"/>
     <use x="1017.236328" xlink:href="#ArialMT-101"/>
     <use x="1072.851562" xlink:href="#ArialMT-32"/>
     <use x="1100.634766" xlink:href="#ArialMT-108"/>
     <use x="1122.851562" xlink:href="#ArialMT-101"/>
     <use x="1178.466797" xlink:href="#ArialMT-110"/>
     <use x="1234.082031" xlink:href="#ArialMT-103"/>
     <use x="1289.697266" xlink:href="#ArialMT-116"/>
     <use x="1317.480469" xlink:href="#ArialMT-104"/>
     <use x="1373.095703" xlink:href="#ArialMT-115"/>
     <use x="1423.095703" xlink:href="#ArialMT-32"/>
     <use x="1450.878906" xlink:href="#ArialMT-105"/>
     <use x="1473.095703" xlink:href="#ArialMT-110"/>
     <use x="1528.710938" xlink:href="#ArialMT-32"/>
     <use x="1556.494141" xlink:href="#ArialMT-112"/>
     <use x="1612.109375" xlink:href="#ArialMT-101"/>
     <use x="1667.724609" xlink:href="#ArialMT-112"/>
     <use x="1723.339844" xlink:href="#ArialMT-32"/>
     <use x="1751.123047" xlink:href="#ArialMT-100"/>
     <use x="1806.738281" xlink:href="#ArialMT-97"/>
     <use x="1862.353516" xlink:href="#ArialMT-116"/>
     <use x="1890.136719" xlink:href="#ArialMT-97"/>
     <use x="1945.751953" xlink:href="#ArialMT-115"/>
     <use x="1995.751953" xlink:href="#ArialMT-101"/>
     <use x="2051.367188" xlink:href="#ArialMT-116"/>
    </g>
   </g>
  </g>
 </g>
 <defs>
  <clipPath id="p66cd2089b7">
   <rect height="326.16" width="1004.4" x="80.385937" y="50.997338"/>
  </clipPath>
 </defs>
</svg>
